<?xml version="1.0" encoding="utf-8"?>
<!-- Generator: Adobe Illustrator 25.0.0, SVG Export Plug-In . SVG Version: 6.00 Build 0)  -->
<svg version="1.1" id="Layer_1" xmlns="http://www.w3.org/2000/svg" xmlns:xlink="http://www.w3.org/1999/xlink" x="0px" y="0px"
	 viewBox="0 0 256 256" style="enable-background:new 0 0 256 256;" xml:space="preserve">
<style type="text/css">
	.st0{fill:#A5A5A5;}
</style>
<g>
	<path class="st0" d="M254.6,194.1l-14.3-16.7l2.4-21.4l-21.4-4.8l-1.2-2.4l-9.5-16.7l-20.2,8.3l-20.2-8.3l-10.7,19.1l-21.4,4.8
		l2.4,21.4l-14.3,16.7l14.3,16.7l-2.4,21.4l21.4,4.8l0,0l10.7,19.1l20.2-8.3l20.2,8.3l10.7-19.1l21.4-4.8l-2.4-21.4L254.6,194.1z
		 M218.9,181l-41.7,41.7L154.6,200l8.3-8.3l14.3,14.3l34.5-34.5l6,6l2.4,2.4L218.9,181z"/>
	<path class="st0" d="M195.1,0H52.2C39.1,0,28.4,10.7,28.4,23.8v190.5c0,13.1,10.7,23.8,23.8,23.8h71.4v-6l1.2-16.7l-10.7-13.1
		L107,194l7.1-8.3l10.7-13.1l-1.2-16.7l-1.2-10.7l10.7-2.4l16.7-3.6l8.3-14.3l4.8-9.5l9.5,3.6l15.5,7.1l15.5-7.1l9.5-3.6l4.8,8.3
		v-100C218.9,10.7,208.2,0,195.1,0z M112.9,72.6c0,1.2,0,1.2,0,2.4l25,14.3c2.4-1.2,4.8-2.4,7.1-2.4c6,0,10.7,4.8,10.7,10.7
		s-4.8,10.7-10.7,10.7s-10.7-4.8-10.7-10.7c0-1.2,0-1.2,0-2.4l-25-14.3c-2.4,2.4-4.8,2.4-7.1,2.4c-6,0-10.7-4.8-10.7-10.7
		s4.8-10.7,10.7-10.7c2.4,0,4.8,1.2,7.1,2.4l25-14.3c0-1.2,0-1.2,0-2.4c0-6,4.8-10.7,10.7-10.7s10.7,4.8,10.7,10.7
		s-4.8,10.7-10.7,10.7c-2.4,0-6-1.2-7.1-2.4l-25,14.3C112.9,71.4,112.9,71.4,112.9,72.6z"/>
</g>
</svg>
