<?xml version="1.0" encoding="utf-8"?>
<!-- Generator: Adobe Illustrator 25.0.0, SVG Export Plug-In . SVG Version: 6.00 Build 0)  -->
<svg version="1.1" id="Layer_1" xmlns="http://www.w3.org/2000/svg" xmlns:xlink="http://www.w3.org/1999/xlink" x="0px" y="0px"
	 viewBox="0 0 256 256" style="enable-background:new 0 0 256 256;" xml:space="preserve">
<style type="text/css">
	.st0{fill:#EDD000;}
	.st1{fill:#1672E4;}
</style>
<g>
	<path class="st0" d="M254.6,194l-14.3-16.7l2.4-21.4l-21.4-4.8l-1.2-2.4l-9.5-16.7l-20.2,8.3l-20.2-8.3l-10.8,19.2L138,156
		l2.4,21.4l-14.3,16.7l14.3,16.7l-2.4,21.4l21.4,4.8l0,0l10.7,19.1l20.2-8.3l20.2,8.3l10.7-19.1l21.4-4.8l-2.4-21.4L254.6,194z
		 M218.9,181l-41.7,41.7l-22.6-22.6l8.3-8.3l14.3,14.3l34.5-34.5l6,6l2.4,2.4L218.9,181z"/>
	<g>
		<polygon class="st1" points="121.3,59.5 124.8,59.5 122.4,53.5 		"/>
		<polygon class="st1" points="104.6,89.3 109.3,70.2 101,70.2 		"/>
		<path class="st1" d="M195.1,0H52.2C39.1,0,28.4,10.7,28.4,23.8v190.5c0,13.1,10.7,23.8,23.8,23.8h71.4v-6l1.2-16.7l-10.7-13.1
			l-6-8.3l7.1-8.3l10.7-13.1l-1.2-16.7l-1.2-10.7l10.7-2.4l16.7-3.6l8.3-14.3l4.8-9.5l9.5,3.6l15.5,7.1l15.5-7.1l9.5-3.6l4.8,8.3
			v-100C218.9,10.7,208.2,0,195.1,0z M167.7,70.2H157l-8.3,36.9h-14.3l-8.3-36.9h-6l-8.3,36.9H97.4l-8.3-36.9H78.4V59.5h8.3
			l-4.8-22.6h11.9l4.8,22.6h13.1l4.8-22.6h14.3l4.8,22.6h13.1l4.8-22.6h11.9l-6,22.6h8.3L167.7,70.2L167.7,70.2z"/>
		<polygon class="st1" points="141.5,89.3 146.3,70.2 137.9,70.2 		"/>
	</g>
</g>
</svg>
