<?xml version="1.0" encoding="utf-8"?>
<!-- Generator: Adobe Illustrator 25.0.0, SVG Export Plug-In . SVG Version: 6.00 Build 0)  -->
<svg version="1.1" id="Layer_1" xmlns="http://www.w3.org/2000/svg" xmlns:xlink="http://www.w3.org/1999/xlink" x="0px" y="0px"
	 viewBox="0 0 256 256" style="enable-background:new 0 0 256 256;" xml:space="preserve">
<style type="text/css">
	.st0{fill:#EDD000;}
	.st1{fill:#1672E4;}
</style>
<g>
	<path class="st0" d="M255.2,194.1l-15.5-16.7l2.4-21.4l-21.4-4.8l-1.2-2.4l-9.5-16.7l-20.2,8.3l-20.2-8.3l-10.7,19.1l-21.4,4.8
		l2.4,21.4l-14.3,16.7l14.3,16.7l-2.4,21.4l21.4,4.8l0,0l10.7,19.1l20.2-8.3L210,256l10.7-19.1l21.4-4.8l-2.4-21.4L255.2,194.1z
		 M219.5,181l-41.7,41.7L155.2,200l8.3-8.3l14.3,14.3l34.5-34.5l6,6l2.4,2.4L219.5,181z"/>
	<path class="st1" d="M194.5,0H51.6C38.5,0,27.8,10.7,27.8,23.8v190.5c0,13.1,10.7,23.8,23.8,23.8H123v-6l2.4-17.8l-10.7-11.9
		l-7.1-8.3l7.1-8.3l10.7-13.1l-1.2-16.7l-1.2-10.7l10.7-2.4l16.7-3.6l8.3-14.3l4.8-9.5l9.5,3.6l15.5,7.1l15.5-7.1l9.5-3.6l4.8,8.3
		v-100C218.3,10.7,207.6,0,194.5,0z M155.2,108.3H97.3c-14.7,0-26.7-12-26.7-26.7C70.6,67.8,81,56.5,94.4,55
		c5.6-10.7,16.7-18,29.6-18c16.2,0,29.7,11.5,32.7,26.9c11.6,0.8,20.7,10.3,20.7,22.1C177.5,98.3,167.5,108.3,155.2,108.3z"/>
</g>
</svg>
