<?xml version="1.0" encoding="utf-8"?>
<!-- Generator: Adobe Illustrator 24.3.0, SVG Export Plug-In . SVG Version: 6.00 Build 0)  -->
<svg version="1.1" id="Layer_1" xmlns="http://www.w3.org/2000/svg" xmlns:xlink="http://www.w3.org/1999/xlink" x="0px" y="0px"
	 viewBox="0 0 32 32" style="enable-background:new 0 0 32 32;" xml:space="preserve">
<style type="text/css">
	.st0{fill:#FFFFFF;}
</style>
<g>
	<path class="st0" d="M7,13.5c-0.4,0-0.9,0-1.3,0c-0.2,0-0.3,0-0.3,0.2c0,0.5,0,1,0,1.6c0.6-0.3,1.2-0.6,1.8-0.9
		c0.2-0.1,0.3-0.3,0.3-0.6C7.4,13.5,7.2,13.5,7,13.5z"/>
	<path class="st0" d="M12.3,13.6C12.3,13.6,12.3,13.6,12.3,13.6c-0.3,0.9-0.5,1.8-0.7,2.8c0.4-0.2,0.8-0.4,1.1-0.6
		c0.1,0,0.1-0.2,0.1-0.3C12.6,14.9,12.5,14.3,12.3,13.6z"/>
	<path class="st0" d="M28.8,0H3.3C1.5,0,0,1.5,0,3.3v25.5C0,30.5,1.5,32,3.3,32h25.5c1.8,0,3.3-1.5,3.3-3.3V3.3
		C32,1.5,30.5,0,28.8,0z M8.5,15.4C8,15.7,7.4,16,6.9,16.3c-0.4,0.2-0.8,0.4-1.2,0.6c-0.2,0.1-0.3,0.2-0.3,0.5c0,0.8,0,1.5,0,2.3
		c0,0.3-0.1,0.4-0.4,0.4c-0.3,0-0.6,0-0.9,0c-0.3,0-0.4-0.1-0.4-0.4c0-1.2,0-2.5,0-3.7c0,0,0,0,0,0c0-1.2,0-2.4,0-3.6
		c0-0.4,0-0.4,0.4-0.4c1.1,0,2.2,0,3.2,0c0.9,0,1.6,0.5,1.9,1.2C9.6,13.9,9.2,14.9,8.5,15.4z M15.2,20.1c-0.3,0-0.7,0-1,0
		c-0.2,0-0.3-0.1-0.4-0.3c-0.2-0.8-0.4-1.6-0.6-2.4c-0.7,0.4-1.4,0.8-2.1,1.2c-0.1,0-0.1,0.2-0.2,0.3c-0.1,0.3-0.2,0.6-0.2,1
		c0,0.3-0.2,0.3-0.4,0.3c-0.3,0-0.6,0-0.9,0C9,20.1,9,20,9.1,19.7c0.4-1.6,0.8-3.1,1.2-4.7c0.2-0.9,0.5-1.7,0.7-2.6
		c0.1-0.3,0.3-0.5,0.6-0.5c0.5,0,1,0,1.5,0c0.3,0,0.4,0.1,0.5,0.4c0.6,2.5,1.3,5,1.9,7.5C15.6,20,15.5,20.1,15.2,20.1z M21.7,18.4
		c-0.1,1-0.8,1.6-1.8,1.7c-0.3,0-0.6,0-0.9,0c0,0,0,0,0,0c-0.4,0-0.8,0-1.2-0.1c-1.2-0.2-1.6-1.1-1.5-2.3c0-0.1,0.2-0.2,0.3-0.2
		c0.3,0,0.7,0,1,0c0.2,0,0.3,0.1,0.3,0.3c0.1,0.8,0.2,0.9,1,0.9c0.2,0,0.5,0,0.7,0c0.4,0,0.6-0.2,0.6-0.6c0.1-0.7-0.1-1-0.9-1.2
		c-0.6-0.1-1.1-0.2-1.7-0.3c-0.8-0.2-1.2-0.7-1.3-1.5c-0.1-0.5-0.1-1,0-1.5c0.1-0.9,0.7-1.5,1.6-1.6c0.8-0.1,1.5-0.1,2.3,0
		c1.2,0.1,1.7,1.1,1.6,2.3c0,0.1-0.2,0.2-0.3,0.2c-0.3,0-0.7,0-1.1,0c-0.2,0-0.3-0.1-0.3-0.3c-0.1-0.7-0.2-0.8-0.9-0.8
		c-0.1,0-0.2,0-0.3,0c-0.8,0-1.2,0.6-0.9,1.4c0.1,0.2,0.3,0.3,0.5,0.4c0.4,0.1,0.8,0.1,1.2,0.2c0.3,0,0.5,0.1,0.8,0.2
		c0.8,0.2,1.2,0.8,1.3,1.6C21.7,17.5,21.7,18,21.7,18.4z M28.2,18.4c-0.1,1-0.8,1.6-1.8,1.6c-0.3,0-0.6,0-0.9,0c0,0,0,0,0,0
		c-0.4,0-0.8,0-1.2-0.1c-1.2-0.2-1.7-1.1-1.6-2.3c0-0.1,0.2-0.2,0.3-0.3c0.3,0,0.7,0,1,0c0.2,0,0.3,0.1,0.3,0.3c0,0.1,0,0.2,0,0.3
		c0,0.3,0.2,0.5,0.5,0.5c0.4,0,0.8,0,1.2,0c0.3,0,0.5-0.2,0.6-0.6c0.1-0.8-0.1-1.1-0.9-1.2c-0.5-0.1-1.1-0.2-1.6-0.3
		c-0.8-0.2-1.3-0.7-1.4-1.5c-0.1-0.5-0.1-0.9,0-1.4c0.1-0.9,0.7-1.6,1.6-1.6c0.7-0.1,1.5-0.1,2.2,0c1.2,0.2,1.7,1.2,1.6,2.3
		c0,0.1-0.2,0.2-0.3,0.2c-0.3,0-0.7,0-1,0c-0.2,0-0.3-0.1-0.3-0.3c-0.1-0.8-0.2-0.9-0.9-0.9c-0.2,0-0.4,0-0.6,0
		c-0.4,0-0.6,0.2-0.6,0.6c0,0.1,0,0.3,0,0.4c0,0.4,0.1,0.6,0.5,0.7c0.4,0.1,0.8,0.1,1.2,0.2c0.3,0.1,0.6,0.1,0.8,0.2
		c0.8,0.2,1.2,0.8,1.3,1.6C28.3,17.5,28.3,18,28.2,18.4z"/>
</g>
</svg>
