<?xml version="1.0" encoding="utf-8"?>
<!-- Generator: Adobe Illustrator 24.3.0, SVG Export Plug-In . SVG Version: 6.00 Build 0)  -->
<svg version="1.1" id="Layer_1" xmlns="http://www.w3.org/2000/svg" xmlns:xlink="http://www.w3.org/1999/xlink" x="0px" y="0px"
	 viewBox="0 0 32 32" style="enable-background:new 0 0 32 32;" xml:space="preserve">
<style type="text/css">
	.st0{fill:#363F49;}
</style>
<g>
	<path class="st0" d="M28.8,0H3.3C1.5,0,0,1.5,0,3.3v25.5C0,30.5,1.5,32,3.3,32h25.5c1.8,0,3.3-1.5,3.3-3.3V3.3
		C32,1.5,30.5,0,28.8,0z M25.7,16.5c-0.4,4-3,6.9-6.6,7.6c-3.6,0.6-6.9-0.9-8.7-4c-0.2-0.4-0.4-0.5-0.8-0.3C8.7,20.2,7.9,20.6,7,21
		c-0.2,0.1-0.4,0.2-0.8,0.4c0.1-0.6,0.2-1.1,0.3-1.5c0.8-3.3,2.1-6.4,4.4-8.9c2.6-2.9,6.5-3.9,10-2.3C24.4,10.1,26,13.5,25.7,16.5z"
		/>
</g>
</svg>
