<?xml version="1.0" encoding="utf-8"?>
<!-- Generator: Adobe Illustrator 24.3.0, SVG Export Plug-In . SVG Version: 6.00 Build 0)  -->
<svg version="1.1" id="Layer_1" xmlns="http://www.w3.org/2000/svg" xmlns:xlink="http://www.w3.org/1999/xlink" x="0px" y="0px"
	 viewBox="0 0 32 32" style="enable-background:new 0 0 32 32;" xml:space="preserve">
<style type="text/css">
	.st0{fill:#FEE705;}
</style>
<g>
	<path class="st0" d="M28.8,0.5H3.3C1.5,0.5,0,2,0,3.8v25.5c0,1.8,1.5,3.3,3.3,3.3h25.5c1.8,0,3.3-1.5,3.3-3.3V3.8
		C32,2,30.5,0.5,28.8,0.5z M22.5,20.9c-2.2,1.5-4.6,2.1-7.2,1.9c-0.8-0.1-1.3,0.1-1.9,0.6c-1,0.7-2.1,1.4-3.2,2.1
		c-0.1-0.1-0.2-0.1-0.3-0.2c0.2-0.9,0.4-1.7,0.6-2.6c0.3-0.8,0.1-1.2-0.7-1.7c-4.7-3.1-4.8-8.7,0-11.8c0.9-0.6,2-1.1,3-1.3
		c3.4-0.9,6.7-0.5,9.6,1.5C26.8,12.4,26.9,17.9,22.5,20.9z"/>
</g>
</svg>
