<?xml version="1.0" encoding="utf-8"?>
<!-- Generator: Adobe Illustrator 24.3.0, SVG Export Plug-In . SVG Version: 6.00 Build 0)  -->
<svg version="1.1" id="Layer_1" xmlns="http://www.w3.org/2000/svg" xmlns:xlink="http://www.w3.org/1999/xlink" x="0px" y="0px"
	 viewBox="0 0 32 32" style="enable-background:new 0 0 32 32;" xml:space="preserve">
<style type="text/css">
	.st0{fill:#363F49;}
</style>
<g>
	<rect x="12.4" y="12.7" class="st0" width="7.3" height="1.8"/>
	<polygon class="st0" points="22.8,19.3 20.1,21.9 19.1,20.8 18.4,21.5 20.1,23.2 23.3,20 23.4,19.9 23.2,19.8 	"/>
	<rect x="12.4" y="9.1" class="st0" width="7.3" height="1.8"/>
	<path class="st0" d="M28.8,0H3.3C1.5,0,0,1.5,0,3.3v25.5C0,30.5,1.5,32,3.3,32h25.5c1.8,0,3.3-1.5,3.3-3.3V3.3
		C32,1.5,30.5,0,28.8,0z M15.3,21.7l0.8,0.9L16,23.9v0.5h-5.4c-1,0-1.8-0.8-1.8-1.8V8.1c0-1,0.8-1.8,1.8-1.8h10.9
		c1,0,1.8,0.8,1.8,1.8v7.6L22.9,15l-0.7,0.3L21,15.9l-1.2-0.5L19.1,15l-0.4,0.7l-0.6,1.1l-1.3,0.3L16,17.3l0.1,0.8l0.1,1.3l-0.8,1
		L14.8,21L15.3,21.7z M25,23.9l-1.6,0.4l-0.8,1.5l-1.5-0.6l-1.5,0.6l-0.8-1.5l-1.6-0.4l0.2-1.6L16.2,21l1.1-1.3l-0.2-1.6l1.6-0.4
		l0.8-1.5l1.5,0.6l1.5-0.6l0.7,1.3l0.1,0.2l1.6,0.4l-0.2,1.6L26,21l-1.2,1.3L25,23.9z"/>
</g>
</svg>
