<?xml version="1.0" encoding="utf-8"?>
<!-- Generator: Adobe Illustrator 24.3.0, SVG Export Plug-In . SVG Version: 6.00 Build 0)  -->
<svg version="1.1" id="Layer_1" xmlns="http://www.w3.org/2000/svg" xmlns:xlink="http://www.w3.org/1999/xlink" x="0px" y="0px"
	 viewBox="0 0 32 32" style="enable-background:new 0 0 32 32;" xml:space="preserve">
<style type="text/css">
	.st0{fill:#1672E4;}
</style>
<g>
	<path class="st0" d="M28.8,0H3.3C1.5,0,0,1.5,0,3.3v25.5C0,30.5,1.5,32,3.3,32h25.5c1.8,0,3.3-1.5,3.3-3.3V3.3
		C32,1.5,30.5,0,28.8,0z M10.1,7.7c1.8-1,3.8-1.5,5.9-1.5s3.9,0.5,5.9,1.5c0.2,0.1,0.3,0.4,0.2,0.7c-0.1,0.2-0.3,0.3-0.4,0.3
		s-0.2,0-0.2-0.1c-1.9-1-3.5-1.4-5.4-1.4s-3.8,0.5-5.4,1.4c-0.2,0.1-0.5,0-0.7-0.2C9.8,8.2,9.9,7.9,10.1,7.7z M14.2,25.4
		c-0.1,0.1-0.2,0.1-0.4,0.1c-0.1,0-0.3,0-0.3-0.1c-0.8-0.8-1.3-1.4-2-2.6s-1-2.7-1-4.2c0-2.9,2.5-5.3,5.5-5.3s5.5,2.4,5.5,5.3
		c0,0.3-0.2,0.5-0.5,0.5s-0.5-0.2-0.5-0.5c0-2.4-2-4.3-4.5-4.3s-4.5,1.9-4.5,4.3c0,1.4,0.3,2.7,0.9,3.8c0.6,1.1,1.1,1.6,1.8,2.4
		C14.4,24.9,14.4,25.2,14.2,25.4z M22,23.6c-0.6,0.1-1,0.1-1.2,0.1c-1.2,0-2.2-0.3-3-0.9c-1.5-1-2.3-2.6-2.3-4.3
		c0-0.3,0.2-0.5,0.5-0.5s0.5,0.2,0.5,0.5c0,1.4,0.7,2.7,1.9,3.5c0.7,0.5,1.5,0.7,2.5,0.7c0.2,0,0.6,0,1-0.1c0.3,0,0.5,0.1,0.6,0.4
		C22.4,23.3,22.3,23.6,22,23.6z M21,21.5c-1.7,0-3-1.3-3-2.9c0-1-0.9-1.9-2-1.9s-2,0.8-2,1.9c0,1.7,0.6,3.2,1.8,4.4
		c0.9,0.9,1.8,1.4,3.2,1.8c0.3,0.1,0.4,0.3,0.3,0.6c0,0.2-0.3,0.4-0.5,0.4h-0.1c-1.6-0.4-2.6-1-3.6-2c-1.4-1.4-2.1-3.2-2.1-5.1
		c0-1.6,1.3-2.9,3-2.9s3,1.3,3,2.9c0,1,0.9,1.9,2,1.9s2-0.8,2-1.9c0-3.7-3.2-6.7-7.1-6.7c-2.8,0-5.3,1.5-6.4,3.9
		c-0.4,0.8-0.6,1.7-0.6,2.7c0,0.8,0.1,2,0.7,3.5c0.1,0.3,0,0.5-0.3,0.6s-0.5,0-0.6-0.3C8.2,21.2,8,19.9,8,18.6
		c0-1.2,0.2-2.2,0.7-3.2c1.3-2.7,4.2-4.5,7.3-4.5c4.4,0,8,3.4,8,7.6C24,20.2,22.7,21.5,21,21.5z M24.6,13.7
		c-0.2,0.2-0.5,0.1-0.7-0.1c-0.9-1.2-2-2.2-3.3-2.9c-2.8-1.4-6.4-1.4-9.2,0c-1.3,0.7-2.4,1.7-3.3,2.9c-0.1,0.1-0.2,0.2-0.4,0.2
		c-0.1,0-0.2,0-0.3-0.1c-0.2-0.2-0.3-0.5-0.1-0.7c1-1.4,2.2-2.4,3.7-3.2c3.1-1.6,7-1.6,10.1,0c1.5,0.8,2.7,1.8,3.7,3.2
		C24.8,13.2,24.8,13.5,24.6,13.7z"/>
</g>
</svg>
