<?xml version="1.0" encoding="utf-8"?>
<!-- Generator: Adobe Illustrator 24.3.0, SVG Export Plug-In . SVG Version: 6.00 Build 0)  -->
<svg version="1.1" id="Layer_1" xmlns="http://www.w3.org/2000/svg" xmlns:xlink="http://www.w3.org/1999/xlink" x="0px" y="0px"
	 viewBox="0 0 256 256" style="enable-background:new 0 0 256 256;" xml:space="preserve">
<style type="text/css">
	.st0{fill:none;}
	.st1{fill:url(#SVGID_1_);}
	.st2{fill:#141414;}
	.st3{fill:#323232;}
	.st4{fill:#282D32;}
</style>
<rect class="st0" width="256" height="256"/>
<g>
	<linearGradient id="SVGID_1_" gradientUnits="userSpaceOnUse" x1="128" y1="25.3351" x2="128" y2="220.3197">
		<stop  offset="0" style="stop-color:#EEEEEE"/>
		<stop  offset="1" style="stop-color:#E9F5FF"/>
	</linearGradient>
	<path class="st1" d="M173.5,244.1H82.5c-4.5,0-8.2-3.7-8.2-8.2V20.1c0-4.5,3.7-8.2,8.2-8.2h90.9c4.5,0,8.2,3.7,8.2,8.2v215.9
		C181.7,240.5,178,244.1,173.5,244.1z"/>
</g>
<path class="st0" d="M173.5,244.1H82.5c-4.5,0-8.2-3.7-8.2-8.2V20.1c0-4.5,3.7-8.2,8.2-8.2h90.9c4.5,0,8.2,3.7,8.2,8.2v215.9
	C181.7,240.5,178,244.1,173.5,244.1z"/>
<path class="st2" d="M173.5,11.9c4.5,0,8.2,3.7,8.2,8.2v215.9c0,4.5-3.7,8.2-8.2,8.2H82.5c-4.5,0-8.2-3.7-8.2-8.2V20.1
	c0-4.5,3.7-8.2,8.2-8.2H173.5 M173.5,8.9H82.5c-6.2,0-11.2,5-11.2,11.2v215.9c0,6.2,5,11.2,11.2,11.2h90.9c6.2,0,11.2-5,11.2-11.2
	V20.1C184.6,13.9,179.6,8.9,173.5,8.9L173.5,8.9z"/>
<path class="st3" d="M141,237.6h-26.8c-0.8,0-1.4-0.6-1.4-1.4l0,0c0-0.8,0.6-1.4,1.4-1.4H141c0.8,0,1.4,0.6,1.4,1.4l0,0
	C142.3,237,141.7,237.6,141,237.6z"/>
<g>
	<path class="st4" d="M128,126.2c-1.6,0-2.9,1.3-2.9,2.9c0,1.6,1.3,2.9,2.9,2.9c1.6,0,2.9-1.3,2.9-2.9
		C130.9,127.5,129.6,126.2,128,126.2z"/>
	<path class="st4" d="M128,111.4c-2.5,0-4.6,2-4.6,4.6v2.9h9.1v-2.9C132.6,113.4,130.5,111.4,128,111.4z"/>
	<path class="st4" d="M160,93.6c-9.3,7-32-5.7-32-5.7s-22.7,12.7-32,5.7c0,0-3.1,43.6,14.9,62c4.3,4.4,16.6,12.4,17,12.4
		c0.1,0,0.1,0,0.2,0c0.1,0,0.1,0,0.2,0c0.3,0,12.7-8.1,17-12.4C163.1,137.3,160,93.6,160,93.6z M139.8,136.5c0,1.6-1.3,2.9-2.9,2.9
		h-17.6c-1.6,0-2.9-1.3-2.9-2.9v-14.7c0-1.6,1.3-2.9,2.9-2.9h1.5v-2.9c0-4.1,3.3-7.3,7.3-7.3c4.1,0,7.3,3.3,7.3,7.3v2.9h1.5
		c1.6,0,2.9,1.3,2.9,2.9V136.5z"/>
</g>
</svg>
