<?xml version="1.0" encoding="UTF-8"?>
<svg width="26px" height="26px" viewBox="0 0 26 26" version="1.1" xmlns="http://www.w3.org/2000/svg" xmlns:xlink="http://www.w3.org/1999/xlink">
    <title>Cross</title>
    <defs>
        <polygon id="path-1" points="0 0 14 0 14 14 0 14"></polygon>
    </defs>
    <g id="ðŸ˜„PC-SYMBOLðŸ˜„" stroke="none" stroke-width="1" fill="none" fill-rule="evenodd">
        <g id="í¼-ì†ì„±_ë‹¨ì¶”,-ìƒìž-ìŠ¤íƒ€ì¼_êµ¬ì„±" transform="translate(-519.000000, -493.000000)">
            <g id="Cross" transform="translate(520.000000, 494.000000)">
                <g id="Group-3" transform="translate(5.000000, 5.000000)">
                    <mask id="mask-2" fill="white">
                        <use xlink:href="#path-1"></use>
                    </mask>
                    <g id="Clip-2"></g>
                    <path d="M9.39977602,7.00002882 L13.5030056,2.89688366 C14.1656648,2.23423817 14.1656648,1.15980254 13.5030056,0.497157044 C12.8405771,-0.165719015 11.7656582,-0.165719015 11.1032296,0.497157044 L7,4.60030221 L2.89677037,0.497157044 C2.2343418,-0.165719015 1.15942292,-0.165719015 0.496994351,0.497157044 C-0.165664784,1.15980254 -0.165664784,2.23423817 0.496994351,2.89688366 L4.60022398,7.00002882 L0.496994351,11.103174 C-0.165664784,11.7658195 -0.165664784,12.8402551 0.496994351,13.5029006 C0.828093348,13.8344539 1.26248785,14 1.69688236,14 C2.13127687,14 2.5654408,13.8344539 2.89677037,13.5029006 L7,9.39975544 L11.1032296,13.5029006 C11.4343286,13.8344539 11.8687231,14 12.3031176,14 C12.7375121,14 13.1716761,13.8344539 13.5030056,13.5029006 C14.1656648,12.8402551 14.1656648,11.7658195 13.5030056,11.103174 L9.39977602,7.00002882 Z" id="Fill-1" fill="#363636" mask="url(#mask-2)"></path>
                </g>
                <rect id="Square" stroke="#363636" stroke-width="2" x="0" y="0" width="24" height="24" rx="2"></rect>
            </g>
        </g>
    </g>
</svg>