<?xml version="1.0" encoding="UTF-8"?>
<svg width="26px" height="26px" viewBox="0 0 26 26" version="1.1" xmlns="http://www.w3.org/2000/svg" xmlns:xlink="http://www.w3.org/1999/xlink">
    <title>Star</title>
    <defs>
        <polygon id="path-1" points="0 0 14 0 14 14 0 14"></polygon>
    </defs>
    <g id="ðŸ˜„PC-SYMBOLðŸ˜„" stroke="none" stroke-width="1" fill="none" fill-rule="evenodd">
        <g id="í¼-ì†ì„±_ë‹¨ì¶”,-ìƒìž-ìŠ¤íƒ€ì¼_êµ¬ì„±" transform="translate(-143.000000, -629.000000)">
            <g id="Star" transform="translate(144.000000, 630.000000)">
                <g id="Group-3" transform="translate(5.000000, 5.000000)">
                    <mask id="mask-2" fill="white">
                        <use xlink:href="#path-1"></use>
                    </mask>
                    <g id="Clip-2"></g>
                    <path d="M7.81866945,0.604331976 L8.86052021,3.98200089 C8.97129544,4.34099067 9.30340434,4.58617028 9.67930306,4.58617028 L13.1415167,4.58617028 C13.9607331,4.58617028 14.3127858,5.62541967 13.6622253,6.12336624 L10.7859714,8.32499678 C10.5009041,8.54307874 10.3821079,8.91507539 10.4878972,9.25780657 L11.5681182,12.7609918 C11.814165,13.5580966 10.8913271,14.200853 10.2286268,13.6935848 L7.52081199,11.6211559 C7.21341615,11.3859483 6.78657384,11.3859483 6.479178,11.6211559 L3.7713632,13.6935848 C3.10866287,14.200853 2.1860418,13.5580966 2.43187175,12.7609918 L3.51230959,9.25780657 C3.61788206,8.91507539 3.49908593,8.54307874 3.21423535,8.32499678 L0.33776472,6.12336624 C-0.312795861,5.62541967 0.0392569159,4.58617028 0.858690103,4.58617028 L4.32068693,4.58617028 C4.69680243,4.58617028 5.02869455,4.34099067 5.13968655,3.98200089 L6.18132054,0.604331976 C6.42975187,-0.201443992 7.57023811,-0.201443992 7.81866945,0.604331976" id="Fill-1" fill="#363636" mask="url(#mask-2)"></path>
                </g>
                <circle id="Oval" stroke="#363636" stroke-width="2" cx="12" cy="12" r="12"></circle>
            </g>
        </g>
    </g>
</svg>