<?xml version="1.0" encoding="UTF-8"?>
<svg width="28px" height="28px" viewBox="0 0 28 28" version="1.1" xmlns="http://www.w3.org/2000/svg" xmlns:xlink="http://www.w3.org/1999/xlink">
    <title>E6CC5B9E-19D9-4206-A3A9-F07715C7D320</title>
    <g id="😄PC-SYMBOL😄" stroke="none" stroke-width="1" fill="none" fill-rule="evenodd">
        <g id="ico/Clear" fill="#C8C8C8">
            <path d="M14,4 C19.5228475,4 24,8.4771525 24,14 C24,19.5228475 19.5228475,24 14,24 C8.4771525,24 4,19.5228475 4,14 C4,8.4771525 8.4771525,4 14,4 Z M10.8440986,10.1447455 C10.6506047,9.95175151 10.3386144,9.95175151 10.1451205,10.1447455 C9.95162651,10.3382394 9.95162651,10.6502297 10.1451205,10.8437236 L10.1451205,10.8437236 L13.3015218,14.000625 L10.1451205,17.1525265 C9.95162651,17.3460204 9.95162651,17.6580107 10.1451205,17.8510047 C10.2396175,17.9505015 10.3676135,17.9995 10.4966095,17.9995 C10.6206056,17.9995 10.7496016,17.9505015 10.8440986,17.8510047 L10.8440986,17.8510047 L14,14.6996031 L17.1514015,17.8510047 C17.2503984,17.9505015 17.3743946,17.9995 17.5033905,17.9995 C17.6268867,17.9995 17.7558826,17.9505015 17.8548795,17.8510047 C18.0483735,17.6580107 18.0483735,17.3460204 17.8548795,17.1525265 L17.8548795,17.1525265 L14.6989782,14.000625 L17.8548795,10.8437236 C18.0483735,10.6502297 18.0483735,10.3382394 17.8548795,10.1447455 C17.6568857,9.95175151 17.3443955,9.95175151 17.1514015,10.1447455 L17.1514015,10.1447455 L14,13.296647 Z" id="Combined-Shape"></path>
        </g>
    </g>
</svg>