<svg xmlns="http://www.w3.org/2000/svg" xmlns:xlink="http://www.w3.org/1999/xlink" width="380" height="280" viewBox="0 0 380 280">
    <defs>
        <path id="a" d="M.527.59h1.626v27.675H.527z"/>
        <path id="c" d="M.527.59h1.626v27.675H.527z"/>
        <path id="e" d="M.267.59h16.956v11.365H.267z"/>
    </defs>
    <g fill="none" fill-rule="evenodd">
        <path fill="#F5F5F5" d="M153.562 181.524L82.96 228.746 13.428 124.788l70.601-47.221z"/>
        <path fill="#E1E1E1" d="M117.088 176.595l-.801 4.958-35.097-5.056.802-4.959z"/>
        <path fill="#E1E1E1" d="M99.413 158.905l5.036.726-5.584 34.555-5.036-.725zM67.086 114.985c.05.076-7.025 4.896-15.801 10.766-8.779 5.872-15.934 10.57-15.985 10.494-.05-.075 7.024-4.895 15.803-10.766 8.776-5.87 15.932-10.569 15.983-10.494M93.05 108.468c.05.075-11.716 8.033-26.276 17.772-14.566 9.742-26.41 17.576-26.46 17.5-.05-.075 11.712-8.03 26.277-17.773C81.152 116.228 93 108.393 93.05 108.468M98.254 116.25c.05.074-11.716 8.032-26.276 17.77-14.565 9.743-26.41 17.577-26.46 17.502-.05-.076 11.713-8.032 26.278-17.773 14.56-9.74 26.407-17.575 26.458-17.5M103.459 124.03c.05.075-11.716 8.033-26.276 17.772-14.566 9.742-26.41 17.576-26.46 17.501-.05-.076 11.712-8.032 26.278-17.773 14.56-9.74 26.407-17.575 26.458-17.5M108.663 131.811c.05.075-11.716 8.033-26.276 17.772-14.565 9.742-26.41 17.576-26.46 17.501-.05-.076 11.713-8.031 26.278-17.773 14.56-9.74 26.407-17.575 26.458-17.5"/>
        <path fill="#F5F5F5" d="M378.502 234.545l-59.293 39.658-58.395-87.306 59.293-39.66z"/>
        <path fill="#E1E1E1" d="M347.87 230.405l-.672 4.164-29.475-4.246.672-4.164z"/>
        <path fill="#E1E1E1" d="M333.027 215.549l4.23.61-4.69 29.02-4.23-.61zM305.877 178.664c.05.075-5.885 4.133-13.255 9.063-7.373 4.93-13.389 8.867-13.44 8.791-.05-.075 5.885-4.132 13.258-9.063 7.37-4.93 13.387-8.866 13.437-8.791M327.682 173.19c.05.075-9.824 6.768-22.052 14.948-12.233 8.181-22.187 14.75-22.237 14.675-.05-.075 9.823-6.766 22.055-14.949 12.228-8.178 22.184-14.749 22.234-14.674M332.054 179.725c.05.075-9.825 6.768-22.053 14.947-12.232 8.182-22.187 14.751-22.238 14.676-.049-.075 9.823-6.767 22.056-14.949 12.228-8.178 22.184-14.75 22.235-14.674M336.424 186.26c.05.075-9.824 6.768-22.053 14.947-12.231 8.182-22.186 14.75-22.236 14.675-.05-.075 9.822-6.766 22.055-14.948 12.228-8.179 22.184-14.75 22.234-14.674M340.795 192.794c.05.076-9.824 6.769-22.052 14.947-12.233 8.183-22.187 14.752-22.238 14.676-.05-.075 9.823-6.766 22.055-14.948 12.228-8.18 22.184-14.75 22.235-14.675"/>
        <path fill="#F5F5F5" d="M175.356 176.638l-64.695-34.6 50.947-95.261 64.695 34.6z"/>
        <path fill="#E1E1E1" d="M164.28 146.838l-4.104 1.406-10.419-28.802 4.105-1.405z"/>
        <path fill="#E1E1E1" d="M170.573 126.175l1.495 4.133-28.603 9.797-1.495-4.134zM190.898 83.681c-.05.095-6.613-3.316-14.655-7.616-8.044-4.303-14.523-7.866-14.472-7.961.051-.095 6.611 3.315 14.656 7.618 8.042 4.3 14.521 7.865 14.47 7.96M206.422 100.816c-.05.095-10.91-5.614-24.252-12.75-13.347-7.137-24.123-13-24.072-13.094.05-.095 10.908 5.614 24.255 12.75 13.342 7.137 24.12 13 24.07 13.094M202.609 107.946c-.05.095-10.91-5.614-24.253-12.75-13.347-7.138-24.122-13-24.071-13.094.05-.095 10.908 5.613 24.255 12.751 13.342 7.136 24.12 13 24.069 13.093M198.795 115.077c-.05.094-10.91-5.615-24.252-12.75-13.347-7.138-24.122-13-24.071-13.095.05-.095 10.908 5.614 24.255 12.751 13.341 7.136 24.12 13 24.068 13.094M194.982 122.207c-.05.094-10.91-5.614-24.253-12.75-13.346-7.138-24.122-13-24.07-13.094.05-.095 10.907 5.613 24.254 12.75 13.342 7.137 24.12 13 24.069 13.094"/>
        <g transform="translate(193.169 .038)">
            <mask id="b" fill="#fff">
                <use xlink:href="#a"/>
            </mask>
            <path fill="#000" d="M.527.59v27.675h1.626V.59" mask="url(#b)"/>
        </g>
        <path fill="#FF6100" d="M156.61 61.781h75.796s-6.998-33.495-38.472-33.495c-27.995 0-37.323 33.495-37.323 33.495"/>
        <g transform="translate(193.169 .038)">
            <mask id="d" fill="#fff">
                <use xlink:href="#c"/>
            </mask>
            <path fill="#FF6100" d="M.527.59v27.675h1.626V.59" mask="url(#d)"/>
        </g>
        <path fill="#1A2E35" d="M363.266 277.375c0 .09-81.327.164-181.625.164-100.332 0-181.64-.073-181.64-.164 0-.091 81.308-.164 181.64-.164 100.298 0 181.625.073 181.625.164"/>
        <path fill="#FF6100" d="M20.105 237.969c2.127.075 4.124 1.23 5.527 2.83 1.404 1.601 2.264 3.614 2.814 5.671 1.065 3.979.41 8.674-.725 12.633-4.307-1.54-6.963-6.133-8.164-8.548-1.899-3.817-3.012-11.868.548-12.586M33.92 263.926c-1.36-1.952-1.391-4.665-.317-6.786 1.074-2.122 3.138-3.652 5.412-4.35 1.051-.323 2.27-.459 3.185.152.855.57 1.223 1.69 1.113 2.713-.11 1.022-.628 1.957-1.239 2.784-2.094 2.836-4.641 5.195-8.154 5.487"/>
        <path fill="#181818" d="M34.394 277.222c-.02.003-.086-.292-.193-.827l-.443-2.268c-.34-1.906-.88-4.618-.47-7.615.391-2.985 1.579-5.536 2.824-7.059.614-.771 1.2-1.317 1.634-1.652.21-.176.395-.285.513-.368.12-.079.186-.117.192-.108.047.053-1.007.702-2.171 2.257-1.18 1.528-2.31 4.035-2.697 6.97-.402 2.935.095 5.623.383 7.539.154.963.279 1.743.35 2.284.072.542.097.843.078.847"/>
        <path fill="#181818" d="M21.494 244.025c.01-.004.069.109.174.327l.443.958c.381.835.917 2.05 1.565 3.557a361.124 361.124 0 0 1 4.843 11.87 362.443 362.443 0 0 1 4.426 12.033c.537 1.55.961 2.808 1.243 3.68l.318 1.008c.07.232.102.354.092.358-.01.003-.06-.114-.148-.338-.097-.255-.22-.584-.372-.989l-1.332-3.649a645.462 645.462 0 0 0-4.505-11.996 643.202 643.202 0 0 0-4.76-11.895l-1.476-3.593-.393-.98c-.086-.226-.127-.347-.118-.351"/>
        <path fill="#FF6100" d="M29.281 268.425c-2.54-4.323-7.283-7.27-12.284-7.633-1.273-.091-2.805.123-3.372 1.266-.57 1.145.191 2.5 1.059 3.441 3.61 3.909 9.715 5.272 14.644 3.269"/>
        <path fill="#181818" d="M18.936 264.202c.002-.02.285-.01.798.03.256.016.57.04.93.107.358.066.776.105 1.22.23.448.11.94.219 1.452.403.52.153 1.055.376 1.618.614a17.634 17.634 0 0 1 3.408 2.02 17.228 17.228 0 0 1 2.818 2.79c.367.487.718.949.992 1.418.303.451.527.905.738 1.314.226.402.36.8.507 1.134.15.334.242.635.317.882.152.49.227.763.207.77-.063.022-.37-1.078-1.218-2.689-.22-.398-.452-.84-.76-1.277-.278-.458-.631-.906-.998-1.381a17.953 17.953 0 0 0-2.785-2.724 18.253 18.253 0 0 0-3.34-2.005c-.55-.242-1.073-.47-1.583-.632-.5-.191-.985-.311-1.423-.432-1.766-.447-2.905-.507-2.898-.572"/>
        <path fill="#1A2E35" d="M304.557 66.995c-1.85.426-2.751 2.555-2.926 4.445-.176 1.89.065 3.887-.729 5.611-.894 1.942-3.028 3.373-3.099 5.509-.043 1.302.73 2.527.693 3.828-.061 2.14-2.242 3.756-2.356 5.892-.083 1.539.942 3.016.695 4.536-.191 1.183-1.113 2.116-1.502 3.25-.777 2.26.776 4.749 2.8 6.022 2.254 1.418 5.14 1.784 7.677.974s4.677-2.783 5.691-5.245c1.12-2.719.875-5.778.632-8.707a643.786 643.786 0 0 1-1.69-27.42"/>
        <path fill="#375A64" d="M299.186 99.204c-.04-.037.505-.198.845-1.006.164-.395.248-.925.215-1.536-.022-.614-.231-1.282-.459-2.037-.21-.748-.485-1.615-.328-2.58.159-.98.86-1.784 1.499-2.575.322-.4.646-.817.85-1.29a2.09 2.09 0 0 0 .098-1.51c-.324-1.028-1.332-1.785-1.794-2.971-.23-.594-.232-1.247-.1-1.836.123-.594.364-1.133.606-1.647.493-1.024 1.035-1.964 1.25-2.96.442-1.996.236-3.901.536-5.466.272-1.568.935-2.747 1.591-3.353.32-.314.63-.48.831-.593.216-.092.329-.135.333-.124.021.035-.466.184-1.074.807-.607.614-1.215 1.766-1.453 3.301-.125.763-.143 1.622-.175 2.543-.032.92-.06 1.92-.295 2.954-.219 1.047-.776 2.023-1.254 3.029-.473.988-.908 2.147-.49 3.23.4 1.072 1.414 1.833 1.795 2.99a2.404 2.404 0 0 1-.118 1.73c-.23.525-.574.953-.902 1.357-.658.795-1.316 1.551-1.467 2.432-.157.875.086 1.721.284 2.469.211.748.414 1.452.42 2.092.016.635-.09 1.187-.282 1.595-.19.411-.45.665-.645.794-.194.133-.317.16-.317.16"/>
        <path fill="#C88976" d="M294.231 114.118l-5.68 16.373-23.685 1.27-3.95 8.79 24.729 2.5c4.93 2.039 10.564-.459 12.364-5.482l6.6-18.42-10.378-5.031zM343.224 268.483s-17.358-55.13-17.726-56.92c-.333-1.617 6.3-41.291 7.134-51.559l-23.453.874-.002.172-9.97.553 8.93 112.75h10.793l-1.071-37.407c6.656 17.868 16.193 36.076 16.193 36.076l9.172-4.539z"/>
        <path fill="#B66955" d="M318.3 250.353c.01-.342-.131-12.534-.131-12.534-.135.73-4.138-10.584-4.041-11.273.05-.355 4.172 23.807 4.172 23.807"/>
        <path fill="#B66955" d="M313.672 221.19c-.026 0-.049.243-.07.684-.023.44-.028 1.08.014 1.869.016.395.057.826.108 1.289.059.461.122.956.229 1.468.196 1.03.498 2.143.883 3.285.783 2.28 1.648 4.275 2.262 5.723.29.66.54 1.228.751 1.704.184.4.297.616.32.608.024-.01-.046-.244-.19-.66a65.165 65.165 0 0 0-.647-1.747c-.554-1.472-1.38-3.483-2.157-5.742a28.38 28.38 0 0 1-.898-3.236c-.115-.503-.188-.988-.258-1.442a21.85 21.85 0 0 1-.15-1.27 36.832 36.832 0 0 1-.128-1.85c-.02-.439-.045-.683-.07-.683"/>
        <path fill="#375A64" d="M307.934 274.91l-.005-1.014 11.055-.482.03 4.181-.681.046c-3.035.178-15.442.69-17.473.08-2.265-.679 7.074-2.811 7.074-2.811"/>
        <path fill="#1A2E35" d="M319.17 277.342a.972.972 0 0 1-.19.021l-.543.035-1.999.093c-1.688.067-4.021.128-6.6.14-2.579.012-4.913-.03-6.601-.082l-2-.076c-.201-.01-.38-.02-.543-.03a.957.957 0 0 1-.19-.02c0-.004.066-.006.19-.007l.545.006 2 .033c1.688.028 4.021.054 6.599.043a328.28 328.28 0 0 0 6.597-.1l2-.052.544-.01c.125 0 .19.002.19.006"/>
        <path fill="#1A2E35" d="M304.353 277.698c-.041.006-.074-.472-.378-.953-.294-.486-.707-.729-.684-.763.008-.032.48.173.798.693.323.517.296 1.032.264 1.023M307.591 276.04c-.03.02-.186-.169-.348-.42-.161-.253-.267-.474-.235-.493.03-.02.186.168.347.42.162.253.268.473.236.493M308.48 275.566c-.024.027-.198-.088-.388-.257-.19-.17-.324-.33-.3-.358.024-.027.2.088.388.258.19.17.325.33.3.357M309.04 274.526c0 .037-.256.07-.574.075-.317.005-.575-.021-.575-.058 0-.037.256-.07.574-.076.317-.004.574.022.575.059M309.23 273.793c.013.033-.267.16-.64.189-.372.03-.668-.051-.66-.086.005-.038.296-.018.65-.047.354-.027.638-.093.65-.056"/>
        <path fill="#1A2E35" d="M307.215 275.082c.001.014-.27.049-.707-.002a4.128 4.128 0 0 1-.752-.163c-.139-.049-.283-.085-.432-.176a.384.384 0 0 1-.176-.22c-.03-.105.027-.224.106-.282.675-.352 1.352.025 1.605.374.138.177.202.351.232.47.029.121.027.19.019.191-.025.01-.049-.278-.324-.602a1.275 1.275 0 0 0-.606-.39c-.25-.073-.604-.092-.842.06-.112.084-.068.216.058.29.116.074.266.12.397.168.268.091.518.15.729.187.423.074.693.074.693.095"/>
        <path fill="#1A2E35" d="M307.032 275.118c-.01.008-.115-.172-.083-.49.017-.157.073-.342.19-.518.125-.157.285-.374.588-.362.164.02.245.206.219.326a.773.773 0 0 1-.118.316 2.13 2.13 0 0 1-.333.428c-.221.218-.396.301-.404.288-.012-.017.14-.128.335-.352.096-.112.2-.254.295-.425.096-.15.161-.418-.017-.45-.176-.016-.356.16-.463.302-.111.153-.172.319-.199.46-.053.288.014.47-.01.477M318.933 274.333c-.002.025-.314-.028-.811.032a3.553 3.553 0 0 0-1.771.737 3.546 3.546 0 0 0-1.102 1.57c-.166.472-.182.789-.206.786-.008 0-.012-.08-.001-.223.01-.141.044-.347.117-.593a3.401 3.401 0 0 1 1.109-1.643 3.398 3.398 0 0 1 1.844-.728c.256-.019.464-.007.605.013.141.02.218.041.216.05M313.639 276.466c.005.034-.713.149-1.606.153-.894.006-1.612-.101-1.608-.136.003-.038.722.009 1.607.002.886-.004 1.603-.058 1.607-.02"/>
        <path fill="#1A2E35" d="M315.794 276.442c.027.027-.059.153-.13.318-.076.164-.114.312-.15.31-.037 0-.059-.175.028-.365.084-.19.229-.29.252-.263M316.603 275.429c.026.025-.045.14-.158.256-.114.116-.226.188-.253.163-.026-.026.044-.14.158-.257.113-.115.227-.188.253-.162M317.763 274.962c-.007.038-.153.037-.314.095-.163.053-.278.144-.307.118-.03-.02.063-.176.264-.245.2-.07.37-.002.357.032M318.59 274.742c.014.034-.05.09-.14.126-.091.036-.176.037-.19.003-.013-.034.05-.091.141-.127.091-.036.176-.037.19-.002"/>
        <g transform="translate(327.82 267.454)">
            <mask id="f" fill="#fff">
                <use xlink:href="#e"/>
            </mask>
            <path fill="#375A64" d="M6.015 6.48l-.42-.923L15.483.589l1.74 3.803-.603.32C13.925 6.118 2.816 11.667.713 11.943c-2.343.308 5.302-5.463 5.302-5.463" mask="url(#f)"/>
        </g>
        <path fill="#1A2E35" d="M345.08 271.551a.908.908 0 0 1-.163.097l-.48.254-1.786.904a194.673 194.673 0 0 1-12.02 5.46l-1.854.75-.509.195a1.046 1.046 0 0 1-.18.06 1.02 1.02 0 0 1 .17-.084l.498-.219 1.839-.789a320.745 320.745 0 0 0 6.037-2.663 322.638 322.638 0 0 0 5.978-2.795l1.802-.866c.184-.085.345-.16.493-.231a.976.976 0 0 1 .176-.073"/>
        <path fill="#1A2E35" d="M331.71 277.945c-.035.022-.26-.4-.734-.714-.468-.323-.944-.375-.937-.416-.006-.034.509-.04 1.012.305.507.339.693.82.66.825M333.986 275.106c-.02.03-.24-.077-.49-.242-.25-.164-.438-.322-.417-.352.02-.03.24.077.49.24.25.165.437.323.417.354M334.603 274.309c-.012.035-.217.001-.46-.076-.243-.076-.431-.167-.42-.202.011-.035.217-.001.46.075.243.077.431.168.42.203M334.687 273.131c.015.034-.205.17-.492.303-.288.135-.534.217-.55.183-.015-.033.206-.169.493-.304.288-.134.534-.215.549-.182M334.56 272.384c.026.026-.177.256-.506.435-.327.18-.631.227-.638.192-.01-.037.263-.138.574-.31.312-.169.545-.345.57-.317"/>
        <path fill="#1A2E35" d="M333.25 274.386c.007.013-.226.155-.645.288a4.18 4.18 0 0 1-.755.16c-.145.011-.291.038-.465.016a.38.38 0 0 1-.25-.128.276.276 0 0 1-.019-.302c.47-.598 1.244-.53 1.616-.316.2.105.329.237.405.334.076.098.102.162.096.167-.02.018-.159-.234-.543-.417a1.264 1.264 0 0 0-.711-.107c-.258.035-.59.163-.744.4-.068.121.026.224.17.24.138.02.294 0 .433-.01.282-.026.533-.075.741-.128.417-.106.662-.217.671-.197"/>
        <path fill="#1A2E35" d="M333.098 274.493c-.006.012-.176-.11-.277-.413a1.15 1.15 0 0 1-.038-.55c.05-.194.107-.457.387-.57.158-.05.527.268.553.387.04.118-.187.058-.198.157a2.166 2.166 0 0 1-.128.527c-.112.289-.237.437-.25.427-.018-.01.076-.173.161-.457.042-.143.08-.315.094-.51.027-.175-.023-.447-.198-.403-.168.058-.26.292-.3.466-.038.185-.026.36.008.5.069.285.205.425.186.44M343.634 268.903c.008.024-.3.102-.728.361-.426.254-.966.72-1.313 1.398a3.54 3.54 0 0 0-.362 1.883c.041.5.158.794.134.801-.009.004-.045-.067-.093-.201a2.973 2.973 0 0 1-.136-.59 3.405 3.405 0 0 1 .338-1.954 3.406 3.406 0 0 1 1.385-1.419c.225-.121.42-.195.557-.235.137-.04.216-.052.218-.044M339.677 273.017c.018.03-.589.428-1.402.798-.813.37-1.512.568-1.523.534-.012-.036.662-.288 1.468-.656.806-.366 1.438-.71 1.457-.676"/>
        <path fill="#1A2E35" d="M341.633 272.113c.036.013.01.163.012.343-.002.181.024.33-.012.344-.032.014-.122-.135-.122-.344 0-.208.09-.357.122-.343M341.956 270.857c.035.013.017.146-.039.298-.055.152-.13.266-.164.252-.034-.013-.017-.146.039-.298s.13-.265.164-.252M342.824 269.956c.009.037-.125.096-.249.215-.126.115-.194.244-.23.234-.035-.007-.016-.187.139-.331.154-.146.336-.154.34-.118M343.488 269.416c.026.026-.008.103-.077.173-.068.07-.145.106-.172.08-.026-.026.009-.103.077-.173.069-.07.146-.106.172-.08"/>
        <path fill="#00758B" d="M331.111 141.343l-1.84-22.46 9.456.167s.438-3.31-.955-10.575c-.855-4.455-3.822-7.187-7.149-8.81v-.06l-.287-.075c-4.233-1.982-8.662-2.261-8.662-2.261l-11.607.134s-8.867-1.106-13.775 5.215c-1.89 2.435-7.74 19.1-7.74 19.1l13.931 6.71-1.325-9.242s.263 6.7 1.118 8.824c.477 1.182 1.856 4.855 1.856 4.855l-.18 11.083 27.16-2.605z"/>
        <path fill="#00758B" d="M324.707 115.621l-1.722 7.34h16.253l-1.069-12.306z"/>
        <path fill="#00758B" d="M339.238 122.962c.002-.048-.82-.135-2.151-.214a85.447 85.447 0 0 0-5.212-.134c-2.038.01-3.881.098-5.212.204-1.332.105-2.15.217-2.146.264.003.052.828.029 2.16-.01 1.33-.042 3.168-.09 5.2-.1 2.03-.009 3.869.017 5.2.03 1.333.014 2.159.01 2.161-.04"/>
        <path fill="#00758B" d="M324.007 110.595c-.05.002-.066.716-.054 1.868.012 1.151.054 2.741.122 4.496.068 1.756.15 3.345.227 4.494.077 1.15.15 1.86.199 1.858.049-.002.067-.716.054-1.867a168.28 168.28 0 0 0-.121-4.498c-.069-1.755-.15-3.344-.228-4.493-.077-1.15-.15-1.86-.2-1.858M309.217 116.953s3.613 26.784 13.768 26.075c0 0 4.572-.054 6.042-3.093v-1.196l-19.81-21.786z"/>
        <path fill="#00758B" d="M324.007 112.174l-1.944 13.13 1.259 2.305 2.071-4.506-.876-.02zM304.132 132.865c-.021.008-.118-.216-.275-.627a37.667 37.667 0 0 1-.61-1.758 53.32 53.32 0 0 1-1.554-5.943c-.467-2.358-.696-4.527-.77-6.099-.038-.786-.05-1.422-.038-1.861.008-.44.024-.683.047-.684.051 0 .087.97.222 2.53.133 1.559.396 3.706.86 6.05a77.24 77.24 0 0 0 1.455 5.94l.51 1.784c.118.423.174.66.153.668M308.238 140.562c-.087.026-.338-.552-.561-1.291-.224-.74-.335-1.36-.248-1.386.087-.026.338.552.56 1.291.225.739.336 1.36.249 1.386M309.642 140.46c-.084.02-.357-.847-.371-1.958-.02-1.113.229-1.988.313-1.969.094.017-.005.89.015 1.964.011 1.072.135 1.943.043 1.962"/>
        <path fill="#00758B" d="M302.766 128.734c-.04.081-3.283-1.457-7.241-3.435-3.96-1.978-7.136-3.648-7.095-3.729.04-.08 3.283 1.458 7.242 3.436 3.958 1.978 7.134 3.647 7.094 3.728"/>
        <path fill="#C88976" d="M308.48 99.575c.072-3.184.09-6.536.09-6.536s-4.083-.787-4.795-6.159c-.678-5.122 1.22-17.144 1.22-17.144 5.963-2.254 12.161-.211 16.247 4.621l-1.014 25.845c-.118 3-2.791 5.288-6.003 5.138-3.243-.152-5.814-2.733-5.746-5.765"/>
        <path fill="#1A2E35" d="M304.685 79.344c-.022.361.266.679.643.709.378.03.702-.239.724-.6.022-.362-.267-.68-.643-.71-.378-.03-.702.238-.724.6M304.43 78.442c.082.092.612-.28 1.35-.258.738.01 1.27.403 1.353.316.04-.04-.043-.203-.274-.382a1.89 1.89 0 0 0-1.08-.363c-.46-.01-.85.15-1.078.317-.231.169-.312.329-.272.37M312.176 79.81c-.022.362.266.68.644.71.377.03.701-.24.723-.601.022-.362-.266-.68-.643-.71-.377-.03-.702.239-.724.6M312.126 78.91c.083.091.614-.28 1.351-.26.738.01 1.27.405 1.353.317.04-.04-.042-.203-.274-.382a1.884 1.884 0 0 0-1.08-.363c-.46-.009-.85.15-1.077.318-.232.169-.313.328-.273.37M309.306 84.315c.004-.041-.453-.133-1.194-.248-.188-.023-.366-.066-.394-.195-.041-.137.043-.338.14-.556l.595-1.42c.827-2.024 1.431-3.69 1.349-3.724-.082-.032-.819 1.582-1.646 3.606-.2.5-.39.975-.57 1.43-.078.213-.207.452-.118.738a.472.472 0 0 0 .303.283c.12.04.226.045.319.053.748.06 1.211.075 1.216.033"/>
        <path fill="#B66955" d="M308.57 93.039s3.593.325 7.214-1.726c0 0-1.833 3.63-7.175 2.991l-.04-1.265z"/>
        <path fill="#1A2E35" d="M314.49 76.779c-.152.23-.713.128-1.343.015-.626-.126-1.186-.238-1.242-.508-.063-.26.587-.619 1.427-.458.84.16 1.311.733 1.157.95M307.148 75.695c-.057.27-.658.367-1.351.403-.695.028-1.302-.015-1.384-.277-.083-.254.504-.668 1.338-.705.834-.04 1.457.318 1.397.579"/>
        <path fill="#B66955" d="M309.317 86.083c-.156-.044-.33.045-.408.186-.094.168-.05.4.096.524a.434.434 0 0 0 .533.007c.15-.12.199-.35.11-.52a.433.433 0 0 0-.488-.21"/>
        <path fill="#1A2E35" d="M309.49 86.156c.034-.03-.117-.212-.44-.141a.56.56 0 0 0-.404.396.633.633 0 0 0 .223.668c.235.166.52.133.707.005a.53.53 0 0 0 .227-.525c-.065-.332-.31-.384-.317-.339-.028.042.085.157.064.353-.011.096-.057.185-.15.23-.091.051-.236.051-.319-.012-.087-.062-.131-.2-.113-.306a.317.317 0 0 1 .169-.232c.175-.099.33-.053.353-.097M318.77 80.67c-.637 1.475-2.19 2.61-1.975 4.203.14 1.028.799 1.986.67 3.016-.16 1.291-1.503 2.188-1.693 3.476-.234 1.581 1.304 2.81 1.918 4.284.894 2.148-.25 4.563-.277 6.889-.041 3.563 2.99 6.892 6.54 7.184 1.437.119 3.055-.314 3.8-1.549.614-1.018.492-2.311.86-3.442.549-1.685 2.153-2.917 2.493-4.655.616-3.169-3.214-5.791-2.963-9.011.108-1.375.957-2.575 1.318-3.906.473-1.744.04-3.709-1.123-5.092-.945-1.124-2.317-1.863-3.122-3.092-.913-1.392-.944-3.16-1.29-4.789-.838-3.97-3.82-7.42-7.628-8.824-3.807-1.405-8.315-.718-11.532 1.758 0 0-.915 4.147 3.342 4.84 4.256.694 6.23-.107 6.71 1.6 0 0-.485 1.993 1.275 3.897 1.76 1.903 3.414 1.505 2.677 3.213"/>
        <path fill="#375A64" d="M325.563 109.432c-.002.012-.135-.002-.388-.04a5.766 5.766 0 0 1-1.083-.292c-.91-.333-2.197-1.056-3.294-2.438a8.62 8.62 0 0 1-1.4-2.492 10 10 0 0 1-.573-3.231c-.027-1.16.138-2.376.454-3.593.158-.61.363-1.217.603-1.82.235-.606.524-1.19.69-1.808.18-.616.155-1.245-.006-1.846-.164-.6-.444-1.164-.716-1.723-.274-.556-.553-1.113-.733-1.704-.183-.587-.252-1.22-.132-1.808.25-1.186.97-2.064 1.396-2.963.449-.892.59-1.835.569-2.68a6.33 6.33 0 0 0-1.403-3.713c-.622-.731-1.093-1.01-1.07-1.04 0 0 .5.236 1.167.957a6.31 6.31 0 0 1 1.538 3.785c.037.877-.097 1.87-.557 2.809-.434.933-1.13 1.817-1.343 2.901-.222 1.094.296 2.219.856 3.315.274.559.565 1.137.743 1.779.176.638.202 1.359.007 2.016-.178.66-.474 1.251-.704 1.843a15.53 15.53 0 0 0-.594 1.782c-.314 1.19-.481 2.377-.463 3.506.008 2.268.786 4.251 1.853 5.584 1.045 1.364 2.28 2.1 3.158 2.463.89.36 1.433.414 1.425.451"/>
        <path fill="#375A64" d="M324.936 77.682c.002.02-.33.08-.938.14-.605.05-1.499.12-2.59-.069-1.067-.194-2.417-.718-3.271-1.984-.42-.635-.585-1.403-.859-2.112a3.486 3.486 0 0 0-1.433-1.77c-1.377-.872-2.996-.979-4.413-1.151-1.424-.16-2.761-.462-3.667-1.142-.913-.65-1.381-1.494-1.502-2.101a2.305 2.305 0 0 1-.049-.71c.023-.162.04-.244.052-.242.04 0-.043.346.12.92.153.57.626 1.347 1.512 1.943.872.618 2.151.888 3.57 1.032 1.403.158 3.08.246 4.555 1.176a3.796 3.796 0 0 1 1.555 1.93c.28.747.437 1.484.813 2.064.766 1.17 2.036 1.706 3.06 1.92 1.051.212 1.936.18 2.54.169.606-.021.942-.037.945-.013M323.375 72.558c.003.015-.254.096-.738.108a4.42 4.42 0 0 1-1.986-.447 4.426 4.426 0 0 1-1.17-.813c-.377-.356-.686-.817-.975-1.302-.568-.957-1.114-2.138-2.29-2.625-1.153-.495-2.423-.386-3.525-.31-1.115.109-2.158.142-3.01-.026-.857-.149-1.5-.504-1.856-.833a2.127 2.127 0 0 1-.37-.415c-.071-.106-.103-.164-.094-.17.027-.02.176.203.545.487.366.284.985.588 1.814.702.828.133 1.825.08 2.944-.046 1.109-.089 2.416-.227 3.684.31.627.267 1.14.738 1.503 1.249.37.51.635 1.042.915 1.524.278.482.563.922.907 1.261.34.344.714.61 1.082.8.738.383 1.42.502 1.885.527.468.027.73-.01.735.019M327.44 108.075c-.032-.015.17-.42.401-1.194.23-.772.46-1.933.42-3.373-.05-1.43-.394-3.16-1.342-4.805-.46-.823-1.16-1.558-1.73-2.463-.282-.451-.526-.958-.633-1.519a3.434 3.434 0 0 1 .14-1.698c.352-1.086.984-2.002 1.12-3 .169-1.001-.337-1.915-.817-2.727-.242-.415-.484-.824-.673-1.252a4.49 4.49 0 0 1-.356-1.314c-.096-.874.006-1.677.072-2.398.18-1.437.047-2.618-.3-3.344-.335-.735-.774-.955-.742-.985.003-.005.029.007.076.036.047.03.12.07.201.144.167.136.392.379.58.75.398.734.57 1.969.415 3.418-.051.725-.135 1.518-.033 2.347.084.836.515 1.626 1.02 2.444.245.414.503.846.685 1.337.187.486.271 1.043.19 1.588-.153 1.1-.802 2.032-1.127 3.055a3.11 3.11 0 0 0-.13 1.54c.095.505.316.975.585 1.41.54.869 1.243 1.617 1.718 2.48.966 1.709 1.292 3.489 1.312 4.95.01 1.473-.258 2.647-.53 3.418-.14.383-.26.678-.362.868-.094.193-.149.292-.16.287"/>
        <path fill="#1A2E35" d="M301.81 225.313s-4.237-40.17-4.48-55.014c-.244-14.842 6.673-29.489 6.673-29.489l27.108-1.145s5.359 15.06 5.454 21.386c.187 12.294-3.266 24.434-2.868 34.187l.906 30.075"/>
        <path fill="#FAFAFA" d="M335.51 175.93c.006.01-.148.125-.442.335l-.247.174c-.085.072-.167.162-.263.253-.19.183-.412.39-.604.676-.875 1.072-1.514 2.988-2.12 5.377-.335 1.187-.673 2.519-1.372 3.822-.188.317-.356.655-.602.951-.118.151-.225.313-.354.458l-.418.417c-.566.557-1.283.976-2.039 1.308-1.517.666-3.23.98-4.795 1.766-1.575.767-2.756 2.254-3.48 3.966-.763 1.704-1.226 3.495-1.863 5.166-.625 1.658-1.476 3.272-2.83 4.291-1.341 1.056-3 1.299-4.435 1.39-1.46.086-2.811.044-4.024.228-1.207.166-2.278.55-3.034 1.145a4.225 4.225 0 0 0-1.41 1.985 2.979 2.979 0 0 0-.105 1.543c.07.354.17.522.147.531 0 0-.119-.159-.211-.516a2.926 2.926 0 0 1 .047-1.595 4.31 4.31 0 0 1 1.417-2.092c.783-.637 1.883-1.044 3.114-1.23 1.235-.202 2.602-.173 4.04-.269 1.423-.103 3.01-.352 4.271-1.36 1.279-.971 2.1-2.523 2.714-4.165.625-1.652 1.085-3.444 1.864-5.187.73-1.741 1.983-3.323 3.633-4.117 1.627-.808 3.34-1.114 4.82-1.757.737-.319 1.422-.715 1.963-1.241l.4-.395c.125-.138.228-.293.343-.437.238-.28.404-.607.587-.913.69-1.259 1.041-2.575 1.388-3.755.635-2.377 1.318-4.323 2.244-5.393.203-.285.438-.49.639-.67.1-.089.188-.177.277-.245l.26-.165c.31-.194.475-.29.48-.28M335.677 157.34c.012 0 .024.184.036.538.005.354-.038.879-.188 1.537-.315 1.31-1.272 3.108-3.063 4.735a18.214 18.214 0 0 1-3.174 2.319c-1.215.721-2.555 1.407-3.928 2.183-1.368.777-2.778 1.657-4.018 2.825-1.256 1.154-2.196 2.67-3.043 4.277-.856 1.604-1.614 3.236-2.64 4.649a11.09 11.09 0 0 1-1.72 1.903c-.64.548-1.338.993-2.046 1.363-1.422.738-2.87 1.194-4.212 1.615-1.346.416-2.6.784-3.697 1.244-1.099.453-2.05.966-2.82 1.51a8.798 8.798 0 0 0-1.77 1.631c-.838 1.039-1.014 1.791-1.062 1.766-.01-.004.05-.18.175-.511.146-.32.37-.8.787-1.333.407-.538.99-1.134 1.763-1.702.773-.568 1.73-1.103 2.837-1.575 1.106-.48 2.367-.863 3.705-1.29 1.336-.43 2.766-.894 4.154-1.622a10.66 10.66 0 0 0 1.982-1.333 10.84 10.84 0 0 0 1.664-1.854c.999-1.381 1.75-3 2.61-4.615.85-1.613 1.819-3.173 3.112-4.357 1.275-1.194 2.71-2.08 4.09-2.854 1.386-.774 2.728-1.449 3.939-2.154a18.3 18.3 0 0 0 3.156-2.256c1.783-1.581 2.748-3.32 3.096-4.597.338-1.287.225-2.045.275-2.042M297.466 172.427c-.005.002-.024-.039-.055-.122-.027-.083-.085-.205-.122-.374a3 3 0 0 1 .063-1.509c.35-1.281 1.742-2.875 3.985-3.673 1.116-.384 2.382-.616 3.7-.961 1.304-.351 2.725-.843 3.787-1.933a8.015 8.015 0 0 0 1.342-1.883c.361-.71.66-1.473.94-2.26.564-1.57 1.037-3.275 1.995-4.825.95-1.562 2.5-2.648 4.104-3.192 1.6-.587 3.214-.848 4.71-1.193 1.501-.326 2.904-.75 4.096-1.395a8.587 8.587 0 0 0 2.771-2.496 9.36 9.36 0 0 0 1.76-5.097c.03-1.298-.176-2.005-.133-2.01 0 0 .251.694.261 2.013a9.292 9.292 0 0 1-1.7 5.228 8.747 8.747 0 0 1-2.827 2.6c-1.221.675-2.654 1.115-4.16 1.451-1.505.356-3.109.623-4.666 1.2-1.566.54-3.022 1.568-3.939 3.064-.924 1.494-1.399 3.18-1.97 4.76-.285.793-.59 1.567-.964 2.296a8.273 8.273 0 0 1-1.408 1.953c-1.127 1.143-2.611 1.638-3.93 1.982-1.337.338-2.596.554-3.696.917-2.182.745-3.566 2.273-3.936 3.492a3.078 3.078 0 0 0-.12 1.458c.07.33.127.504.112.51M333.346 206.393c.011 0 .026.134.044.395.015.26-.005.65-.116 1.137-.222.969-.97 2.294-2.379 3.399a10.59 10.59 0 0 1-2.494 1.48c-.961.412-2.023.738-3.133 1.084-1.109.346-2.272.708-3.403 1.243a9.821 9.821 0 0 0-3.097 2.259c-.918.961-1.71 2.012-2.589 2.938a11.818 11.818 0 0 1-2.9 2.27c-2.07 1.143-4.217 1.536-5.984 1.557a11.861 11.861 0 0 1-4.118-.685 7.541 7.541 0 0 1-1.045-.448c-.233-.116-.352-.182-.347-.192.005-.01.134.036.375.132.236.102.59.244 1.058.387.929.29 2.326.623 4.074.573 1.733-.049 3.83-.458 5.84-1.588a11.672 11.672 0 0 0 2.814-2.225c.86-.914 1.65-1.964 2.585-2.946a10.089 10.089 0 0 1 3.196-2.322c1.162-.544 2.34-.903 3.453-1.241 1.111-.338 2.17-.652 3.115-1.046.945-.389 1.772-.879 2.457-1.412 1.392-1.056 2.144-2.318 2.398-3.25.249-.943.15-1.5.196-1.499"/>
        <path fill="#C88976" d="M330.256 122.988l-5.241.124c-.344 1.766-1.186 2.974-1.186 2.974-4.383-7.609-7.781-17.802-8.625-21.899.123-.409.269-.862.45-1.368.21-.584.03-1.69-.069-2.304-.147-.912-.402-2.139-.479-2.707-.233-1.731-.512-2.003-1.116-1.808-.82.267.337 4.862-.336 4.962-.362.054-.805-1.521-.932-2.813-.129-1.291-.713-5.265-1.14-5.53-.626-.388-1.171.227-1.013 1.513.16 1.302.361 5.184-.321 5.237-.673.051-1.238-6.537-1.238-6.537s.106-1.433-.684-1.398c-1.425.061-.311 7.007-.19 7.665.086.457-.654.541-.72.044-.066-.51-.41-6.588-1.862-6.538-1.115.037.862 5.723.237 7.04-.625 1.319-1.06-4.476-2.124-4.396-.395.03-.689.108.04 3.387.39 1.762 1.54 5.002 2.543 7.685 1.685 9.092 9.084 38.179 20.683 32.854 6.49-2.98 9.123-16.184 9.123-16.184l-5.8-.003z"/>
        <path fill="#B66955" d="M307.889 99.544s.053.01.15-.02c.09-.028.264-.138.237-.364-.014-.39-.076-.96-.166-1.696-.067-.74-.289-1.628-.29-2.68-.008-.527.005-1.093.035-1.694.02-.3.026-.611.092-.905.05-.285.24-.612.46-.572l.025.004h.01c.224-.01.4.163.471.43.079.255.098.556.083.843l-.001.011.001.009c.147 1.61.305 3.371.672 5.253.051.235.103.472.176.71.037.12.08.239.131.361.034.062.056.12.107.186.046.055.102.15.263.165.261-.02.337-.217.396-.33.057-.13.092-.259.118-.386.054-.257.082-.513.101-.769.07-1.026.034-2.074-.042-3.147-.025-.543-.158-1.085-.066-1.576.044-.243.145-.487.31-.587.08-.05.172-.06.271-.034.05.014.1.034.15.064.04.04.031.023.069.093.21.45.318 1.037.436 1.582a46.642 46.642 0 0 1 .535 3.437c.057.585.142 1.199.29 1.79.076.298.16.594.284.889.064.148.13.294.26.445.046.064.193.184.376.137.177-.06.228-.2.257-.282.102-.362.072-.663.067-.98-.014-.312-.04-.62-.066-.928-.045-.53-.095-1.055-.113-1.572a5.29 5.29 0 0 1 .019-.757c.015-.118.035-.24.076-.328a.271.271 0 0 1 .06-.093c.01-.01.016-.006.025-.016l.081-.024c.418-.172.557.409.667.877.097.488.158.992.257 1.488.166.991.377 1.976.488 2.923.045.469.08.957-.056 1.354l-.441 1.35-.013.04.009.042c.767 3.384 1.83 6.411 2.816 9.098a95.274 95.274 0 0 0 2.87 6.903 71.359 71.359 0 0 0 2.207 4.36l.654 1.126c.152.254.235.383.244.378.008-.005-.058-.144-.194-.406l-.607-1.15c-.51-1.013-1.266-2.487-2.114-4.395-.85-1.904-1.82-4.23-2.793-6.914-.962-2.685-2.006-5.72-2.753-9.068l-.003.083.44-1.332c.17-.513.12-1.015.078-1.505-.113-.984-.318-1.94-.483-2.936-.097-.492-.156-.998-.258-1.514-.06-.256-.115-.516-.256-.778a.759.759 0 0 0-.348-.35.772.772 0 0 0-.496-.02l-.106.03c-.047.021-.106.046-.143.08a.614.614 0 0 0-.159.225c-.066.15-.085.29-.104.429a5.68 5.68 0 0 0-.022.812c.019.534.07 1.062.114 1.59.026.307.052.613.065.914.01.294.02.618-.047.845-.015.067-.047.054-.01.086l.001.003.004.023-.001-.006a.047.047 0 0 1 .001-.022c.004-.005.017-.027.01-.03a.101.101 0 0 1-.039-.033 1.33 1.33 0 0 1-.191-.341 5.726 5.726 0 0 1-.268-.836 11.95 11.95 0 0 1-.284-1.745 46.647 46.647 0 0 0-.546-3.465c-.13-.568-.214-1.113-.48-1.681a.565.565 0 0 0-.196-.22.958.958 0 0 0-.234-.099.681.681 0 0 0-.533.074c-.312.206-.409.533-.465.818-.05.293-.043.583-.01.863.031.268.058.532.078.797.08 1.06.12 2.102.057 3.099a5.593 5.593 0 0 1-.091.727c-.023.117-.055.23-.095.326a.441.441 0 0 1-.069.117c-.024.053-.043-.012-.041.074.032-.065 0-.029-.024-.083-.027-.03-.05-.086-.074-.13a3.316 3.316 0 0 1-.12-.323 8.437 8.437 0 0 1-.174-.684c-.373-1.848-.548-3.615-.71-5.213v.02a2.69 2.69 0 0 0-.103-.935.937.937 0 0 0-.246-.42.646.646 0 0 0-.467-.17l.035.004c-.252-.045-.437.108-.542.26a1.365 1.365 0 0 0-.193.489c-.07.33-.068.644-.085.946a23.951 23.951 0 0 0-.01 1.706c.02 1.073.263 1.963.347 2.694.11.731.192 1.298.228 1.681.039.182-.107.299-.184.33-.088.038-.14.043-.14.051"/>
        <path fill="#C88976" d="M266.911 131.651s-1.741-.083-3.645.418c-3.249.855-8.858 4.254-9.09 8.454h4.073s-2.282 4.857-1.61 4.407c1.738-1.167 5.201-4.686 5.201-4.686l5.071-8.593z"/>
        <path fill="#1A2E35" d="M322.487 58.544c-.09.008-.46-3.36-.826-7.523-.366-4.164-.59-7.545-.499-7.552.09-.008.46 3.36.826 7.523.366 4.162.59 7.544.5 7.552M340.362 43.674c.073.053-2.68 4.048-6.148 8.923-3.47 4.876-6.342 8.786-6.415 8.733-.074-.053 2.678-4.047 6.148-8.923 3.469-4.875 6.341-8.785 6.415-8.733M347.788 61.781c.018.09-3.194.824-7.174 1.642-3.981.818-7.223 1.41-7.241 1.321-.018-.089 3.194-.824 7.175-1.642 3.98-.818 7.222-1.41 7.24-1.321"/>
        <path fill="#984D00" d="M133.787 148.207l-22.25 114.391-2.913 14.975 148.534-.733c6.666-.033 12.574-5.952 14.718-14.746l26.339-107.996c1.628-6.676-1.945-13.619-7.005-13.613l-150.333.158c-3.32.003-6.222 3.1-7.09 7.564"/>
        <path fill="#FFA100" d="M242.91 254.848l-15.726-126.73c-.645-5.191-4.781-9.065-9.665-9.05l-34.485.114c-2.552.008-4.999 1.093-6.812 3.02l-16.375 17.408-95.908.5c-5.861.03-10.364 5.576-9.588 11.807l14.602 117.13c.647 5.185 4.775 9.053 9.652 9.043l167.149-.33c18.616.386 20.393-5.112 20.393-5.112-21.335 4.729-23.235-17.787-23.237-17.8"/>
        <path fill="#FFD186" d="M170.837 229.484l-18.594-16.726 16.824-18.07-6.23-5.604-16.824 18.069-18.593-16.727-5.638 6.055 18.594 16.726-16.824 18.07 6.23 5.604 16.824-18.069L165.2 235.54z"/>
        <path fill="#181818" d="M266.778 65.932a1.176 1.176 0 0 1-.712-1.03l-.25-5.841a1.173 1.173 0 0 1 1.442-1.193c.939.221 1.974.017 2.84-.562.799-.532 1.334-1.316 1.47-2.15.135-.833-.122-1.753-.706-2.528-.627-.828-1.552-1.386-2.48-1.493-1.895-.218-3.94 1.233-4.467 3.17-.17.626-.815.996-1.44.826a1.168 1.168 0 0 1-.825-1.441c.827-3.044 3.967-5.237 7.002-4.887 1.573.18 3.063 1.06 4.083 2.41.97 1.283 1.389 2.857 1.15 4.32-.24 1.475-1.145 2.834-2.482 3.727-.967.645-2.076 1-3.185 1.039l.195 4.503a1.173 1.173 0 0 1-1.635 1.13M268.5 68.318a.96.96 0 1 1-1.917.132.96.96 0 0 1 1.916-.132"/>
        <path fill="#1A2E35" d="M246.559 57.695c.008 0 .027-.13.057-.383l.123-1.125c.028-.498.155-1.1.305-1.809.082-.352.126-.744.255-1.14l.39-1.272c.61-1.766 1.548-3.885 3.13-5.993a21.022 21.022 0 0 1 6.607-5.756c1.394-.832 2.99-1.412 4.663-1.923 1.698-.403 3.498-.747 5.379-.703.941-.05 1.889.087 2.855.168.483.047.958.176 1.443.26.484.09.972.184 1.447.35 1.942.498 3.83 1.414 5.628 2.55 3.61 2.271 6.65 5.965 8.317 10.444.837 2.241 1.236 4.698 1.233 7.18.05 2.485-.431 5.01-1.316 7.387l-.284.718-.037.096.038.088 4.626 10.654.264-.3c-3.249-1.249-6.4-2.46-9.423-3.62l-.116-.046-.092.089a21.064 21.064 0 0 1-8.898 5.137c-3.171.895-6.365.94-9.27.425a20.73 20.73 0 0 1-7.718-3.061 21.554 21.554 0 0 1-5.307-4.941c-1.345-1.788-2.231-3.622-2.9-5.26-.59-1.673-.95-3.158-1.125-4.388l-.198-1.636-.031-1.203-.025-.737c-.007-.165-.014-.25-.02-.25s-.01.084-.015.249l-.01.739-.002 1.21.167 1.649c.155 1.242.499 2.746 1.075 4.444.657 1.661 1.537 3.526 2.885 5.348a21.712 21.712 0 0 0 5.344 5.046 20.97 20.97 0 0 0 7.82 3.149c2.949.538 6.196.504 9.426-.396a21.407 21.407 0 0 0 9.078-5.21l-.209.043 9.418 3.636.475.184-.21-.485-4.62-10.656.002.183.29-.734c.904-2.43 1.394-5.013 1.343-7.553.002-2.537-.41-5.047-1.267-7.335-1.708-4.576-4.818-8.335-8.5-10.64-1.835-1.152-3.76-2.077-5.737-2.579-.485-.166-.98-.26-1.474-.35-.494-.085-.978-.214-1.468-.259-.983-.078-1.947-.214-2.902-.159-1.912-.037-3.74.32-5.461.74-1.697.527-3.312 1.126-4.722 1.977a21.185 21.185 0 0 0-6.655 5.882c-1.582 2.149-2.509 4.302-3.098 6.093l-.375 1.287c-.124.4-.161.797-.238 1.153-.137.717-.25 1.324-.266 1.826l-.08 1.132c-.017.255-.022.385-.014.386"/>
    </g>
</svg>
