<?xml version="1.0" encoding="utf-8"?>
<!-- Generator: Adobe Illustrator 23.0.1, SVG Export Plug-In . SVG Version: 6.00 Build 0)  -->
<svg version="1.1" id="레이어_1" xmlns="http://www.w3.org/2000/svg" xmlns:xlink="http://www.w3.org/1999/xlink" x="0px"
	 y="0px" viewBox="0 0 321 41" style="enable-background:new 0 0 321 41;" xml:space="preserve">
<style type="text/css">
	.st0{fill-rule:evenodd;clip-rule:evenodd;fill:#151515;}
	.st1{fill-rule:evenodd;clip-rule:evenodd;fill:#EA5F1A;}
	.st2{fill-rule:evenodd;clip-rule:evenodd;fill:#FFFFFF;}
	.st3{fill:#1C1D1D;}
	.st4{fill:#231815;}
	.st5{font-family:'FreeSansBold';}
	.st6{font-size:18px;}
</style>
<g id="SD_x5F_View_1_">
	<path id="StreamDocs_2_" class="st0" d="M73,26.3c0,6.9-3.9,9.4-11.3,9.4c-3.4,0-6.5-0.5-8.6-0.9l0.4-5.6c2,0.7,5.8,1.6,8.5,1.6
		c3.6,0,5.1-0.8,5.1-3.8c0-7.3-14.3-1.9-14.3-13.6c0-4.7,2.3-8.6,10.6-8.6c2.7,0,6,0.3,8.3,0.7L71.4,11c-2.1-0.7-5.2-1.4-8-1.4
		c-3.4,0-4.6,0.9-4.6,3.3C58.7,18.7,73,14.7,73,26.3z M88.7,35c-1.9,0.3-4,0.6-5.9,0.6c-4.7,0-5.3-2.3-5.3-6.5V18.7h-2.7v-4.3h2.7
		V8.8h5.4v5.6h5.7v4.3h-5.7v9.8c0,2.1,0.2,2.6,1.8,2.6c1,0,2.4-0.3,4-1V35z M105.5,19.1c-0.4-0.1-0.8-0.1-1.9-0.1
		c-2.1,0-3.9,1-5.2,1.9v14.4h-5.4V14.4h4.7l0.7,2c1.3-1.2,3.4-2.6,6.4-2.6c0.2,0,0.5,0,0.7,0V19.1z M126.3,26.6h-12.4
		c0.2,3.9,1.2,4.8,4.4,4.8c2.2,0,5.5-0.4,7.6-1v4.4c-2.3,0.6-6.3,0.9-8.3,0.9c-7,0-9.1-2.7-9.1-10.9c0-7.2,1.5-10.9,9.1-10.9
		c7,0,8.6,2.5,8.6,10.9V26.6z M121,22.9c0-3.9-0.7-5.2-3.3-5.2c-2.9,0-3.7,1.3-3.8,5.2H121z M147.3,35.2h-4.6l-0.7-2
		c-2.2,1.5-4.3,2.4-6.5,2.4c-3.3,0-5.9-0.9-5.9-5.9c0-6.1,2.6-7.7,12.5-7.6V21c0-1.5,0-2.8-3-2.8c-2.5,0-5.5,0.6-7.7,1.5v-4.7
		c2.3-0.7,5.9-1.2,7.9-1.2c5,0,8.1,1.6,8.1,6.5V35.2z M142,29.9v-4.1c-5.5-0.2-7.5,0-7.5,3.3c0,1.5,0.6,2.6,2.7,2.6
		C139.2,31.8,140.8,31,142,29.9z M179.2,35.2h-5.4V21c0-1.8-0.8-2.3-1.9-2.3c-1.1,0-2.3,0.6-3.5,1.5v15.2H163V21
		c0-1.8-0.8-2.3-1.9-2.3c-1.1,0-2.3,0.6-3.5,1.4v15.2h-5.4V14.4h4.7l0.6,1.8c1.8-1.2,3.8-2.3,6.2-2.3c2,0,3.4,1,4.2,2.7
		c1.9-1.4,4.1-2.7,6.7-2.7c3.1,0,4.7,2.3,4.7,5.9V35.2z M206.4,20.3c0,9.4-0.4,14.9-12.4,14.9h-9.7v-30h9.7
		C204.5,5.2,206.4,10,206.4,20.3z M200.6,20.2c0-8.5-0.4-10.2-6.5-10.2H190v20.4h4C200.3,30.4,200.6,28.1,200.6,20.2z M230.2,24.8
		c0,7.6-3,10.9-9.8,10.9s-9.8-3.3-9.8-10.9s3-10.9,9.8-10.9S230.2,17.2,230.2,24.8z M224.6,24.8c0-5.3-1-6.4-4.3-6.4
		s-4.3,1.2-4.3,6.4s1,6.4,4.3,6.4S224.6,30.1,224.6,24.8z M250.2,14.2l-0.3,4.9c-1.5-0.3-4.5-0.7-6.4-0.7c-3.1,0-4,1.3-4,6.4
		c0,5.5,1.2,6.4,4.2,6.4c1.4,0,4-0.3,5.8-0.7l0.5,4.7c-1.8,0.3-4,0.5-6.5,0.5c-7.1,0-9.5-3.8-9.5-10.9c0-7.3,2.8-10.9,9.5-10.9
		C246.1,13.9,248.1,14,250.2,14.2z M269.8,29.4c0,4.9-4,6.4-9.3,6.4c-2.4,0-5.6-0.5-7.3-0.8l0.7-4.4c1.8,0.5,4.8,1,7.2,1
		c2.9,0,3.4-0.6,3.4-2.1c0-1.4-0.1-1.8-3.4-2.6c-6.8-1.8-7.8-3.2-7.8-7c0-4.2,2.4-6.1,8.1-6.1c1.3,0,5.7,0.3,7.1,0.5l-0.5,4.2
		c-2.8-0.5-4.8-0.7-6.6-0.7c-2.5,0-2.9,0.4-2.9,1.5c0,1.1,0.3,1.5,2.9,2.2C269.5,23.7,269.8,25.1,269.8,29.4z"/>
	<g>
		<path class="st1" d="M4.1,0.2h33.3c1.8,0,3.3,1.5,3.3,3.3v33.3c0,1.8-1.5,3.3-3.3,3.3H4.1c-1.8,0-3.3-1.5-3.3-3.3V3.6
			C0.8,1.7,2.3,0.2,4.1,0.2z"/>
		<path id="Combined-Shape_8_" class="st2" d="M23.9,31.9l0.5,0.3c-0.1,0-0.1,0-0.2-0.1L23.9,31.9C23.9,31.9,23.9,31.9,23.9,31.9
			l-11.6-7.4l0,0c0,0-0.1,0-0.1-0.1l0,0l0,0l0,0l0,0c-0.2-0.2-0.3-0.4-0.3-0.8V13.1c0-1.7,1-2.3,1-2.3l2.5-2.3
			c0.7-0.7,1.8-0.2,1.8,0.8v10.7c0,0.1,0,0.2,0,0.3l0,0l0,0l5.6,3.8l1,0.6v6.4c0,0.1,0,0.3,0.1,0.4C23.7,31.6,23.8,31.8,23.9,31.9
			l0.5,0.3c0.3,0.1,0.7,0,1-0.3l2.6-2.4c0.5-0.5,0.8-1.2,0.8-1.9V10.2c0-1-1.2-1.4-1.8-0.8l-2.5,2.2c0,0-1,0.6-1,2.3v17.1
			c0,0.1,0,0.3,0.1,0.4C23.7,31.6,23.8,31.8,23.9,31.9L23.9,31.9z"/>
	</g>
	<g>
		<g>
			<path class="st3" d="M311.8,8.7c2.8,0,5,2.2,5,5v18c0,2.8-2.2,5-5,5h-28c-2.8,0-5-2.2-5-5v-18c0-2.8,2.2-5,5-5H311.8 M311.8,5.7
				h-28c-4.4,0-8,3.6-8,8v18c0,4.4,3.6,8,8,8h28c4.4,0,8-3.6,8-8v-18C319.8,9.3,316.2,5.7,311.8,5.7L311.8,5.7z"/>
		</g>
		<text transform="matrix(1 0 0 1 284.0098 29.6958)" class="st4 st5 st6">Vu!</text>
	</g>
</g>
</svg>
