<svg xmlns="http://www.w3.org/2000/svg" xmlns:xlink="http://www.w3.org/1999/xlink" width="108" height="18" viewBox="0 0 108 18">
    <defs>
        <path id="p66dwq82ta" d="M0 0L87.123 0 87.123 12.4 0 12.4z"/>
    </defs>
    <g fill="none" fill-rule="evenodd">
        <g>
            <g>
                <g>
                    <g transform="translate(-90 -26) translate(90 26) translate(0 1.2) translate(20.877 2)">
                        <mask id="3xpq9dcsvb" fill="#fff">
                            <use xlink:href="#p66dwq82ta"/>
                        </mask>
                        <path fill="#FFF" d="M8.109 8.642c0 2.75-1.571 3.758-4.539 3.758-1.363 0-2.605-.189-3.45-.358l.155-2.238c.793.272 2.312.632 3.417.632 1.448 0 2.052-.308 2.052-1.537C5.744 5.96 0 8.147 0 3.45 0 1.554.914 0 4.243 0c1.07 0 2.415.137 3.348.29l-.139 2.204c-.828-.274-2.07-.547-3.209-.547-1.363 0-1.863.359-1.863 1.315 0 2.323 5.729.718 5.729 5.38zm6.278 3.485c-.776.136-1.586.222-2.38.222-1.88 0-2.14-.923-2.14-2.613v-4.15h-1.07V3.86h1.07V1.623h2.175V3.86h2.294v1.725h-2.294v3.911c0 .854.085 1.06.741 1.06.398 0 .949-.137 1.604-.394v1.965zm6.763-6.388c-.172-.034-.328-.051-.776-.051-.863 0-1.57.392-2.087.751v5.756h-2.174V3.86h1.898l.276.786c.534-.478 1.38-1.042 2.57-1.042.087 0 .19.017.293.017v2.118zm8.333 3.006h-4.968c.069 1.57.466 1.913 1.776 1.913.897 0 2.191-.154 3.071-.393v1.777c-.914.221-2.536.358-3.33.358-2.794 0-3.657-1.076-3.657-4.372 0-2.87.588-4.373 3.658-4.373 2.794 0 3.45 1.008 3.45 4.373v.717zM27.36 7.276c0-1.554-.276-2.067-1.328-2.067-1.172 0-1.467.513-1.518 2.067h2.846zm10.558 4.92h-1.827l-.276-.787c-.899.615-1.744.957-2.624.957-1.328 0-2.38-.376-2.38-2.357 0-2.46 1.052-3.075 5.004-3.023v-.461c0-.581.016-1.128-1.19-1.128-1.019 0-2.193.257-3.107.615V4.15c.931-.29 2.364-.495 3.157-.495 2.02 0 3.243.632 3.243 2.596v5.944zm-2.103-2.12V8.454c-2.191-.068-3.003.018-3.003 1.333 0 .597.241 1.059 1.087 1.059.776 0 1.415-.359 1.916-.77zm14.94 2.12h-2.175V6.49c0-.7-.31-.94-.759-.94-.43 0-.931.24-1.414.582v6.063h-2.174V6.49c0-.7-.31-.94-.76-.94-.43 0-.931.223-1.414.548v6.097h-2.173V3.86h1.897l.241.7c.709-.478 1.537-.905 2.485-.905.812 0 1.38.393 1.673 1.076.76-.547 1.64-1.076 2.674-1.076 1.225 0 1.9.922 1.9 2.357v6.183zm10.92-5.979c0 3.74-.172 5.978-4.968 5.978h-3.882V.205h3.882c4.174 0 4.968 1.896 4.968 6.012zM59.348 6.2c0-3.416-.173-4.082-2.624-4.082H55.07v8.164h1.603c2.555 0 2.676-.94 2.676-4.082zM71.2 8.028c0 3.039-1.209 4.372-3.95 4.372-2.745 0-3.952-1.333-3.952-4.372 0-3.04 1.207-4.373 3.951-4.373 2.742 0 3.95 1.332 3.95 4.373zm-2.226 0c0-2.118-.397-2.58-1.725-2.58-1.33 0-1.725.462-1.725 2.58s.396 2.579 1.725 2.579c1.328 0 1.725-.461 1.725-2.58zm10.282-4.236l-.121 1.964c-.586-.137-1.794-.29-2.554-.29-1.223 0-1.604.512-1.604 2.562 0 2.203.501 2.579 1.692 2.579.57 0 1.604-.103 2.345-.292l.19 1.88c-.708.136-1.587.205-2.623.205-2.862 0-3.829-1.537-3.829-4.372 0-2.904 1.138-4.373 3.83-4.373 1.018 0 1.829.034 2.674.137zm7.867 6.063c0 1.947-1.621 2.545-3.727 2.545-.966 0-2.259-.189-2.915-.324l.275-1.742c.709.187 1.933.41 2.882.41 1.174 0 1.38-.24 1.38-.838 0-.546-.034-.7-1.38-1.042-2.743-.717-3.123-1.263-3.123-2.784 0-1.673.966-2.425 3.262-2.425.517 0 2.277.103 2.863.205l-.19 1.69c-1.139-.204-1.914-.272-2.657-.272-1 0-1.172.17-1.172.598 0 .444.137.614 1.156.87 3.225.838 3.346 1.384 3.346 3.11z" mask="url(#3xpq9dcsvb)"/>
                    </g>
                    <path fill="#EA601B" d="M.803 0h14.454c.443 0 .802.358.802.8v14.4c0 .442-.36.8-.802.8H.803C.36 16 0 15.642 0 15.2V.8C0 .358.36 0 .803 0" transform="translate(-90 -26) translate(90 26) translate(0 1.2)"/>
                    <path fill="#FEFEFE" d="M3.834 11.264h6.375c.71 0 1.284-.61 1.284-1.364v-.491c0-.094.072-.17.16-.17h1.124c.09 0 .16.076.16.17v.662c0 1.507-1.149 2.729-2.568 2.729H2.971c-.089 0-.16-.076-.16-.17l1.023-1.366zm8.207-6.93H5.539c-.71 0-1.284.612-1.284 1.366v.49c0 .094-.072.172-.16.172H2.97c-.09 0-.16-.078-.16-.171v-.662C2.81 4.022 3.96 2.8 5.378 2.8h7.399c.088 0 .16.075.16.17l-.896 1.365zM9.765 9.239H4.698V7.725c0-.753.575-1.365 1.284-1.365h5.067v1.514c0 .754-.576 1.364-1.284 1.364z" transform="translate(-90 -26) translate(90 26) translate(0 1.2)"/>
                </g>
            </g>
        </g>
    </g>
</svg>
