<svg xmlns="http://www.w3.org/2000/svg" width="172" height="24" viewBox="0 0 172 24">
    <g fill="none" fill-rule="evenodd">
        <path fill="#FC3D21" d="M24.747 0H0v18.092C0 21.355 2.688 24 6.003 24h18.744c3.315 0 6.003-2.645 6.003-5.908V5.908C30.75 2.645 28.062 0 24.747 0m0 4.43c.827 0 1.5.663 1.5 1.478v12.184a1.49 1.49 0 0 1-1.5 1.477H6.003c-.827 0-1.5-.663-1.5-1.477V4.431h20.244"/>
        <path fill="#0B3D91" d="M11.375 14.25h8a2 2 0 0 0 2-2v-.5a2 2 0 0 0-2-2h-10v2.5a2 2 0 0 0 2 2z"/>
        <path fill="#717171" d="M46.014 15.34c0 .88-.32 1.566-.957 2.058-.638.493-1.504.739-2.598.739-1.185 0-2.096-.153-2.734-.458v-1.121c.41.173.856.31 1.34.41.483.1.961.15 1.435.15.775 0 1.358-.147 1.75-.44.392-.295.588-.704.588-1.228 0-.346-.07-.63-.209-.85-.139-.222-.371-.426-.697-.613-.326-.187-.821-.398-1.487-.635-.93-.333-1.594-.727-1.992-1.183-.4-.456-.599-1.05-.599-1.784 0-.77.29-1.383.869-1.84.578-.455 1.344-.683 2.297-.683.993 0 1.907.183 2.74.547l-.362 1.012c-.824-.346-1.627-.52-2.406-.52-.615 0-1.096.133-1.442.397-.347.264-.52.631-.52 1.1 0 .347.064.63.192.852.127.22.343.423.646.608.303.184.766.388 1.39.612 1.049.373 1.77.774 2.164 1.203.395.428.592.984.592 1.668zm4.293 1.86c.2 0 .394-.015.58-.044.188-.03.336-.06.445-.093v.869c-.123.059-.304.108-.543.147-.24.038-.455.058-.646.058-1.45 0-2.174-.764-2.174-2.29V11.39h-1.073v-.547l1.073-.472.478-1.6h.657v1.737h2.173v.882h-2.173v4.409c0 .451.107.797.32 1.039.215.241.509.362.883.362zm5.94-6.829c.333 0 .631.027.896.082l-.158 1.053a3.865 3.865 0 0 0-.82-.103c-.606 0-1.124.246-1.555.739-.43.492-.646 1.105-.646 1.838V18h-1.135v-7.492h.937l.13 1.388h.054c.278-.488.613-.864 1.005-1.128a2.262 2.262 0 0 1 1.292-.397zm5.182 7.766c-1.108 0-1.982-.338-2.622-1.012-.64-.674-.96-1.611-.96-2.81 0-1.207.297-2.167.892-2.877.594-.711 1.393-1.067 2.396-1.067.939 0 1.681.309 2.228.926.547.618.82 1.432.82 2.444v.718h-5.16c.022.88.244 1.547.666 2.003.422.456 1.015.684 1.78.684.807 0 1.605-.17 2.393-.506v1.011c-.4.174-.78.298-1.138.373-.358.075-.79.113-1.295.113zm-.308-6.816c-.601 0-1.081.196-1.439.588-.358.392-.568.934-.632 1.627h3.917c0-.715-.16-1.263-.479-1.644-.319-.38-.774-.57-1.367-.57zM70.726 18l-.226-1.066h-.055c-.373.469-.746.787-1.117.953-.372.167-.835.25-1.391.25-.743 0-1.326-.192-1.747-.575-.422-.382-.632-.927-.632-1.633 0-1.513 1.21-2.306 3.63-2.38l1.271-.04v-.465c0-.588-.126-1.022-.38-1.302-.252-.28-.657-.42-1.213-.42-.624 0-1.33.19-2.119.574l-.349-.869c.37-.2.774-.357 1.214-.471.44-.114.88-.171 1.323-.171.893 0 1.555.198 1.985.594.431.397.646 1.033.646 1.908V18h-.84zm-2.564-.8c.706 0 1.261-.193 1.665-.58.403-.388.605-.93.605-1.628v-.677l-1.135.048c-.902.032-1.553.172-1.952.42-.399.25-.598.635-.598 1.16 0 .41.124.722.373.936.248.214.595.321 1.042.321zm15.292.8v-4.874c0-.597-.128-1.045-.383-1.343-.255-.299-.651-.448-1.19-.448-.706 0-1.227.203-1.565.608-.337.406-.505 1.03-.505 1.873V18h-1.135v-4.874c0-.597-.128-1.045-.383-1.343-.255-.299-.654-.448-1.196-.448-.711 0-1.232.213-1.562.64-.33.425-.496 1.124-.496 2.094V18h-1.135v-7.492h.923l.185 1.025h.054a2.23 2.23 0 0 1 .906-.854c.39-.205.826-.308 1.31-.308 1.17 0 1.936.424 2.296 1.272h.055c.223-.392.547-.702.97-.93a3.012 3.012 0 0 1 1.45-.342c.847 0 1.482.218 1.904.653.421.435.632 1.131.632 2.088V18h-1.135zm11.621-5.093c0 1.65-.448 2.911-1.343 3.784-.896.873-2.184 1.309-3.866 1.309h-2.768V8.006h3.062c1.554 0 2.762.43 3.623 1.292.862.861 1.292 2.064 1.292 3.61zm-1.23.041c0-1.303-.327-2.285-.981-2.946-.654-.66-1.626-.991-2.916-.991H88.26v7.984h1.415c1.385 0 2.427-.34 3.124-1.022.697-.681 1.046-1.69 1.046-3.025zm9.755 1.3c0 1.22-.308 2.174-.923 2.86-.615.686-1.465 1.029-2.55 1.029-.67 0-1.265-.158-1.784-.472a3.113 3.113 0 0 1-1.203-1.353c-.283-.588-.424-1.277-.424-2.065 0-1.221.305-2.173.916-2.854.61-.681 1.458-1.022 2.543-1.022 1.048 0 1.88.349 2.498 1.046.618.697.927 1.64.927 2.83zm-5.708 0c0 .956.191 1.685.574 2.187.383.5.945.752 1.688.752s1.307-.25 1.692-.749.578-1.23.578-2.19c0-.953-.193-1.677-.578-2.171-.385-.495-.953-.742-1.705-.742-.743 0-1.304.244-1.682.731-.378.488-.567 1.215-.567 2.181zm10.691 3.889c-1.085 0-1.924-.334-2.519-1.002-.595-.667-.892-1.612-.892-2.833 0-1.254.302-2.222.906-2.906.603-.683 1.464-1.025 2.58-1.025.36 0 .72.039 1.08.116.36.078.643.169.848.274l-.349.964c-.25-.1-.524-.184-.82-.25a3.663 3.663 0 0 0-.786-.099c-1.522 0-2.283.97-2.283 2.912 0 .92.185 1.627.557 2.12.371.491.921.738 1.65.738.625 0 1.265-.135 1.922-.404v1.005c-.502.26-1.133.39-1.894.39zm8.504-2.18c0 .696-.26 1.234-.78 1.612-.519.379-1.248.568-2.187.568-.993 0-1.768-.158-2.324-.472v-1.053c.36.183.746.326 1.159.431.412.105.81.157 1.192.157.593 0 1.049-.094 1.368-.283.319-.19.478-.478.478-.865 0-.292-.126-.541-.38-.749-.252-.207-.745-.452-1.48-.735-.696-.26-1.192-.486-1.486-.68a2.031 2.031 0 0 1-.656-.66 1.72 1.72 0 0 1-.216-.881c0-.611.249-1.093.746-1.446.496-.353 1.178-.53 2.043-.53a5.98 5.98 0 0 1 2.366.492l-.404.923c-.752-.31-1.433-.465-2.044-.465-.537 0-.943.085-1.216.253-.274.169-.41.401-.41.697 0 .201.05.372.153.513.103.141.268.276.496.403.228.128.665.313 1.312.554.89.324 1.49.65 1.802.978.312.328.468.74.468 1.237zm13.282-3.05c0 1.677-.44 2.945-1.32 3.804-.879.86-2.17 1.289-3.875 1.289h-2.393V8.006h2.7c1.596 0 2.809.417 3.64 1.25.832.835 1.248 2.052 1.248 3.651zm-.759.028c0-1.431-.363-2.508-1.09-3.23-.727-.723-1.794-1.084-3.203-1.084h-1.838v8.764h1.654c2.985 0 4.477-1.484 4.477-4.45zm5.886 5.202c-1.08 0-1.922-.333-2.526-.998-.604-.666-.906-1.598-.906-2.796 0-1.185.292-2.134.875-2.847.584-.714 1.37-1.07 2.359-1.07.875 0 1.565.305 2.071.916.506.61.759 1.44.759 2.488v.547h-5.353c.01 1.02.248 1.8.715 2.338.467.538 1.136.806 2.006.806.424 0 .796-.03 1.118-.088.321-.06.728-.187 1.22-.383v.615c-.42.182-.807.307-1.162.373a6.45 6.45 0 0 1-1.176.099zm-.198-7.11c-.716 0-1.29.236-1.723.708-.433.472-.686 1.152-.759 2.04h4.594c0-.86-.187-1.534-.56-2.02-.374-.485-.891-.728-1.552-.728zM149.462 18v-4.874c0-.725-.141-1.253-.424-1.586-.282-.333-.715-.499-1.299-.499-.76 0-1.324.21-1.688.629-.365.42-.547 1.078-.547 1.976V18h-.69v-5.08c0-1.252-.575-1.879-1.723-1.879-.78 0-1.347.227-1.702.68-.356.454-.534 1.18-.534 2.177V18h-.676v-7.43h.56l.144 1.018h.04a2.13 2.13 0 0 1 .876-.858 2.605 2.605 0 0 1 1.25-.304c1.172 0 1.924.44 2.257 1.32h.027c.242-.425.566-.75.974-.978a2.803 2.803 0 0 1 1.391-.342c.811 0 1.42.216 1.825.65.406.432.609 1.12.609 2.064V18h-.67zm9.222-3.726c0 1.213-.294 2.16-.882 2.84-.588.682-1.4 1.023-2.434 1.023-.652 0-1.226-.158-1.722-.472-.497-.314-.878-.766-1.142-1.353-.264-.588-.397-1.267-.397-2.038 0-1.212.294-2.156.882-2.833.588-.677 1.395-1.015 2.42-1.015 1.021 0 1.822.343 2.403 1.029.581.685.872 1.625.872 2.82zm-5.866 0c0 1.021.225 1.818.674 2.39.449.572 1.083.857 1.904.857.82 0 1.454-.285 1.903-.857.45-.572.674-1.369.674-2.39 0-1.025-.227-1.82-.68-2.385-.454-.565-1.09-.848-1.911-.848-.82 0-1.453.281-1.897.844-.444.563-.667 1.36-.667 2.39z"/>
    </g>
</svg>
