<?xml version="1.0" encoding="utf-8"?>
<!-- Generator: Adobe Illustrator 22.1.0, SVG Export Plug-In . SVG Version: 6.00 Build 0)  -->
<svg version="1.1" xmlns="http://www.w3.org/2000/svg" xmlns:xlink="http://www.w3.org/1999/xlink" x="0px" y="0px"
	 viewBox="0 0 196 38.8" style="enable-background:new 0 0 196 38.8;" xml:space="preserve">
<style type="text/css">
	.st0{fill:#191919;}
	.st1{fill:#F69320;}
</style>
<g id="대지_안내선">
</g>
<g id="Layer_1">
	<g>
		<path class="st0" d="M70.7,16.2c0-3.6-1.2-6-3.5-7.3c-1.2-0.7-3-1-5.4-1H50.5v4.4h9.2c2.1,0,3.5,0.3,4.2,0.9
			c0.7,0.6,1.1,1.4,1.1,3.4h-7.7c-3.7,0-5,0.5-6.4,1.5c-1.4,1.1-2.4,2.9-2.4,5.3c0,2,0.6,3.6,1.8,4.8c1.2,1.2,2.8,1.7,5,1.7h15.5
			V16.2z M57.6,25.7c-1,0-1.8-0.2-2.3-0.6c-0.5-0.4-0.8-1-0.8-1.8c0-1,0.4-1.7,1.1-2.1c0.5-0.2,1.3-0.4,2.5-0.4h6.9v4.8H57.6z"/>
		<path class="st0" d="M92.1,10.7c-1.9-1.8-4.4-2.8-7.6-2.8h-11v30.9h5.6V30h5.1c3.7,0,6.1-1.4,7.9-3.2c1.8-1.8,3.1-4.9,3.1-8.4
			C95.2,14.7,94.2,12.7,92.1,10.7 M87.7,23.5c-1.2,1.2-3.2,1.9-6.4,1.9h-2.2V12.6h3.7c2.7,0,4.5,0.6,5.4,1.8c0.7,0.9,1,2.4,1,4.4
			C89.3,21.1,88.7,22.5,87.7,23.5"/>
		<path class="st0" d="M44.4,2.8C42.5,0.9,40,0,36.9,0h-11v30h5.6v-7.9h5.1c3.7,0,6.1-1.4,7.9-3.2c1.8-1.8,3.1-4.9,3.1-8.4
			C47.5,6.7,46.5,4.8,44.4,2.8 M40,15.6c-1.2,1.2-3.2,1.9-6.4,1.9h-2.2V4.6h3.7c2.7,0,4.5,0.6,5.4,1.8c0.7,0.9,1,2.4,1,4.4
			C41.6,13.1,40.9,14.6,40,15.6"/>
		<path class="st0" d="M141.5,17h-5.3v-1.7c0-1.4-0.1-2.3-0.4-2.7c-0.3-0.4-0.8-0.6-1.6-0.6h-0.5h-0.6h-5.2h-0.7v18h-5.6V7.9h13.9
			c2.2,0,3.8,0.4,4.6,1.2c0.9,0.9,1.4,2.7,1.4,5.2V17z"/>
		<path class="st0" d="M188.8,22.7c0,2.2-0.3,3.4-1.3,4.7c-0.9,1.3-2.8,2.5-4.7,2.5H168v-4.4h12.1c2.1,0,3.2-1.1,3.2-2.6
			c0-1.5-1.1-1.9-3.2-1.9h-5.1h-1.2c-1.9,0-3.2-0.5-4.2-1.3c-1.4-1.1-2.1-2.8-2.1-5.2c0-4.3,3.3-6.5,6.7-6.5h13v4.4H176
			c-1.8,0-2.7,0.8-2.7,2.1v0.2c0.1,1.3,0.8,2,2.8,2h5.3c2.2,0,3.8,0.5,5,1.3C188,18.9,188.8,20.8,188.8,22.7"/>
		<path class="st0" d="M164.7,30H153c-3.1,0-5.3-0.5-6.6-1.6c-1.6-1.2-2.3-3.4-2.3-6.4v-14h5.6v13.6c0,1.2,0.2,2.1,0.7,2.7
			c0.6,0.7,1.6,1.1,3.1,1.1h5.7V7.9h5.6V30z"/>
		<path class="st0" d="M118.1,29.4c0,2.7-0.5,5.5-1.8,6.9c-1.4,1.5-3.6,2.5-6.3,2.5H97.8v-4.3h11.1c2.4,0,3.6-1.7,3.6-4.5h-6.1
			c-3.1,0-5.4-0.5-6.7-1.6c-1.5-1.3-2.3-3.5-2.3-6.7V7.9h5.5v13.2c0,1.5,0.2,2.5,0.5,3c0.5,0.8,1.7,1.3,3.4,1.3h5.7V7.9h5.6V29.4z"
			/>
		<path class="st1" d="M22.7,17.7c0-3.3-1-5.9-2.9-7.9c-1.9-2-4.7-3-8.3-3C7.8,6.8,5,7.9,3,10c-2,2.2-3,4.8-3,7.9v1.6
			c0,3.6,1.1,6.3,3.2,8.1c2.2,1.9,5.1,2.8,8.7,2.8c1.9,0,3.6-0.2,5-0.5c1.5-0.3,2.8-0.8,4-1.5v-3.8c-1.4,0.6-2.7,1.1-4.1,1.4
			c-1.3,0.3-2.6,0.5-3.9,0.5c-1.9,0-3.5-0.5-4.6-1.5c-1.2-1-1.8-2.7-1.8-5.2h16.1V17.7z M6.7,16.6c0.1-2.2,0.6-3.8,1.6-4.8
			c1-0.9,2.1-1.4,3.3-1.4c1.4,0,2.6,0.5,3.5,1.4c0.9,1,1.4,2.6,1.5,4.8H6.7z"/>
		<path class="st0" d="M192.9,4.3c-1.7,0-3.1,1.5-3.1,3.3c0,1.8,1.4,3.3,3.1,3.3c1.7,0,3.1-1.5,3.1-3.3C196,5.7,194.6,4.3,192.9,4.3
			 M192.9,10.4c-1.5,0-2.7-1.3-2.7-2.9c0-1.6,1.2-2.9,2.7-2.9c1.5,0,2.7,1.3,2.7,2.9C195.6,9.1,194.4,10.4,192.9,10.4"/>
		<path class="st0" d="M192.2,9.5h-0.6V5.6h1.6c0.3,0,0.6,0.1,0.8,0.2c0.2,0.2,0.4,0.5,0.4,0.9c0,0.3-0.1,0.5-0.2,0.6
			c-0.1,0.1-0.1,0.2-0.2,0.2c0,0,0.1,0.1,0.1,0.1c0.1,0.1,0.1,0.3,0.1,0.6l0,0.6c0,0.1,0,0.2,0,0.2c0,0,0.1,0.1,0.1,0.1v0.2h-0.7
			c0-0.1-0.1-0.3-0.1-0.5c0-0.2,0-0.4,0-0.6c0-0.2-0.1-0.3-0.1-0.4c-0.1-0.1-0.2-0.1-0.4-0.1h-1.1V9.5z M192.2,7.3h0.9
			c0.2,0,0.4,0,0.5-0.1c0.1-0.1,0.2-0.3,0.2-0.5c0-0.2-0.1-0.4-0.2-0.5c-0.1-0.1-0.2-0.1-0.4-0.1h-1.1V7.3z"/>
	</g>
</g>
</svg>
