<svg xmlns="http://www.w3.org/2000/svg" xmlns:xlink="http://www.w3.org/1999/xlink" width="230" height="28" viewBox="0 0 230 28">
    <defs>
        <path id="0abr1qmnza" d="M0.564 0.107L15.399 0.107 15.399 20.649 0.564 20.649z"/>
        <path id="tngdotbv6c" d="M0.27 0.054L14.45 0.054 14.45 21.245 0.27 21.245z"/>
    </defs>
    <g fill="none" fill-rule="evenodd">
        <g>
            <g>
                <g>
                    <g fill="#FF6100">
                        <path d="M77.867 0c3.314 0 6 2.686 6 6v10.4c0 3.314-2.686 6-6 6H6c-3.314 0-6-2.686-6-6V6c0-3.314 2.686-6 6-6h71.867zM31.521 8.691c-.527 0-.997.062-1.41.187-.412.124-.762.34-1.05.65-.289.308-.51.731-.664 1.269-.154.537-.231 1.214-.231 2.03 0 .797.082 1.46.246 1.987.164.528.395.943.693 1.247.298.303.649.517 1.051.642.403.124.843.187 1.32.187.348 0 .698-.015 1.051-.045s.688-.072 1.006-.127c.239-.041.455-.086.649-.136l.186-.05v-1.046h-2.28c-.478 0-.868-.067-1.171-.202-.303-.134-.53-.393-.679-.776-.149-.384-.223-.944-.223-1.68 0-.747.074-1.32.223-1.718.15-.398.373-.672.671-.82.256-.129.577-.202.964-.22l.2-.005h2.176v-1.06c-.457-.12-.914-.202-1.372-.247-.457-.044-.91-.067-1.356-.067zm-8.1 0c-.864 0-1.55.12-2.057.359-.507.239-.87.654-1.089 1.247-.218.592-.328 1.426-.328 2.5 0 1.056.115 1.88.343 2.472.229.593.6 1.008 1.111 1.247.512.24 1.2.359 2.065.359.616 0 1.15-.03 1.603-.09.301-.04.593-.084.875-.133l.415-.076v-1.09h-2.416c-.586 0-1.031-.065-1.334-.194-.303-.13-.512-.341-.626-.635-.096-.245-.158-.56-.188-.947l-.014-.24h2.341c.507 0 .947-.065 1.32-.194.372-.13.658-.346.857-.65.199-.304.298-.71.298-1.217 0-.717-.107-1.272-.32-1.665-.214-.393-.552-.667-1.014-.821-.462-.155-1.076-.232-1.842-.232zm39.405 0c-.865 0-1.55.12-2.057.359-.507.239-.87.654-1.089 1.247-.218.592-.328 1.426-.328 2.5 0 1.056.115 1.88.343 2.472.229.593.599 1.008 1.11 1.247.513.24 1.201.359 2.066.359.616 0 1.15-.03 1.603-.09.301-.04.593-.084.874-.133l.415-.076v-1.09h-2.415c-.586 0-1.031-.065-1.334-.194-.304-.13-.512-.341-.627-.635-.095-.245-.157-.56-.187-.947l-.014-.24h2.341c.507 0 .947-.065 1.32-.194.372-.13.658-.346.857-.65.199-.304.298-.71.298-1.217 0-.717-.107-1.272-.32-1.665-.214-.393-.552-.667-1.014-.821-.463-.155-1.076-.232-1.842-.232zM19.576 5.78h-8.155v1.658h3.16V16.8h1.85V7.437h3.146V5.779zm18.184-.358h-1.849V16.8h1.85v-5.81c.208-.128.414-.243.618-.343.204-.1.415-.176.634-.231.218-.055.457-.082.715-.082.269 0 .502.052.701.157.199.104.353.259.462.463.088.163.14.35.158.561l.006.163V16.8h1.85v-5.346c0-.538-.083-1.018-.247-1.441-.164-.423-.427-.754-.79-.993-.363-.24-.838-.359-1.424-.359-.507 0-1.001.102-1.483.306-.386.164-.72.338-1 .524l-.2.141V5.421zm12.956.358H49.24V16.8h1.849V8.93l5.01 7.87h1.476V5.78h-1.85v7.87l-5.009-7.87zm19.404.777h-1.446l-.268 2.24-1.312.298v1.195h1.252l-.06 3.763c-.01.667.067 1.205.231 1.613.164.408.43.7.798.874.315.149.707.234 1.176.256l.24.005h1.328v-1.359l-1-.104c-.119-.01-.233-.035-.342-.075-.11-.04-.212-.107-.306-.202-.094-.094-.166-.224-.216-.388-.04-.131-.064-.293-.072-.485l-.003-.15V10.29h2.028V8.796H70.12v-2.24zm-46.699 3.48c.368 0 .666.042.895.126.229.085.393.227.492.426.1.199.15.473.15.821 0 .358-.083.605-.247.74-.164.134-.42.2-.768.2h-2.177c0-.616.053-1.092.157-1.425.104-.334.276-.565.514-.695.239-.13.567-.194.984-.194zm39.405 0c.368 0 .666.042.895.126.228.085.392.227.492.426.1.199.149.473.149.821 0 .358-.082.605-.246.74-.164.134-.42.2-.768.2h-2.177c0-.616.052-1.092.157-1.425.104-.334.276-.565.514-.695.239-.13.567-.194.984-.194z" transform="translate(-144 -301) translate(144 300) translate(0 .901) translate(134.185 1.867)"/>
                    </g>
                    <g>
                        <path fill="#221E1F" d="M39.415 18.317c-.692 0-1.227-.126-1.604-.385-.374-.255-.563-.671-.563-1.24 0-.71.248-1.188.743-1.42.335-.162.91-.241 1.72-.241h4.722v3.286h-5.018zm8.975-6.55c0-2.445-.81-4.105-2.427-4.97-.846-.456-2.08-.68-3.697-.68h-7.744v3.022h6.29c1.425 0 2.385.208 2.88.627.495.412.74.954.74 2.345H39.15c-2.515 0-3.406.325-4.353 1.045-.95.72-1.609 1.958-1.609 3.634 0 1.386.403 2.471 1.21 3.264.811.79 1.94 1.184 3.402 1.184h10.59v-9.47zM60.01 16.793c-.795.809-2.19 1.314-4.386 1.314H54.11V9.296h2.551c1.823 0 3.059.413 3.713 1.24.475.613.713 1.628.713 3.046 0 1.54-.426 2.546-1.077 3.211m3.04-8.786c-1.297-1.26-3.027-1.893-5.192-1.893H50.31v21.19h3.8v-6.07h3.512c2.5 0 4.175-.949 5.435-2.214 1.259-1.259 2.09-3.357 2.09-5.767 0-2.525-.698-3.883-2.097-5.246" transform="translate(-144 -301) translate(144 300) translate(0 .901)"/>
                        <g transform="translate(-144 -301) translate(144 300) translate(0 .901) translate(17.106 .579)">
                            <mask id="3ybnnosjeb" fill="#fff">
                                <use xlink:href="#0abr1qmnza"/>
                            </mask>
                            <path fill="#221E1F" d="M10.261 10.784c-.794.81-2.19 1.314-4.384 1.314H4.362V3.285h2.55c1.824 0 3.061.417 3.715 1.244.475.612.712 1.626.712 3.047 0 1.537-.426 2.543-1.078 3.208M13.304 2C12.007.737 10.276.106 8.111.106H.564V20.65h3.798v-5.421h3.511c2.5 0 4.176-.95 5.437-2.216 1.258-1.26 2.09-3.356 2.09-5.765 0-2.528-.7-3.885-2.096-5.247" mask="url(#3ybnnosjeb)"/>
                        </g>
                        <path fill="#221E1F" d="M96.842 12.353H93.2v-1.16c0-.951-.093-1.567-.279-1.845-.19-.276-.558-.416-1.109-.416h-4.743v12.306h-3.852V6.114h9.522c1.534 0 2.581.267 3.132.8.648.633.972 1.824.972 3.579v1.86zM129.184 16.264c0 1.52-.22 2.302-.878 3.246-.628.903-1.92 1.73-3.199 1.73h-10.135v-3.027h8.307c1.437 0 2.157-.73 2.157-1.792 0-1.026-.72-1.336-2.157-1.336h-4.286c-1.324 0-2.175-.363-2.848-.903-.97-.777-1.435-1.887-1.435-3.596 0-2.978 2.229-4.47 4.572-4.47h8.904v3.022h-7.734c-1.256 0-1.836.55-1.836 1.448v.135c.078.89.535 1.339 1.93 1.339h3.652c1.481 0 2.6.352 3.389.861 1.051.693 1.597 1.998 1.597 3.343M112.716 21.238h-8.047c-2.1 0-3.62-.375-4.54-1.125-1.061-.847-1.594-2.307-1.594-4.38V6.117h3.8v9.333c0 .85.167 1.472.503 1.868.41.492 1.115.738 2.113.738h3.913V6.117h3.852v15.121z" transform="translate(-144 -301) translate(144 300) translate(0 .901)"/>
                        <g transform="translate(-144 -301) translate(144 300) translate(0 .901) translate(66.37 6.061)">
                            <mask id="bg1lf6dasd" fill="#fff">
                                <use xlink:href="#tngdotbv6c"/>
                            </mask>
                            <path fill="#221E1F" d="M14.45 14.785c0 1.867-.341 3.748-1.202 4.716-.923 1.04-2.43 1.744-4.34 1.744H.537V18.27h7.622c1.628 0 2.439-1.166 2.439-3.093H6.395c-2.142 0-3.663-.376-4.564-1.126C.79 13.187.27 11.645.27 9.436V.054h3.748V9.09c0 1.028.107 1.712.325 2.044.372.574 1.157.862 2.35.862h3.905V.054h3.852v14.731z" mask="url(#bg1lf6dasd)"/>
                        </g>
                        <path fill="#F59221" d="M4.58 12.082c.054-1.54.417-2.634 1.084-3.286.67-.649 1.434-.973 2.282-.973.977 0 1.764.328 2.364.986.604.663.953 1.75 1.046 3.273H4.58zm10.969.758c0-2.23-.654-4.042-1.96-5.43-1.307-1.39-3.188-2.084-5.646-2.084-2.584 0-4.552.74-5.91 2.22C.677 9.028 0 10.838 0 12.976v1.101c0 2.44.738 4.294 2.223 5.569 1.48 1.27 3.468 1.905 5.963 1.905 1.306 0 2.455-.115 3.452-.336 1.001-.225 1.912-.557 2.738-.997v-2.586c-.953.42-1.882.733-2.784.935-.904.21-1.785.314-2.645.314-1.302 0-2.361-.334-3.172-1.008-.817-.674-1.225-1.875-1.225-3.596H15.55V12.84z" transform="translate(-144 -301) translate(144 300) translate(0 .901)"/>
                    </g>
                </g>
            </g>
        </g>
    </g>
</svg>
