<svg xmlns="http://www.w3.org/2000/svg" xmlns:xlink="http://www.w3.org/1999/xlink" width="168" height="28" viewBox="0 0 168 28">
    <defs>
        <path id="b7tn3k0cna" d="M0 0L135.022 0 135.022 19.289 0 19.289z"/>
    </defs>
    <g fill="none" fill-rule="evenodd">
        <g>
            <g>
                <g>
                    <g transform="translate(-144 -301) translate(144 301) translate(0 1.867) translate(32.356 3.111)">
                        <mask id="h92qvfytmb" fill="#fff">
                            <use xlink:href="#b7tn3k0cna"/>
                        </mask>
                        <path fill="#1B0C0A" d="M12.567 13.444c0 4.278-2.435 5.845-7.034 5.845-2.112 0-4.037-.294-5.346-.558l.24-3.48c1.229.423 3.582.982 5.295.982 2.244 0 3.18-.478 3.18-2.39C8.902 9.273 0 12.673 0 5.367 0 2.418 1.416 0 6.576 0c1.66 0 3.743.213 5.189.452l-.216 3.427c-1.283-.425-3.209-.85-4.973-.85-2.112 0-2.888.558-2.888 2.046 0 3.613 8.879 1.115 8.879 8.369zm9.73 5.42c-1.203.212-2.458.345-3.69.345-2.913 0-3.315-1.435-3.315-4.065V8.688h-1.658V6.004h1.658v-3.48h3.37v3.48h3.556v2.684h-3.556v6.084c0 1.327.133 1.648 1.15 1.648.615 0 1.47-.213 2.486-.612v3.056zm10.481-9.937c-.267-.053-.508-.08-1.203-.08-1.337 0-2.432.611-3.234 1.17v8.953h-3.369V6.004h2.942l.427 1.222c.828-.743 2.14-1.62 3.983-1.62.135 0 .296.026.454.026v3.295zm12.914 4.676h-7.7c.107 2.443.723 2.976 2.754 2.976 1.39 0 3.396-.24 4.76-.61v2.762c-1.418.345-3.93.558-5.16.558-4.332 0-5.67-1.674-5.67-6.802 0-4.463.912-6.801 5.67-6.801 4.33 0 5.346 1.567 5.346 6.801v1.116zm-3.288-2.285c0-2.418-.427-3.215-2.059-3.215-1.816 0-2.272.797-2.353 3.215h4.412zm16.363 7.652h-2.832l-.428-1.222c-1.392.957-2.703 1.488-4.066 1.488-2.059 0-3.688-.585-3.688-3.667 0-3.826 1.63-4.782 7.754-4.703v-.716c0-.904.025-1.754-1.845-1.754-1.577 0-3.397.398-4.814.956V6.456c1.443-.452 3.664-.77 4.892-.77 3.13 0 5.027.983 5.027 4.038v9.246zm-3.26-3.296V13.15c-3.396-.106-4.654.027-4.654 2.073 0 .93.374 1.647 1.685 1.647 1.202 0 2.192-.558 2.969-1.197zm23.155 3.296H75.29v-8.874c0-1.09-.48-1.461-1.176-1.461-.668 0-1.444.372-2.192.903v9.432h-3.37v-8.874c0-1.09-.48-1.461-1.176-1.461-.667 0-1.444.346-2.193.85v9.485h-3.367V6.004h2.94l.374 1.09c1.097-.744 2.38-1.408 3.85-1.408 1.258 0 2.14.61 2.593 1.674 1.177-.85 2.54-1.674 4.145-1.674 1.898 0 2.943 1.434 2.943 3.666v9.618zm16.923-9.299c0 5.817-.266 9.3-7.699 9.3H81.87V.318h6.016c6.469 0 7.699 2.949 7.699 9.352zm-3.609-.027c0-5.313-.267-6.35-4.065-6.35h-2.566v12.7h2.486c3.958 0 4.145-1.46 4.145-6.35zm18.37 2.843c0 4.728-1.874 6.802-6.124 6.802-4.252 0-6.123-2.074-6.123-6.802 0-4.73 1.87-6.801 6.123-6.801 4.25 0 6.123 2.072 6.123 6.801zm-3.451 0c0-3.294-.616-4.012-2.673-4.012-2.06 0-2.673.718-2.673 4.012 0 3.295.613 4.012 2.673 4.012 2.057 0 2.673-.717 2.673-4.012zM122.83 5.9l-.187 3.055c-.908-.213-2.781-.452-3.958-.452-1.896 0-2.486.797-2.486 3.985 0 3.428.777 4.012 2.622 4.012.882 0 2.486-.16 3.634-.453l.295 2.924c-1.097.211-2.46.319-4.065.319-4.436 0-5.934-2.391-5.934-6.802 0-4.516 1.764-6.801 5.934-6.801 1.578 0 2.835.053 4.145.213zm12.192 9.431c0 3.029-2.512 3.959-5.775 3.959-1.497 0-3.501-.294-4.519-.505l.428-2.71c1.098.292 2.995.638 4.466.638 1.819 0 2.14-.372 2.14-1.302 0-.85-.054-1.09-2.14-1.62-4.252-1.117-4.84-1.967-4.84-4.332 0-2.603 1.497-3.772 5.055-3.772.802 0 3.53.16 4.437.318l-.293 2.63c-1.766-.318-2.968-.424-4.12-.424-1.55 0-1.816.265-1.816.93 0 .69.213.956 1.792 1.354 4.998 1.303 5.185 2.153 5.185 4.836z" mask="url(#h92qvfytmb)"/>
                    </g>
                    <g>
                        <path fill="#EA601B" d="M1.244 0h22.4c.687 0 1.245.558 1.245 1.244v22.4c0 .687-.558 1.245-1.245 1.245h-22.4C.558 24.889 0 24.33 0 23.644v-22.4C0 .558.558 0 1.244 0" transform="translate(-144 -301) translate(144 301) translate(0 1.867)"/>
                        <path fill="#FEFEFE" d="M5.942 17.522h9.88c1.099 0 1.99-.95 1.99-2.123v-.763c0-.146.112-.265.248-.265h1.741c.14 0 .25.119.25.265v1.03c0 2.344-1.782 4.245-3.98 4.245H4.604c-.138 0-.25-.119-.25-.266l1.587-2.123zM18.661 6.743H8.584c-1.1 0-1.99.95-1.99 2.123v.764c0 .146-.112.266-.249.266h-1.74c-.14 0-.25-.12-.25-.266V8.601c0-2.345 1.782-4.245 3.98-4.245H19.8c.138 0 .248.117.248.265l-1.388 2.122zm-3.528 7.628H7.281v-2.354c0-1.172.89-2.123 1.99-2.123h7.852v2.355c0 1.172-.892 2.122-1.99 2.122z" transform="translate(-144 -301) translate(144 301) translate(0 1.867)"/>
                    </g>
                </g>
            </g>
        </g>
    </g>
</svg>
