<svg xmlns="http://www.w3.org/2000/svg" width="28" height="28" viewBox="0 0 28 28">
    <g fill="none" fill-rule="evenodd">
        <g fill="#363636">
            <g>
                <g>
                    <g>
                        <g>
                            <g>
                                <path d="M14 23c6.112 0 8-2.547 8-4.5 0-2.875-1.735-4.549-5.714-4.5 3.417-1.213 4.668-2.887 4.571-4.5C20.954 6.795 19.04 5 14 5H6v1.125h2.286v15.75H6V23h8zm-1.143-10.125h-1.143v-6.75h1.143c3.334 0 4.572 1.133 4.572 3.375 0 2.13-1.449 3.375-4.572 3.375zm1.143 9h-2.286c.019-1.942.004-3.913 0-5.625V14h1.143c4.041 0 5.714 1.272 5.714 4.5 0 2.006-1.837 3.375-4.571 3.375z" transform="translate(-1266 -917) translate(114 174) translate(0 124) translate(996 52) translate(155 566) translate(1 1)"/>
                            </g>
                        </g>
                    </g>
                </g>
            </g>
        </g>
    </g>
</svg>
