<svg xmlns="http://www.w3.org/2000/svg" width="30" height="30" viewBox="0 0 30 30">
    <g fill="none" fill-rule="evenodd">
        <g fill="#363636" fill-rule="nonzero">
            <g>
                <g>
                    <g>
                        <g>
                            <path d="M18.607 24.387l.122-.939c-1.07 0-1.736-.032-2-.095-.262-.064-.442-.154-.537-.272-.095-.118-.143-.281-.143-.49 0-.444.155-1.56.463-3.346.227-1.342.648-3.772 1.265-7.29.48-2.74.802-4.349.966-4.83.063-.226.147-.39.251-.49.105-.099.225-.172.36-.217.227-.072.858-.109 1.891-.109l.164-.952c-2.503.055-4.163.082-4.979.082-1.215 0-2.525-.027-3.93-.082l-.15.952c.943.037 1.519.064 1.727.082.336.027.565.097.687.21.122.114.184.28.184.497 0 .58-.232 2.2-.694 4.856l-1.279 7.21c-.362 2.021-.591 3.164-.687 3.427-.095.263-.21.458-.346.585-.064.054-.145.095-.245.122-.454.118-1.102.168-1.945.15l-.11.939c2.658-.073 4.208-.11 4.653-.11l.117.001c.707.004 2.105.04 4.195.109z" transform="translate(-1307 -916) translate(114 174) translate(0 124) translate(996 52) translate(197 566)"/>
                        </g>
                    </g>
                </g>
            </g>
        </g>
    </g>
</svg>
