<svg width="257" height="186" viewBox="0 0 257 186" fill="none" xmlns="http://www.w3.org/2000/svg">
  <path d="M20.5797 81.95L42.3297 48.65C45.4797 42.95 48.4797 37.25 51.1797 31.55H51.7797C51.4797 37.7 51.0297 47 51.0297 53V81.95H20.5797ZM51.0297 125H67.2297V95.3H81.1797V81.95H67.2297V14.45H47.1297L3.17969 83.75V95.3H51.0297V125ZM128.477 126.95C150.077 126.95 164.177 107.75 164.177 69.35C164.177 31.25 150.077 12.5 128.477 12.5C106.877 12.5 92.7766 31.1 92.7766 69.35C92.7766 107.75 106.877 126.95 128.477 126.95ZM128.477 113.3C117.227 113.3 109.277 101.3 109.277 69.35C109.277 37.7 117.227 26.15 128.477 26.15C139.727 26.15 147.677 37.7 147.677 69.35C147.677 101.3 139.727 113.3 128.477 113.3ZM184.173 125H247.173V110.75H225.573V14.45H212.523C206.223 18.5 198.873 21.05 188.523 23V33.95H208.323V110.75H184.173V125Z" fill="#1E1E1E"/>
  <path d="M23.71 184.468C29.578 184.468 33.538 181.264 33.538 172.624V157.468H29.506V172.912C29.506 178.888 27.058 180.832 23.71 180.832C20.398 180.832 18.022 178.888 18.022 172.912V157.468H13.846V172.624C13.846 181.264 17.842 184.468 23.71 184.468ZM40.0324 184H44.1724V169.96C45.9004 168.196 47.1604 167.26 48.9964 167.26C51.3364 167.26 52.3444 168.628 52.3444 172.048V184H56.4844V171.544C56.4844 166.504 54.6124 163.696 50.4004 163.696C47.7004 163.696 45.6844 165.172 43.8484 166.936H43.7404L43.4164 164.2H40.0324V184ZM67.1772 184.468C69.5532 184.468 71.6772 183.28 73.4772 181.732H73.6212L73.9452 184H77.3292V172.084C77.3292 166.828 75.0612 163.696 70.1292 163.696C66.9612 163.696 64.1892 164.992 62.1372 166.288L63.6852 169.096C65.3772 168.016 67.3212 167.08 69.4092 167.08C72.3252 167.08 73.1532 169.096 73.1892 171.4C64.9452 172.3 61.3452 174.496 61.3452 178.744C61.3452 182.236 63.7572 184.468 67.1772 184.468ZM68.4372 181.192C66.6732 181.192 65.3412 180.4 65.3412 178.456C65.3412 176.224 67.3212 174.712 73.1892 174.028V178.888C71.5692 180.364 70.1652 181.192 68.4372 181.192ZM89.0363 184.468C91.7363 184.468 93.6803 183.1 95.4803 181.012H95.5883L95.9123 184H99.2963V164.2H95.1563V177.952C93.5003 180.04 92.2403 180.904 90.4043 180.904C88.0643 180.904 87.0923 179.536 87.0923 176.152V164.2H82.9523V176.656C82.9523 181.696 84.7883 184.468 89.0363 184.468ZM112.188 184.468C113.628 184.468 114.96 184.108 116.076 183.748L115.32 180.688C114.744 180.94 113.88 181.156 113.196 181.156C111.144 181.156 110.316 179.932 110.316 177.556V167.512H115.464V164.2H110.316V158.728H106.86L106.392 164.2L103.296 164.416V167.512H106.176V177.52C106.176 181.696 107.724 184.468 112.188 184.468ZM119.802 184H123.942V169.96C125.67 168.196 126.93 167.26 128.766 167.26C131.106 167.26 132.114 168.628 132.114 172.048V184H136.254V171.544C136.254 166.504 134.382 163.696 130.17 163.696C127.47 163.696 125.49 165.172 123.762 166.828L123.942 162.904V155.308H119.802V184ZM150.081 184.468C154.977 184.468 159.405 180.688 159.405 174.1C159.405 167.512 154.977 163.696 150.081 163.696C145.185 163.696 140.757 167.512 140.757 174.1C140.757 180.688 145.185 184.468 150.081 184.468ZM150.081 181.084C146.985 181.084 145.041 178.312 145.041 174.1C145.041 169.924 146.985 167.116 150.081 167.116C153.213 167.116 155.157 169.924 155.157 174.1C155.157 178.312 153.213 181.084 150.081 181.084ZM164.275 184H168.415V171.652C169.639 168.52 171.583 167.404 173.203 167.404C173.995 167.404 174.499 167.512 175.183 167.728L175.939 164.128C175.327 163.84 174.679 163.696 173.707 163.696C171.583 163.696 169.495 165.208 168.091 167.764H167.983L167.659 164.2H164.275V184ZM179.005 184H183.145V164.2H179.005V184ZM181.057 160.492C182.569 160.492 183.649 159.52 183.649 158.008C183.649 156.532 182.569 155.56 181.057 155.56C179.545 155.56 178.501 156.532 178.501 158.008C178.501 159.52 179.545 160.492 181.057 160.492ZM187.541 184H202.841V180.688H192.761L202.517 166.396V164.2H188.621V167.512H197.333L187.541 181.768V184ZM214.847 184.468C217.439 184.468 219.707 183.604 221.543 182.38L220.103 179.752C218.663 180.688 217.151 181.228 215.387 181.228C211.967 181.228 209.591 178.96 209.267 175.18H222.119C222.227 174.676 222.335 173.884 222.335 173.056C222.335 167.476 219.491 163.696 214.235 163.696C209.627 163.696 205.199 167.692 205.199 174.1C205.199 180.652 209.483 184.468 214.847 184.468ZM209.231 172.3C209.627 168.844 211.823 166.936 214.307 166.936C217.187 166.936 218.735 168.916 218.735 172.3H209.231ZM233.798 184.468C236.03 184.468 238.082 183.28 239.558 181.768H239.702L240.026 184H243.41V155.308H239.27V162.652L239.45 165.928C237.83 164.56 236.39 163.696 234.122 163.696C229.694 163.696 225.626 167.692 225.626 174.1C225.626 180.688 228.83 184.468 233.798 184.468ZM234.77 181.048C231.674 181.048 229.91 178.564 229.91 174.064C229.91 169.78 232.142 167.152 234.914 167.152C236.39 167.152 237.794 167.62 239.27 168.952V178.636C237.83 180.292 236.426 181.048 234.77 181.048Z" fill="#363636"/>
</svg>
