<svg width="203" height="140" viewBox="0 0 203 140" fill="none" xmlns="http://www.w3.org/2000/svg">
  <g clip-path="url(#clip0_111_115119)">
    <path d="M25.9272 140H184.209C189.934 140 195.243 137.01 198.214 132.119L202.454 125.143C203.631 123.204 202.236 120.74 199.971 120.74H129.908V129.872H80.1915V120.74H10.1462C7.88141 120.74 6.50442 123.204 7.66399 125.143L11.9037 132.119C14.8751 137.01 20.1837 140 25.9091 140H25.9272Z" fill="#EA601B"/>
    <path d="M200.769 116.03C200.28 115.16 199.573 114.417 198.721 113.892C197.815 113.33 196.765 113.04 195.678 113.04H186.455C187.434 111.79 188.013 110.214 188.013 108.492V7.41038C188.013 3.33377 184.698 0 180.603 0H20.9266C16.85 0 13.5162 3.31565 13.5162 7.41038V108.51C13.5162 110.214 14.096 111.79 15.0744 113.058H5.85221C4.76511 113.058 3.71425 113.348 2.80833 113.91C1.95677 114.435 1.25016 115.16 0.760968 116.048C0.253656 116.899 0 117.896 0 118.892C0 119.961 0.289893 121.012 0.85156 121.936L5.09124 128.912C6.81248 131.738 9.24033 134.093 12.1393 135.724C15.0201 137.355 18.2995 138.206 21.6151 138.206H179.896C183.212 138.206 186.492 137.355 189.372 135.724C192.253 134.093 194.699 131.738 196.42 128.912L200.66 121.936C201.222 121.012 201.512 119.961 201.512 118.892C201.512 117.896 201.258 116.899 200.751 116.03H200.769ZM16.4695 7.41038C16.4695 4.94629 18.4625 2.95328 20.9266 2.95328H180.585C183.049 2.95328 185.042 4.94629 185.042 7.41038V108.51C185.042 110.975 183.049 112.968 180.585 112.968H20.9266C18.4625 112.968 16.4695 110.975 16.4695 108.51V7.41038ZM122.661 115.921V122.19H78.8508V115.921H122.661ZM198.142 120.396L193.902 127.372C190.931 132.264 185.622 135.253 179.896 135.253H21.6151C15.8897 135.253 10.5811 132.264 7.60968 127.372L3.37 120.396C2.19231 118.457 3.58742 115.993 5.85221 115.993H75.8975V125.125H125.614V115.993H195.678C197.942 115.993 199.319 118.457 198.16 120.396H198.142Z" fill="#1E1F1E"/>
    <path d="M98.3821 59.4643C88.6526 59.4643 80.7349 51.5467 80.7349 41.8171C80.7349 32.0876 88.6526 24.1699 98.3821 24.1699C108.112 24.1699 116.029 32.0876 116.029 41.8171C116.029 51.5467 108.112 59.4643 98.3821 59.4643ZM98.3821 27.4312C90.4463 27.4312 83.9962 33.8813 83.9962 41.8171C83.9962 49.7529 90.4463 56.2031 98.3821 56.2031C106.318 56.2031 112.768 49.7529 112.768 41.8171C112.768 33.8813 106.318 27.4312 98.3821 27.4312Z" fill="#1E1F1E"/>
    <path d="M67.9615 90.6091H64.7002C64.7002 72.0378 79.8109 56.9453 98.364 56.9453C105.992 56.9453 113.475 59.5725 119.417 64.3376L117.388 66.8741C111.935 62.5076 105.376 60.2066 98.3821 60.2066C81.6227 60.2066 67.9796 73.8497 67.9796 90.6091H67.9615Z" fill="#1E1F1E"/>
    <path d="M130.415 92.2412C122.896 92.2412 116.772 86.1172 116.772 78.5982C116.772 71.0791 122.896 64.9551 130.415 64.9551C137.934 64.9551 144.058 71.0791 144.058 78.5982C144.058 86.1172 137.934 92.2412 130.415 92.2412ZM130.415 68.2164C124.69 68.2164 120.033 72.8728 120.033 78.5982C120.033 84.3235 124.69 88.9799 130.415 88.9799C136.14 88.9799 140.797 84.3235 140.797 78.5982C140.797 72.8728 136.14 68.2164 130.415 68.2164Z" fill="#ED9B24"/>
    <path d="M136.412 76.9668H124.4V80.2281H136.412V76.9668Z" fill="#ED9B24"/>
  </g>
  <defs>
    <clipPath id="clip0_111_115119">
      <rect width="202.87" height="140" fill="white"/>
    </clipPath>
  </defs>
</svg>
