<svg width="153" height="160" viewBox="0 0 153 160" fill="none" xmlns="http://www.w3.org/2000/svg">
  <g clip-path="url(#clip0_111_115060)">
    <path d="M135.007 54.927L134.805 51.2575C134.761 50.3473 133.996 49.625 133.085 49.625H88.6754C87.8664 49.625 87.173 50.174 86.9996 50.9541L85.396 57.8887C85.2226 58.6688 84.5147 59.2178 83.7201 59.2178H2.87498C1.89259 59.2178 1.09801 60.0413 1.1558 61.0381L5.90884 150.349C5.95218 151.259 6.71787 151.982 7.62803 151.982H140.179" fill="white"/>
    <path d="M140.179 153.137H7.64231C6.11093 153.137 4.85405 151.938 4.76736 150.406L-0.000130308 61.0954C-0.0434712 60.3153 0.245468 59.5351 0.780005 58.9572C1.32899 58.3794 2.08023 58.0615 2.87481 58.0615H83.7344C83.9945 58.0615 84.2256 57.8737 84.2834 57.6281L85.887 50.6936C86.1904 49.3789 87.3461 48.4688 88.6897 48.4688H133.1C134.631 48.4688 135.888 49.6678 135.975 51.1992L136.177 54.8688L133.865 54.9843L133.663 51.3148C133.649 51.0114 133.403 50.7803 133.1 50.7803H88.6897C88.4297 50.7803 88.1985 50.9681 88.1407 51.2137L86.5371 58.1482C86.2337 59.4629 85.078 60.373 83.7344 60.373H2.87481C2.65811 60.373 2.52809 60.4886 2.4703 60.5464C2.41251 60.6186 2.31138 60.7487 2.31138 60.9654L7.06443 150.276C7.07888 150.58 7.32447 150.811 7.62786 150.811H140.179V153.122V153.137Z" fill="#1E1F1E"/>
    <path d="M126.122 129.357L26.9868 128.417L28.2004 1.1543L101.808 1.84775L127.104 26.3498L126.122 129.357Z" fill="white"/>
    <path d="M108.8 8.79682L130.528 29.8316C131.193 30.4817 130.731 31.6086 129.806 31.6086L107.89 31.4063C107.327 31.4063 106.864 30.9296 106.864 30.3661L107.067 9.54807C107.067 8.63791 108.164 8.19005 108.815 8.81127L108.8 8.79682Z" fill="#ED9B24"/>
    <path d="M26.5523 61.0466L26.5239 64.6582L28.8354 64.6764L28.8637 61.0647L26.5523 61.0466Z" fill="#1E1F1E"/>
    <path d="M28.9228 53.0348H26.6113L26.6691 44.9734H28.9806L28.9228 53.0348ZM29.0529 36.9553H26.7414L26.7991 28.8939H29.1107L29.0529 36.9553ZM29.1829 20.8759H26.8714L26.9436 12.8145H29.2551L29.1829 20.8759Z" fill="#1E1F1E"/>
    <path d="M29.313 4.78117H27.0015L27.0304 1.15498C27.0304 0.851595 27.1604 0.548209 27.3771 0.345952C27.5938 0.143694 27.8538 0.0281188 28.2006 0.0136719L31.8123 0.0425658L31.7834 2.35408L29.3274 2.32518V4.78117H29.313Z" fill="#1E1F1E"/>
    <path d="M118.942 19.9642L114.059 15.2545L115.663 13.5931L120.546 18.3028L118.942 19.9642ZM109.176 10.5592L104.293 5.8495L105.897 4.1881L110.78 8.8978L109.176 10.5592ZM99.5832 2.989L92.8076 2.93121L92.8365 0.6197L99.6121 0.677487L99.5832 2.989ZM86.032 2.85898L79.2563 2.80119L79.2852 0.489677L86.0609 0.547465L86.032 2.85898ZM72.4663 2.72895L65.6907 2.67117L65.7196 0.359655L72.4952 0.417442L72.4663 2.72895ZM58.915 2.59893L52.1394 2.54114L52.1683 0.229632L58.9439 0.28742L58.915 2.59893ZM45.3493 2.46891L38.5737 2.41112L38.6026 0.0996094L45.3782 0.157397L45.3493 2.46891Z" fill="#1E1F1E"/>
    <path d="M128.333 29.9763L126.021 29.9474L126.064 26.8413L123.825 24.6887L125.429 23.0273L128.029 25.5267C128.26 25.7434 128.39 26.0612 128.39 26.379L128.347 29.9908L128.333 29.9763Z" fill="#1E1F1E"/>
    <path d="M125.925 37.2995L125.826 44.6523L128.137 44.6834L128.236 37.3306L125.925 37.2995Z" fill="#1E1F1E"/>
    <path d="M125.737 52.0058L125.688 55.6172L128 55.6483L128.048 52.0368L125.737 52.0058Z" fill="#1E1F1E"/>
    <path d="M127.105 27.5061L101.577 27.2605C101.273 27.2605 100.97 27.1304 100.768 26.9137C100.551 26.697 100.436 26.3936 100.436 26.0902L100.667 1.83382C100.667 1.37151 100.956 0.952552 101.375 0.779189C101.808 0.605826 102.299 0.692507 102.631 1.01034L127.928 25.4979C128.275 25.8302 128.376 26.3358 128.188 26.7693C128.015 27.2027 127.581 27.4916 127.119 27.4916L127.105 27.5061ZM102.747 24.9634L124.23 25.1656L102.949 4.56429L102.762 24.9634H102.747Z" fill="#1E1F1E"/>
    <path d="M16.8743 142.519L15.025 158.121C14.9095 159.118 15.6896 159.985 16.6864 159.985H146.781C147.634 159.985 148.342 159.349 148.443 158.511L150.292 142.909C150.407 141.912 149.627 141.045 148.63 141.045H18.5357C17.6833 141.045 16.9754 141.681 16.8743 142.519Z" fill="#EA601B"/>
    <path d="M138.647 153.138H8.17688C7.32451 153.138 6.50104 152.776 5.93761 152.126C5.37418 151.491 5.09968 150.638 5.20081 149.786L15.1114 66.1524C15.2848 64.6499 16.5706 63.5086 18.0875 63.5086H99.2794C99.5538 63.5086 99.7994 63.3497 99.9006 63.0897L102.747 56.2996C103.209 55.1872 104.292 54.4648 105.506 54.4648H149.627C150.479 54.4648 151.303 54.826 151.866 55.4761C152.43 56.1118 152.704 56.9642 152.603 57.8165L141.623 150.494C141.45 151.996 140.164 153.138 138.647 153.138ZM18.0875 65.8346C17.7408 65.8346 17.4518 66.0946 17.4085 66.4414L7.49788 150.075C7.46898 150.335 7.58456 150.523 7.65679 150.609C7.72903 150.696 7.90239 150.84 8.16244 150.84H138.647C138.994 150.84 139.283 150.58 139.326 150.234L144.224 108.93L145.365 109.06L144.224 108.93L150.306 57.5565C150.335 57.2964 150.219 57.1086 150.147 57.022C150.075 56.9353 149.901 56.7908 149.641 56.7908H105.52C105.246 56.7908 105 56.9497 104.899 57.2098L102.053 63.9998C101.591 65.1122 100.507 65.8346 99.2938 65.8346H18.0875Z" fill="#1E1F1E"/>
    <path d="M78.1868 116.009C72.4514 117.295 67.4238 112.267 68.7096 106.532C69.3597 103.642 71.6857 101.302 74.5895 100.652C80.3249 99.3662 85.3525 104.394 84.0667 110.129C83.4166 113.019 81.0906 115.359 78.1868 115.995V116.009ZM77.9123 102.877C73.6216 101.735 69.7931 105.564 70.9344 109.855C71.4401 111.747 72.957 113.264 74.8495 113.77C79.1403 114.911 82.9832 111.083 81.8419 106.777C81.3362 104.885 79.8193 103.368 77.9267 102.862L77.9123 102.877Z" fill="#1E1F1E"/>
    <path d="M76.5256 119.274C69.3454 119.274 62.2953 115.864 55.5775 109.103L54.7974 108.323L55.5775 107.543C62.6565 100.435 70.0822 97.011 77.6669 97.401C89.2822 97.9934 96.9102 107.239 97.2281 107.629L97.7915 108.337L97.2281 109.045C96.9102 109.435 89.2822 118.681 77.6669 119.274C77.2913 119.288 76.9012 119.303 76.5256 119.303V119.274ZM57.9612 108.323C64.3323 114.434 70.9202 117.367 77.5658 117.02C86.4073 116.572 92.9084 110.432 94.8877 108.323C92.9084 106.214 86.3784 100.059 77.5369 99.6114C70.8913 99.2791 64.3179 102.212 57.9612 108.323Z" fill="#1E1F1E"/>
    <path d="M91.1173 92.0257L60.0825 123.061L61.6557 124.634L92.6905 93.5989L91.1173 92.0257Z" fill="#1E1F1E"/>
  </g>
  <defs>
    <clipPath id="clip0_111_115060">
      <rect width="152.632" height="160" fill="white"/>
    </clipPath>
  </defs>
</svg>
