<svg width="257" height="186" viewBox="0 0 257 186" fill="none" xmlns="http://www.w3.org/2000/svg">
  <path d="M20.5797 81.95L42.3297 48.65C45.4797 42.95 48.4797 37.25 51.1797 31.55H51.7797C51.4797 37.7 51.0297 47 51.0297 53V81.95H20.5797ZM51.0297 125H67.2297V95.3H81.1797V81.95H67.2297V14.45H47.1297L3.17969 83.75V95.3H51.0297V125ZM128.477 126.95C150.077 126.95 164.177 107.75 164.177 69.35C164.177 31.25 150.077 12.5 128.477 12.5C106.877 12.5 92.7766 31.1 92.7766 69.35C92.7766 107.75 106.877 126.95 128.477 126.95ZM128.477 113.3C117.227 113.3 109.277 101.3 109.277 69.35C109.277 37.7 117.227 26.15 128.477 26.15C139.727 26.15 147.677 37.7 147.677 69.35C147.677 101.3 139.727 113.3 128.477 113.3ZM211.473 126.95C231.723 126.95 248.373 115.25 248.373 95.3C248.373 80.45 238.323 70.85 225.573 67.7V66.95C237.273 62.6 244.623 53.75 244.623 41C244.623 22.85 230.673 12.5 210.873 12.5C198.123 12.5 187.923 18.05 179.223 25.85L188.223 36.65C194.523 30.5 201.723 26.45 210.273 26.3C220.773 26.45 227.223 32.45 227.223 42.2C227.223 53.3 220.023 61.55 198.273 61.55V74.3C223.173 74.3 230.973 82.25 230.973 94.4C230.973 105.95 222.423 112.85 209.973 112.85C198.573 112.85 190.323 107.3 183.873 100.7L175.473 111.8C182.823 120.05 194.073 126.95 211.473 126.95Z" fill="#1E1E1E"/>
  <path d="M42.5994 184H46.7754V172.588H56.5674V169.096H46.7754V160.996H58.2954V157.468H42.5994V184ZM69.9524 184.468C74.8484 184.468 79.2764 180.688 79.2764 174.1C79.2764 167.512 74.8484 163.696 69.9524 163.696C65.0564 163.696 60.6284 167.512 60.6284 174.1C60.6284 180.688 65.0564 184.468 69.9524 184.468ZM69.9524 181.084C66.8564 181.084 64.9124 178.312 64.9124 174.1C64.9124 169.924 66.8564 167.116 69.9524 167.116C73.0844 167.116 75.0284 169.924 75.0284 174.1C75.0284 178.312 73.0844 181.084 69.9524 181.084ZM84.1457 184H88.2857V171.652C89.5097 168.52 91.4537 167.404 93.0737 167.404C93.8657 167.404 94.3697 167.512 95.0537 167.728L95.8097 164.128C95.1977 163.84 94.5497 163.696 93.5777 163.696C91.4537 163.696 89.3657 165.208 87.9617 167.764H87.8537L87.5297 164.2H84.1457V184ZM108.092 184.468C112.556 184.468 116.624 180.58 116.624 173.776C116.624 167.692 113.78 163.696 108.776 163.696C106.688 163.696 104.564 164.812 102.872 166.288L103.016 162.904V155.308H98.8761V184H102.116L102.512 181.948H102.62C104.312 183.532 106.292 184.468 108.092 184.468ZM107.3 181.048C106.076 181.048 104.528 180.58 103.016 179.248V169.564C104.636 167.944 106.148 167.152 107.696 167.152C111.008 167.152 112.34 169.708 112.34 173.848C112.34 178.492 110.18 181.048 107.3 181.048ZM121.517 184H125.657V164.2H121.517V184ZM123.569 160.492C125.081 160.492 126.161 159.52 126.161 158.008C126.161 156.532 125.081 155.56 123.569 155.56C122.057 155.56 121.013 156.532 121.013 158.008C121.013 159.52 122.057 160.492 123.569 160.492ZM138.693 184.468C140.925 184.468 142.977 183.28 144.453 181.768H144.597L144.921 184H148.305V155.308H144.165V162.652L144.345 165.928C142.725 164.56 141.285 163.696 139.017 163.696C134.589 163.696 130.521 167.692 130.521 174.1C130.521 180.688 133.725 184.468 138.693 184.468ZM139.665 181.048C136.569 181.048 134.805 178.564 134.805 174.064C134.805 169.78 137.037 167.152 139.809 167.152C141.285 167.152 142.689 167.62 144.165 168.952V178.636C142.725 180.292 141.321 181.048 139.665 181.048ZM161.368 184.468C163.6 184.468 165.652 183.28 167.128 181.768H167.272L167.596 184H170.98V155.308H166.84V162.652L167.02 165.928C165.4 164.56 163.96 163.696 161.692 163.696C157.264 163.696 153.196 167.692 153.196 174.1C153.196 180.688 156.4 184.468 161.368 184.468ZM162.34 181.048C159.244 181.048 157.48 178.564 157.48 174.064C157.48 169.78 159.712 167.152 162.484 167.152C163.96 167.152 165.364 167.62 166.84 168.952V178.636C165.4 180.292 163.996 181.048 162.34 181.048ZM185.448 184.468C188.04 184.468 190.308 183.604 192.144 182.38L190.704 179.752C189.264 180.688 187.752 181.228 185.988 181.228C182.568 181.228 180.192 178.96 179.868 175.18H192.72C192.828 174.676 192.936 173.884 192.936 173.056C192.936 167.476 190.092 163.696 184.836 163.696C180.228 163.696 175.8 167.692 175.8 174.1C175.8 180.652 180.084 184.468 185.448 184.468ZM179.832 172.3C180.228 168.844 182.424 166.936 184.908 166.936C187.788 166.936 189.336 168.916 189.336 172.3H179.832ZM197.56 184H201.7V169.96C203.428 168.196 204.688 167.26 206.524 167.26C208.864 167.26 209.872 168.628 209.872 172.048V184H214.012V171.544C214.012 166.504 212.14 163.696 207.928 163.696C205.228 163.696 203.212 165.172 201.376 166.936H201.268L200.944 164.2H197.56V184Z" fill="#363636"/>
</svg>
