<?xml version="1.0" encoding="utf-8"?>
<!-- Generator: Adobe Illustrator 23.0.1, SVG Export Plug-In . SVG Version: 6.00 Build 0)  -->
<svg version="1.1" id="레이어_1" xmlns="http://www.w3.org/2000/svg" xmlns:xlink="http://www.w3.org/1999/xlink" x="0px"
	 y="0px" viewBox="0 0 294 185" style="enable-background:new 0 0 294 185;" xml:space="preserve">
<style type="text/css">
	.st0{fill:#1E1E1E;}
</style>
<title>message-error</title>
<desc>Created with Sketch.</desc>
<g>
	<path class="st0" d="M16.5,148.1c-1.3-0.8-2.6-1.1-4.1-1.1H1v28h4.3v-10.7h7.1c1.5,0,2.9-0.4,4.1-1.2c1.3-0.8,2.3-1.8,3-3.1
		c0.7-1.3,1.1-2.8,1.1-4.4c0-1.6-0.4-3.1-1.1-4.4C18.7,149.9,17.7,148.9,16.5,148.1z M15.7,157.9c-0.4,0.7-0.8,1.2-1.4,1.6
		c-0.6,0.4-1.2,0.6-2,0.6h-7v-9h7c0.7,0,1.4,0.2,2,0.6c0.6,0.4,1.1,0.9,1.4,1.6c0.4,0.7,0.5,1.4,0.5,2.2
		C16.2,156.4,16,157.2,15.7,157.9z"/>
	<path class="st0" d="M40.3,156.8c-0.3-0.3-0.6-0.7-0.9-1c-0.7-0.6-1.5-1.2-2.4-1.6c-0.9-0.4-2-0.6-3.2-0.6c-2,0-3.7,0.5-5.3,1.4
		c-1.5,0.9-2.8,2.2-3.6,3.8c-0.9,1.6-1.3,3.5-1.3,5.7s0.4,4,1.3,5.7s2,2.9,3.5,3.9c1.5,0.9,3.1,1.4,4.8,1.4c1.2,0,2.2-0.2,3.2-0.6
		c1-0.4,1.8-0.9,2.5-1.5c0.6-0.5,1.1-1,1.4-1.5v3.2h4.2v-21h-4.2V156.8z M37.4,170.7c-1,0.6-2.1,0.9-3.4,0.9c-1.2,0-2.3-0.3-3.3-0.9
		c-1-0.6-1.7-1.5-2.2-2.6c-0.5-1.1-0.8-2.3-0.8-3.7c0-1.4,0.3-2.6,0.8-3.6c0.5-1.1,1.3-1.9,2.2-2.5c1-0.6,2.1-0.9,3.3-0.9
		c1.3,0,2.4,0.3,3.4,0.9c1,0.6,1.7,1.5,2.2,2.5c0.5,1.1,0.8,2.3,0.8,3.6c0,1.4-0.3,2.6-0.8,3.7C39.1,169.2,38.4,170,37.4,170.7z"/>
	<path class="st0" d="M66.3,156.9c-0.4-0.5-0.8-1-1.4-1.4c-0.7-0.6-1.6-1-2.5-1.4c-1-0.4-2-0.6-3.2-0.6c-1.9,0-3.7,0.5-5.2,1.4
		c-1.6,0.9-2.8,2.2-3.7,3.9c-0.9,1.6-1.4,3.5-1.4,5.7c0,2.1,0.5,4,1.4,5.6s2.2,2.9,3.7,3.9c1.6,0.9,3.3,1.4,5.3,1.4
		c1.3,0,2.4-0.3,3.5-0.8c1.1-0.5,2-1.1,2.7-1.9c0.3-0.4,0.6-0.7,0.8-1.1v2.5c0,2.1-0.6,3.7-1.7,4.7c-1.1,1.1-2.8,1.6-5,1.6
		c-1.1,0-2.3-0.2-3.5-0.6c-1.2-0.4-2.2-0.9-3-1.5l-1.5,3.2c0.9,0.7,2.1,1.4,3.6,1.8c1.5,0.5,3,0.7,4.5,0.7c1.4,0,2.8-0.2,4.1-0.6
		c1.3-0.4,2.4-1,3.5-1.8c1-0.8,1.8-1.9,2.4-3.3c0.6-1.3,0.9-2.9,0.9-4.8V154h-4.1V156.9z M63.3,170.7c-1,0.6-2.2,0.9-3.5,0.9
		c-1.3,0-2.4-0.3-3.4-0.9c-1-0.6-1.8-1.5-2.4-2.5c-0.6-1.1-0.9-2.3-0.9-3.6c0-1.4,0.3-2.6,0.9-3.7c0.6-1.1,1.4-1.9,2.4-2.6
		c1-0.6,2.1-0.9,3.4-0.9c1.3,0,2.5,0.3,3.5,0.9c1,0.6,1.8,1.5,2.3,2.5c0.6,1.1,0.8,2.3,0.8,3.7c0,1.4-0.3,2.6-0.8,3.7
		C65,169.2,64.3,170.1,63.3,170.7z"/>
	<path class="st0" d="M90.4,154.8c-1.4-0.9-3-1.3-4.8-1.3c-1.4,0-2.8,0.3-4.1,0.8c-1.3,0.5-2.4,1.2-3.4,2.2c-1,1-1.8,2.1-2.3,3.5
		s-0.8,3-0.8,4.7c0,2.1,0.5,3.9,1.4,5.5c0.9,1.6,2.2,2.9,3.9,3.8c1.7,0.9,3.6,1.4,5.8,1.4c1.1,0,2.2-0.1,3.2-0.4
		c1-0.3,2-0.7,2.9-1.2c0.9-0.5,1.6-1,2.2-1.5h0l-2-3c-0.6,0.5-1.3,1-2.2,1.6c-0.9,0.5-2.1,0.8-3.6,0.8c-1.5,0-2.8-0.3-3.9-0.9
		c-1.1-0.6-2-1.4-2.6-2.5c-0.5-0.8-0.8-1.7-0.9-2.8h16.1l0-1.8c0-2-0.4-3.8-1.3-5.3C93,156.9,91.8,155.7,90.4,154.8z M82.2,158
		c1-0.5,2.1-0.7,3.4-0.7c0.9,0,1.7,0.2,2.5,0.6s1.4,0.9,1.9,1.6c0.5,0.7,0.8,1.5,0.9,2.4v0.3H79.2c0.1-0.8,0.4-1.4,0.7-2
		C80.4,159.2,81.2,158.5,82.2,158z"/>
	<path class="st0" d="M126.2,154.7c-1-0.8-2.5-1.2-4.4-1.2c-1.2,0-2.4,0.3-3.4,0.8c-1.1,0.5-2,1.2-2.7,2c-0.3,0.3-0.5,0.6-0.7,1V154
		h-4.1v21c0.8,0,1.5,0,2.1,0c0.5,0,1.2,0,2.1,0v-12.7c0-0.7,0.1-1.3,0.4-1.9c0.3-0.6,0.7-1.1,1.2-1.6c0.5-0.5,1.1-0.8,1.8-1.1
		c0.7-0.3,1.4-0.4,2.2-0.4c1.1-0.1,2,0.1,2.7,0.6c0.6,0.5,1.1,1.1,1.4,1.9c0.3,0.8,0.4,1.7,0.4,2.7V175h4.1v-12.8
		c0-1.6-0.2-3.1-0.6-4.4C128,156.5,127.2,155.5,126.2,154.7z"/>
	<path class="st0" d="M149.5,155c-1.6-0.9-3.4-1.4-5.4-1.4s-3.8,0.5-5.4,1.4c-1.6,0.9-2.9,2.2-3.9,3.9c-0.9,1.6-1.4,3.5-1.4,5.7
		c0,2.1,0.5,4,1.4,5.7c0.9,1.6,2.2,2.9,3.9,3.9c1.6,0.9,3.4,1.4,5.4,1.4s3.8-0.5,5.4-1.4s2.9-2.2,3.8-3.9c0.9-1.6,1.4-3.5,1.4-5.7
		c0-2.1-0.5-4-1.4-5.7C152.4,157.2,151.1,155.9,149.5,155z M149.7,168.2c-0.6,1.1-1.4,1.9-2.3,2.5c-1,0.6-2.1,0.9-3.3,0.9
		s-2.3-0.3-3.3-0.9c-1-0.6-1.8-1.5-2.4-2.5c-0.6-1.1-0.8-2.3-0.8-3.7c0-1.4,0.2-2.7,0.8-3.7c0.6-1.1,1.4-1.9,2.4-2.5
		c1-0.6,2.1-0.9,3.3-0.9s2.3,0.3,3.3,0.9c1,0.6,1.8,1.4,2.3,2.5c0.6,1.1,0.8,2.3,0.8,3.7C150.5,165.9,150.3,167.1,149.7,168.2z"/>
	<polygon class="st0" points="165.9,148.6 161.8,148.6 161.8,154 157.4,154 157.4,158 161.8,158 161.8,175 165.9,175 165.9,158 
		170.8,158 170.8,154 165.9,154 	"/>
	<path class="st0" d="M192.4,150.4c0.2-0.3,0.4-0.6,0.8-0.8c0.4-0.2,0.9-0.3,1.5-0.3c0.4,0,0.9,0.1,1.3,0.3s0.8,0.5,1,0.7l1.4-3.2
		c-0.3-0.4-0.8-0.8-1.5-1.2c-0.7-0.4-1.6-0.6-2.7-0.6c-1.2,0-2.3,0.3-3.2,0.8s-1.7,1.3-2.2,2.2s-0.8,2-0.8,3.2v2.7h-3.4v3.8h3.4V175
		c0.8,0,1.5,0,2.1,0s1.3,0,2.1,0v-16.8h5v-3.8h-5v-2.7C192.2,151.2,192.3,150.8,192.4,150.4z"/>
	<path class="st0" d="M215.5,155c-1.6-0.9-3.4-1.4-5.4-1.4s-3.8,0.5-5.4,1.4c-1.6,0.9-2.9,2.2-3.9,3.9c-0.9,1.6-1.4,3.5-1.4,5.7
		c0,2.1,0.5,4,1.4,5.7c0.9,1.6,2.2,2.9,3.9,3.9s3.4,1.4,5.4,1.4s3.8-0.5,5.4-1.4s2.9-2.2,3.8-3.9c0.9-1.6,1.4-3.5,1.4-5.7
		c0-2.1-0.5-4-1.4-5.7C218.4,157.2,217.2,155.9,215.5,155z M215.8,168.2c-0.6,1.1-1.4,1.9-2.3,2.5c-1,0.6-2.1,0.9-3.3,0.9
		s-2.3-0.3-3.3-0.9c-1-0.6-1.8-1.5-2.4-2.5s-0.8-2.3-0.8-3.7c0-1.4,0.2-2.7,0.8-3.7s1.4-1.9,2.4-2.5c1-0.6,2.1-0.9,3.3-0.9
		s2.3,0.3,3.3,0.9c1,0.6,1.8,1.4,2.3,2.5c0.6,1.1,0.8,2.3,0.8,3.7C216.6,165.9,216.4,167.1,215.8,168.2z"/>
	<path class="st0" d="M239.6,154v12.6c0,1.1-0.2,2-0.7,2.8c-0.5,0.8-1.1,1.4-1.9,1.8c-0.8,0.4-1.7,0.6-2.6,0.6
		c-1.1,0-2.1-0.3-2.8-0.8c-0.7-0.5-1.3-1.3-1.6-2.2c-0.3-0.9-0.5-1.9-0.5-3V154h-4.1v13c0,1.8,0.3,3.3,0.9,4.5
		c0.6,1.3,1.5,2.2,2.6,2.9s2.4,1,3.9,1c1.4,0,2.6-0.3,3.7-0.8c1.1-0.5,1.9-1.2,2.6-2c0.3-0.3,0.5-0.6,0.7-1v3.4h4.1v-21
		c-0.8,0-1.5,0-2.1,0S240.4,154,239.6,154z"/>
	<path class="st0" d="M264.9,154.7c-1-0.8-2.5-1.2-4.4-1.2c-1.2,0-2.4,0.3-3.4,0.8s-2,1.2-2.7,2c-0.3,0.3-0.5,0.6-0.7,1V154h-4.1v21
		c0.8,0,1.5,0,2.1,0s1.2,0,2.1,0v-12.7c0-0.7,0.1-1.3,0.4-1.9s0.7-1.1,1.2-1.6s1.1-0.8,1.8-1.1c0.7-0.3,1.4-0.4,2.2-0.4
		c1.1-0.1,2,0.1,2.7,0.6c0.6,0.5,1.1,1.1,1.4,1.9s0.4,1.7,0.4,2.7V175h4.1v-12.8c0-1.6-0.2-3.1-0.6-4.4
		C266.6,156.5,265.9,155.5,264.9,154.7z"/>
	<path class="st0" d="M288.8,145.4v11.3c-0.3-0.4-0.7-0.7-1.1-1.1c-0.7-0.6-1.6-1.1-2.6-1.4c-1-0.4-2.1-0.6-3.2-0.6
		c-1.8,0-3.5,0.5-5,1.4c-1.5,0.9-2.7,2.2-3.6,3.9c-0.9,1.6-1.3,3.5-1.3,5.7c0,2.1,0.4,4,1.3,5.6s2.1,2.9,3.6,3.9
		c1.5,0.9,3.2,1.4,5.1,1.4c1.1,0,2.1-0.2,3-0.5c0.9-0.4,1.7-0.8,2.4-1.4c0.6-0.5,1-1,1.4-1.5v3h4.1v-29.6H288.8z M286,170.9
		c-1,0.6-2.1,1-3.4,1c-1.3,0-2.4-0.3-3.3-1s-1.7-1.5-2.3-2.6c-0.5-1.1-0.8-2.4-0.8-3.8c0-1.4,0.3-2.7,0.8-3.8c0.5-1.1,1.3-2,2.3-2.6
		s2.1-1,3.3-1c1.3,0,2.4,0.3,3.4,1s1.7,1.5,2.2,2.6c0.5,1.1,0.8,2.4,0.8,3.8c0,1.4-0.3,2.6-0.8,3.8
		C287.7,169.4,286.9,170.2,286,170.9z"/>
	<path class="st0" d="M91.7,83.6V67.8H72.2V2H58.9L4,69.2l7.4,14.4h44.2V114h16.6V83.6H91.7z M24.3,67.8l31.2-38.2v38.2H24.3z"/>
	<path class="st0" d="M183.5,28.2c-3.1-8.6-7.8-15.4-13.8-20.4c-6.1-5-13.7-7.4-22.7-7.4c-9,0-16.5,2.5-22.6,7.4
		c-6.1,5-10.7,11.8-13.8,20.4c-3.1,8.6-4.6,18.6-4.6,29.8s1.5,21.1,4.6,29.8c3.1,8.6,7.7,15.4,13.8,20.4c6.1,5,13.7,7.4,22.6,7.4
		c9.1,0,16.6-2.5,22.7-7.4c6.1-5,10.7-11.8,13.8-20.4c3.1-8.6,4.7-18.6,4.7-29.8S186.6,36.9,183.5,28.2z M164.9,89
		c-4.3,7.3-10.3,10.9-18,10.9c-7.7,0-13.7-3.6-18-10.9c-4.3-7.3-6.5-17.6-6.5-31s2.2-23.8,6.5-31c4.3-7.3,10.3-10.9,18-10.9
		c7.7,0,13.7,3.6,18,10.9c4.3,7.3,6.5,17.6,6.5,31S169.2,81.8,164.9,89z"/>
	<path class="st0" d="M288,83.6V67.8h-19.5V2h-13.3l-54.9,67.2l7.4,14.4h44.2V114h16.6V83.6H288z M220.6,67.8l31.2-38.2v38.2H220.6z
		"/>
</g>
</svg>
