<svg xmlns="http://www.w3.org/2000/svg" xmlns:xlink="http://www.w3.org/1999/xlink" width="199" height="144" viewBox="0 0 199 144">
    <defs>
        <path id="a" d="M0 143.924h198.522V0H0z"/>
    </defs>
    <g fill="none" fill-rule="evenodd">
        <path fill="#EA601B" d="M188.133 143.924H67.014a2.989 2.989 0 0 1-2.989-2.989v-16.224h127.097v16.224a2.989 2.989 0 0 1-2.99 2.989"/>
        <path fill="#ED9B24" d="M105.749 88.625H13.786a2.568 2.568 0 0 1-2.567-2.567V77.19a2.568 2.568 0 0 1 2.567-2.567h91.963a2.568 2.568 0 0 1 2.567 2.567v8.868a2.568 2.568 0 0 1-2.567 2.567"/>
        <path fill="#1D1E1E" d="M185.578 49.128v59.553H69.033V83.533h-.353v-2.038h6.472v2.038H71.07v23.11h112.47V49.128a4.76 4.76 0 0 0-4.753-4.76h-57.094V42.33h57.094c3.742 0 6.791 3.05 6.791 6.798"/>
        <mask id="b" fill="#fff">
            <use xlink:href="#a"/>
        </mask>
        <path fill="#1D1E1E" d="M16.897 83.532h6.472v-2.037h-6.472zM55.736 83.533h6.472v-2.038h-6.472zM0 49.78h2.037v-6.472H0zM42.792 83.532h6.472v-2.037h-6.472zM0 62.73h2.037v-6.478H0zM2.037 74.813c0 .25.014.502.041.747l-1.012.108-1.012.116A9.184 9.184 0 0 1 0 74.813v-5.61h2.037v5.61zM8.72 81.495h1.705v2.037H8.72a8.645 8.645 0 0 1-5.06-1.616l.591-.835.591-.822a6.654 6.654 0 0 0 3.878 1.236M29.84 83.532h6.48v-2.037h-6.48zM120.674 51.797h2.037v-6.472h-2.037zM120.674 71.22h2.037v3.593c0 1.1-.197 2.166-.597 3.185l-.951-.374-.944-.373a6.757 6.757 0 0 0 .455-2.438V71.22zM120.674 64.741h2.037V58.27h-2.037zM94.575 83.532h6.472v-2.037h-6.472zM116.68 82.025l.36.958a8.599 8.599 0 0 1-3.049.55h-6.472v-2.038h6.472a6.62 6.62 0 0 0 2.337-.42l.353.95zM81.63 83.532h6.473v-2.037h-6.472zM59.125 2.037h6.479V0h-6.48zM46.18 2.037h6.473V0H46.18zM51.057 13.786h6.716V11.75h-6.716zM24.184 13.786H30.9V11.75h-6.716zM20.292 2.037h6.472V0h-6.472zM13.813 2.037H8.72c-.4 0-.801.041-1.189.11L7.355 1.14 7.172.136A8.984 8.984 0 0 1 8.72 0h5.093v2.037zM33.236 2.037h6.472V0h-6.472zM10.75 13.786h6.717V11.75h-6.716zM37.617 13.786h6.723V11.75h-6.723zM20.4 8.13c0 .97-.787 1.751-1.758 1.751A1.748 1.748 0 0 1 16.89 8.13c0-.971.78-1.759 1.752-1.759A1.76 1.76 0 0 1 20.4 8.13M0 10.94V8.72c0-1.616.448-3.199 1.297-4.57l.863.53.869.536a6.637 6.637 0 0 0-.992 3.504v2.22H0zM11.64 9.881A1.754 1.754 0 0 1 9.881 8.13a1.76 1.76 0 0 1 1.76-1.759c.97 0 1.751.788 1.751 1.76 0 .97-.78 1.751-1.752 1.751M23.892 8.13c0-.972.787-1.76 1.752-1.76a1.76 1.76 0 0 1 1.759 1.76c0 .97-.788 1.751-1.76 1.751a1.752 1.752 0 0 1-1.751-1.752M.794 13.786h3.24V11.75H.794zM0 23.892h2.037v-6.48H0zM0 36.836h2.037v-6.472H0zM64.49 13.786h6.716V11.75H64.49zM91.363 13.786h6.717V11.75h-6.717zM104.796 13.786h6.717V11.75h-6.717zM77.923 13.786h6.724V11.75h-6.724zM72.076 2.037h6.472V0h-6.472zM113.991 0c1.304 0 2.554.279 3.722.835l-.435.917-.434.924a6.656 6.656 0 0 0-2.853-.639h-3.076V0h3.076zM85.02 2.037h6.472V0H85.02zM97.964 2.037h6.479V0h-6.479zM120.674 25.909h2.037v-6.48h-2.037zM122.711 8.72v4.238h-1.243v.828h-3.232V11.75h2.438V8.72c0-.652-.095-1.29-.278-1.908l1.955-.584c.238.808.36 1.643.36 2.492" mask="url(#b)"/>
        <path fill="#1D1E1E" d="M196.485 124.226c-.014 5.881-4.801 10.676-10.69 10.676H68.81c-5.888 0-10.676-4.795-10.683-10.676v-9.365c0-.299.102-.584.286-.808h40.625c1.698 5.473 6.805 9.263 12.591 9.263h31.348c5.794 0 10.907-3.796 12.598-9.263H196.2c.183.224.285.509.285.808v9.365zm.747-12l-.272-.21h-5.195V50.744c0-6.935-5.644-12.571-12.57-12.571H122.71V32.38h-2.037v6.472h1.019v1.358h57.501c5.807 0 10.534 4.72 10.534 10.534v61.27h-35.736l-.183.781-.068.252a11.167 11.167 0 0 1-10.765 8.23h-31.348a11.162 11.162 0 0 1-10.764-8.251c-.02-.074-.04-.143-.061-.23l-.184-.782H64.884V82.514h-2.038v29.501h-5.195l-.272.21a3.31 3.31 0 0 0-1.29 2.636v9.365c.007 7.009 5.711 12.706 12.72 12.713h116.993c7.002-.007 12.707-5.704 12.72-12.713v-9.365a3.31 3.31 0 0 0-1.29-2.635z" mask="url(#b)"/>
    </g>
</svg>
