<svg width="203" height="140" viewBox="0 0 203 140" fill="none" xmlns="http://www.w3.org/2000/svg">
  <g clip-path="url(#clip0_213_114446)">
    <path d="M25.9272 140H184.209C189.934 140 195.243 137.01 198.214 132.119L202.454 125.143C203.631 123.204 202.236 120.74 199.971 120.74H129.908V129.872H80.1915V120.74H10.1462C7.88141 120.74 6.50442 123.204 7.66399 125.143L11.9037 132.119C14.8751 137.01 20.1837 140 25.9091 140H25.9272Z" fill="#EA601B"/>
    <path d="M200.769 116.03C200.28 115.16 199.573 114.417 198.721 113.892C197.815 113.33 196.765 113.04 195.678 113.04H186.455C187.434 111.79 188.013 110.214 188.013 108.492V7.41038C188.013 3.33377 184.698 0 180.603 0H20.9266C16.85 0 13.5162 3.31565 13.5162 7.41038V108.51C13.5162 110.214 14.096 111.79 15.0744 113.058H5.85221C4.76511 113.058 3.71425 113.348 2.80833 113.91C1.95677 114.435 1.25016 115.16 0.760968 116.048C0.253656 116.899 0 117.896 0 118.892C0 119.961 0.289893 121.012 0.85156 121.936L5.09124 128.912C6.81248 131.738 9.24033 134.093 12.1393 135.724C15.0201 137.355 18.2995 138.206 21.6151 138.206H179.896C183.212 138.206 186.492 137.355 189.372 135.724C192.253 134.093 194.699 131.738 196.42 128.912L200.66 121.936C201.222 121.012 201.512 119.961 201.512 118.892C201.512 117.896 201.258 116.899 200.751 116.03H200.769ZM16.4695 7.41038C16.4695 4.94629 18.4625 2.95328 20.9266 2.95328H180.585C183.049 2.95328 185.042 4.94629 185.042 7.41038V108.51C185.042 110.975 183.049 112.968 180.585 112.968H20.9266C18.4625 112.968 16.4695 110.975 16.4695 108.51V7.41038ZM122.661 115.921V122.19H78.8508V115.921H122.661ZM198.142 120.396L193.902 127.372C190.931 132.264 185.622 135.253 179.896 135.253H21.6151C15.8897 135.253 10.5811 132.264 7.60968 127.372L3.37 120.396C2.19231 118.457 3.58742 115.993 5.85221 115.993H75.8975V125.125H125.614V115.993H195.678C197.942 115.993 199.319 118.457 198.16 120.396H198.142Z" fill="#1E1F1E"/>
    <path d="M130.794 98.0021C130.783 99.1064 129.879 99.993 128.775 99.9826L69.5948 99.422C68.4902 99.4115 67.6033 98.5076 67.6138 97.403L68.3491 20.2966C68.3596 19.1921 69.2634 18.3053 70.3678 18.3157L114.439 18.7309C114.976 18.736 115.489 18.9569 115.861 19.3441L130.834 34.9042C131.197 35.2817 131.398 35.7865 131.393 36.3104L130.794 98.0021Z" stroke="#1E1F1E" stroke-width="1.8" stroke-linejoin="round" stroke-dasharray="8 6"/>
    <path d="M122.107 25.8453L138.174 40.9906C138.665 41.4587 138.323 42.27 137.639 42.27L121.434 42.1244C121.018 42.1244 120.676 41.7812 120.676 41.3755L120.825 26.3862C120.825 25.7309 121.637 25.4084 122.118 25.8557L122.107 25.8453Z" fill="#ED9B24"/>
    <path d="M134.299 39.054L114.998 38.8612C114.768 38.8612 114.539 38.7591 114.386 38.589C114.222 38.4188 114.135 38.1806 114.135 37.9424L114.31 18.897C114.31 18.534 114.528 18.205 114.845 18.0689C115.172 17.9328 115.544 18.0009 115.795 18.2504L134.922 37.4773C135.184 37.7382 135.26 38.1352 135.118 38.4755C134.987 38.8158 134.66 39.0427 134.31 39.0427L134.299 39.054ZM115.882 37.0576L132.125 37.2164L116.035 21.0409L115.893 37.0576H115.882Z" fill="#1E1F1E"/>
    <path d="M101.076 66.372C96.3987 67.4207 92.2983 63.3203 93.347 58.6426C93.8772 56.286 95.7742 54.3772 98.1426 53.847C102.82 52.7983 106.921 56.8987 105.872 61.5765C105.342 63.933 103.445 65.8418 101.076 66.3603V66.372ZM100.853 55.6615C97.3531 54.7307 94.2307 57.8531 95.1615 61.3526C95.5739 62.8961 96.8111 64.1333 98.3547 64.5457C101.854 65.4765 104.988 62.3541 104.057 58.8429C103.645 57.2993 102.408 56.0622 100.864 55.6498L100.853 55.6615Z" fill="#1E1F1E"/>
    <path d="M99.7212 69.0353C93.8652 69.0353 88.1152 66.2546 82.6363 60.7403L82 60.104L82.6363 59.4678C88.4098 53.6707 94.4661 50.8782 100.652 51.1963C110.125 51.6794 116.347 59.2203 116.606 59.5385L117.065 60.1158L116.606 60.6932C116.347 61.0113 110.125 68.5522 100.652 69.0353C100.346 69.0471 100.028 69.0589 99.7212 69.0589V69.0353ZM84.5804 60.104C89.7766 65.0881 95.1495 67.48 100.57 67.1972C107.781 66.832 113.083 61.8243 114.697 60.104C113.083 58.3838 107.757 53.3643 100.546 52.999C95.1259 52.728 89.7648 55.1199 84.5804 60.104Z" fill="#1E1F1E"/>
    <path d="M111.622 46.8115L86.3105 72.123L87.5936 73.4061L112.905 48.0946L111.622 46.8115Z" fill="#1E1F1E"/>
  </g>
  <defs>
    <clipPath id="clip0_213_114446">
      <rect width="202.87" height="140" fill="white"/>
    </clipPath>
  </defs>
</svg>
