<svg width="258" height="192" viewBox="0 0 258 192" fill="none" xmlns="http://www.w3.org/2000/svg">
  <path d="M21.5797 79.95L43.3297 46.65C46.4797 40.95 49.4797 35.25 52.1797 29.7H52.7797C52.4797 35.7 51.8797 45 51.8797 51V79.95H21.5797ZM82.1797 79.95H68.0797V12.6H48.1297L4.17969 81.75V93.3H51.8797V123H68.0797V93.3H82.1797V79.95ZM129.477 124.95C151.077 124.95 165.177 105.75 165.177 67.35C165.177 29.25 151.077 10.5 129.477 10.5C107.727 10.5 93.7766 29.1 93.7766 67.35C93.7766 105.75 107.727 124.95 129.477 124.95ZM129.477 111.3C118.227 111.3 110.277 99.3 110.277 67.35C110.277 35.7 118.227 24.15 129.477 24.15C140.727 24.15 148.677 35.7 148.677 67.35C148.677 99.3 140.727 111.3 129.477 111.3ZM218.173 111.75C206.323 111.75 198.373 101.4 196.573 79.5C203.173 70.05 210.673 66.6 217.123 66.6C228.973 66.6 235.273 74.55 235.273 88.8C235.273 103.05 227.773 111.75 218.173 111.75ZM249.523 22.35C243.223 15.75 234.223 10.5 221.923 10.5C200.173 10.5 180.223 27.45 180.223 69.9C180.223 107.4 197.323 124.95 218.323 124.95C236.323 124.95 251.323 110.7 251.323 88.8C251.323 65.4 238.873 54 220.273 54C212.323 54 202.723 58.8 196.273 66.75C197.023 35.25 208.723 24.6 222.823 24.6C229.273 24.6 236.023 28.05 240.073 32.85L249.523 22.35Z" fill="#1E1E1E"/>
  <path d="M3.60919 183H7.56919V170.508C7.56919 167.628 7.24519 164.568 7.02919 161.832H7.20919L9.98119 167.376L18.7652 183H23.0492V156.504H19.0892V168.852C19.0892 171.732 19.4132 174.936 19.6292 177.672H19.4492L16.6772 172.056L7.89319 156.504H3.60919V183ZM37.6067 183.468C42.5027 183.468 46.9307 179.688 46.9307 173.136C46.9307 166.512 42.5027 162.696 37.6067 162.696C32.7107 162.696 28.2827 166.512 28.2827 173.136C28.2827 179.688 32.7107 183.468 37.6067 183.468ZM37.6067 180.084C34.5107 180.084 32.5667 177.312 32.5667 173.136C32.5667 168.924 34.5107 166.116 37.6067 166.116C40.7387 166.116 42.6827 168.924 42.6827 173.136C42.6827 177.312 40.7387 180.084 37.6067 180.084ZM57.6162 183.468C59.0562 183.468 60.3882 183.108 61.5042 182.748L60.7482 179.688C60.1722 179.94 59.3082 180.156 58.6242 180.156C56.5722 180.156 55.7442 178.932 55.7442 176.556V166.512H60.8922V163.2H55.7442V157.728H52.2522L51.7842 163.2L48.7242 163.416V166.512H51.6042V176.52C51.6042 180.696 53.1522 183.468 57.6162 183.468ZM77.6716 172.164L78.7516 168.6C79.6156 165.72 80.4436 162.804 81.1996 159.78H81.3436C82.1716 162.768 82.9636 165.72 83.8636 168.6L84.9076 172.164H77.6716ZM88.1476 183H92.5756L83.7916 156.504H78.9676L70.1836 183H74.4316L76.6996 175.44H85.9156L88.1476 183ZM103.774 183.468C106.042 183.468 108.382 182.64 110.182 181.02L108.49 178.284C107.302 179.292 105.826 180.084 104.17 180.084C100.858 180.084 98.5901 177.312 98.5901 173.136C98.5901 168.924 100.966 166.116 104.278 166.116C105.646 166.116 106.762 166.692 107.842 167.664L109.894 164.964C108.454 163.704 106.618 162.696 104.098 162.696C98.8781 162.696 94.3061 166.512 94.3061 173.136C94.3061 179.688 98.4101 183.468 103.774 183.468ZM121.423 183.468C123.691 183.468 126.031 182.64 127.831 181.02L126.139 178.284C124.951 179.292 123.475 180.084 121.819 180.084C118.507 180.084 116.239 177.312 116.239 173.136C116.239 168.924 118.615 166.116 121.927 166.116C123.295 166.116 124.411 166.692 125.491 167.664L127.543 164.964C126.103 163.704 124.267 162.696 121.747 162.696C116.527 162.696 111.955 166.512 111.955 173.136C111.955 179.688 116.059 183.468 121.423 183.468ZM139.251 183.468C141.843 183.468 144.111 182.604 145.947 181.38L144.507 178.752C143.067 179.688 141.555 180.228 139.791 180.228C136.371 180.228 133.995 177.96 133.671 174.18H146.523C146.631 173.712 146.703 172.884 146.703 172.092C146.703 166.476 143.895 162.696 138.639 162.696C133.995 162.696 129.603 166.692 129.603 173.136C129.603 179.652 133.887 183.468 139.251 183.468ZM133.635 171.336C134.031 167.844 136.227 165.936 138.711 165.936C141.591 165.936 143.139 167.916 143.139 171.336H133.635ZM151.362 191.028H155.466V184.62L155.358 181.236C157.05 182.676 158.814 183.468 160.578 183.468C165.042 183.468 169.11 179.58 169.11 172.776C169.11 166.692 166.302 162.696 161.262 162.696C159.066 162.696 156.906 163.92 155.178 165.36H155.07L154.746 163.2H151.362V191.028ZM159.786 180.048C158.562 180.048 157.014 179.58 155.466 178.248V168.564C157.158 166.944 158.634 166.152 160.182 166.152C163.494 166.152 164.826 168.708 164.826 172.848C164.826 177.492 162.666 180.048 159.786 180.048ZM179.855 183.468C181.295 183.468 182.627 183.108 183.743 182.748L182.987 179.688C182.411 179.94 181.547 180.156 180.863 180.156C178.811 180.156 177.983 178.932 177.983 176.556V166.512H183.131V163.2H177.983V157.728H174.491L174.023 163.2L170.963 163.416V166.512H173.843V176.52C173.843 180.696 175.391 183.468 179.855 183.468ZM191.269 183.468C193.645 183.468 195.769 182.28 197.569 180.732H197.677L198.037 183H201.421V171.084C201.421 165.828 199.153 162.696 194.221 162.696C191.053 162.696 188.281 163.992 186.229 165.288L187.777 168.096C189.469 167.016 191.413 166.08 193.501 166.08C196.417 166.08 197.245 168.096 197.281 170.4C189.037 171.3 185.437 173.496 185.437 177.744C185.437 181.236 187.849 183.468 191.269 183.468ZM192.529 180.192C190.765 180.192 189.433 179.4 189.433 177.456C189.433 175.224 191.413 173.748 197.281 173.028V177.888C195.661 179.364 194.257 180.192 192.529 180.192ZM216.512 183.468C220.976 183.468 225.044 179.58 225.044 172.776C225.044 166.692 222.2 162.696 217.196 162.696C215.108 162.696 212.984 163.812 211.292 165.288L211.4 161.904V154.308H207.296V183H210.536L210.932 180.948H211.04C212.732 182.568 214.712 183.468 216.512 183.468ZM215.72 180.048C214.496 180.048 212.912 179.58 211.4 178.248V168.564C213.056 166.944 214.568 166.152 216.116 166.152C219.428 166.152 220.76 168.708 220.76 172.848C220.76 177.492 218.6 180.048 215.72 180.048ZM234.041 183.468C235.049 183.468 235.769 183.324 236.273 183.144L235.733 180.012C235.373 180.084 235.229 180.084 235.049 180.084C234.545 180.084 234.041 179.688 234.041 178.572V154.308H229.937V178.356C229.937 181.56 231.053 183.468 234.041 183.468ZM248.903 183.468C251.495 183.468 253.763 182.604 255.599 181.38L254.159 178.752C252.719 179.688 251.207 180.228 249.443 180.228C246.023 180.228 243.647 177.96 243.323 174.18H256.175C256.283 173.712 256.355 172.884 256.355 172.092C256.355 166.476 253.547 162.696 248.291 162.696C243.647 162.696 239.255 166.692 239.255 173.136C239.255 179.652 243.539 183.468 248.903 183.468ZM243.287 171.336C243.683 167.844 245.879 165.936 248.363 165.936C251.243 165.936 252.791 167.916 252.791 171.336H243.287Z" fill="#363636"/>
</svg>
