<?xml version="1.0" encoding="utf-8"?>
<!-- Generator: Adobe Illustrator 23.0.1, SVG Export Plug-In . SVG Version: 6.00 Build 0)  -->
<svg version="1.1" id="레이어_1" xmlns="http://www.w3.org/2000/svg" xmlns:xlink="http://www.w3.org/1999/xlink" x="0px"
	 y="0px" viewBox="0 0 401 176" style="enable-background:new 0 0 401 176;" xml:space="preserve">
<style type="text/css">
	.st0{fill:#1E1E1E;}
</style>
<title>Message-error</title>
<desc>Created with Sketch.</desc>
<g>
	<path class="st0" d="M7.6,147c-0.6,0-1.3,0-2.2,0H0.9v4h4.5v20H0.9v4h4.5h4.3h4.5v-4H9.8v-20h4.5v-4H9.8C8.9,147,8.2,147,7.6,147z"
		/>
	<path class="st0" d="M35.5,154.7c-1-0.8-2.5-1.2-4.4-1.2c-1.2,0-2.4,0.3-3.4,0.8c-1.1,0.5-2,1.2-2.7,2c-0.3,0.3-0.5,0.6-0.7,1V154
		h-4.1v21c0.8,0,1.5,0,2.1,0c0.5,0,1.2,0,2.1,0v-12.7c0-0.7,0.1-1.3,0.4-1.9c0.3-0.6,0.7-1.1,1.2-1.6c0.5-0.5,1.1-0.8,1.8-1.1
		c0.7-0.3,1.4-0.4,2.2-0.4c1.1-0.1,2,0.1,2.7,0.6c0.6,0.5,1.1,1.1,1.4,1.9c0.3,0.8,0.4,1.7,0.4,2.7V175h4.1v-12.8
		c0-1.6-0.2-3.1-0.6-4.4C37.2,156.5,36.5,155.5,35.5,154.7z"/>
	<polygon class="st0" points="50.6,148.6 46.5,148.6 46.5,154 42.1,154 42.1,158 46.5,158 46.5,175 50.6,175 50.6,158 55.5,158 
		55.5,154 50.6,154 	"/>
	<path class="st0" d="M73.3,154.8c-1.4-0.9-3-1.3-4.8-1.3c-1.4,0-2.8,0.3-4.1,0.8c-1.3,0.5-2.4,1.2-3.4,2.2c-1,1-1.8,2.1-2.3,3.5
		s-0.8,3-0.8,4.7c0,2.1,0.5,3.9,1.4,5.5c0.9,1.6,2.2,2.9,3.9,3.8c1.7,0.9,3.6,1.4,5.8,1.4c1.1,0,2.2-0.1,3.2-0.4
		c1-0.3,2-0.7,2.9-1.2c0.9-0.5,1.6-1,2.2-1.5h0l-2-3c-0.6,0.5-1.3,1-2.2,1.6c-0.9,0.5-2.1,0.8-3.6,0.8c-1.5,0-2.8-0.3-3.9-0.9
		c-1.1-0.6-2-1.4-2.6-2.5c-0.5-0.8-0.8-1.7-0.9-2.8h16.1l0-1.8c0-2-0.4-3.8-1.3-5.3C75.8,156.9,74.7,155.7,73.3,154.8z M65.1,158
		c1-0.5,2.1-0.7,3.4-0.7c0.9,0,1.7,0.2,2.5,0.6s1.4,0.9,1.9,1.6c0.5,0.7,0.8,1.5,0.9,2.4v0.3H62c0.1-0.8,0.4-1.4,0.7-2
		C63.3,159.2,64.1,158.5,65.1,158z"/>
	<path class="st0" d="M93,153.6c-1,0-1.9,0.2-2.9,0.7c-0.9,0.5-1.7,1.1-2.4,2c-0.4,0.5-0.8,1.1-1.1,1.7v-4h-4.2v21h4.2v-11.6
		c0-1.1,0.3-2.1,0.8-2.9c0.5-0.8,1.2-1.4,2.1-1.9c0.8-0.4,1.7-0.7,2.5-0.7c0.4,0,0.8,0,1.2,0.1c0.4,0.1,0.7,0.2,1,0.3l1.1-4.5
		c-0.2-0.1-0.6-0.2-1-0.3C93.9,153.6,93.5,153.6,93,153.6z"/>
	<path class="st0" d="M114,154.7c-1-0.8-2.5-1.2-4.4-1.2c-1.2,0-2.4,0.3-3.4,0.8c-1.1,0.5-2,1.2-2.7,2c-0.3,0.3-0.5,0.6-0.7,1V154
		h-4.1v21c0.8,0,1.5,0,2.1,0c0.5,0,1.2,0,2.1,0v-12.7c0-0.7,0.1-1.3,0.4-1.9c0.3-0.6,0.7-1.1,1.2-1.6c0.5-0.5,1.1-0.8,1.8-1.1
		c0.7-0.3,1.4-0.4,2.2-0.4c1.1-0.1,2,0.1,2.7,0.6c0.6,0.5,1.1,1.1,1.4,1.9c0.3,0.8,0.4,1.7,0.4,2.7V175h4.1v-12.8
		c0-1.6-0.2-3.1-0.6-4.4C115.7,156.5,115,155.5,114,154.7z"/>
	<path class="st0" d="M137.8,156.8c-0.3-0.3-0.6-0.7-0.9-1c-0.7-0.6-1.5-1.2-2.4-1.6c-0.9-0.4-2-0.6-3.2-0.6c-2,0-3.7,0.5-5.3,1.4
		c-1.5,0.9-2.8,2.2-3.6,3.8c-0.9,1.6-1.3,3.5-1.3,5.7s0.4,4,1.3,5.7s2,2.9,3.5,3.9c1.5,0.9,3.1,1.4,4.8,1.4c1.2,0,2.2-0.2,3.2-0.6
		c1-0.4,1.8-0.9,2.5-1.5c0.6-0.5,1.1-1,1.4-1.5v3.2h4.2v-21h-4.2V156.8z M134.9,170.7c-1,0.6-2.1,0.9-3.4,0.9
		c-1.2,0-2.3-0.3-3.3-0.9c-1-0.6-1.7-1.5-2.2-2.6c-0.5-1.1-0.8-2.3-0.8-3.7c0-1.4,0.3-2.6,0.8-3.6c0.5-1.1,1.3-1.9,2.2-2.5
		c1-0.6,2.1-0.9,3.3-0.9c1.3,0,2.4,0.3,3.4,0.9c1,0.6,1.7,1.5,2.2,2.5c0.5,1.1,0.8,2.3,0.8,3.6c0,1.4-0.3,2.6-0.8,3.7
		C136.6,169.2,135.9,170,134.9,170.7z"/>
	<rect x="147.7" y="145.4" class="st0" width="4.1" height="29.6"/>
	<path class="st0" d="M185.9,161.4c-0.9-0.6-1.9-1.2-3-1.6c-1.1-0.4-2.2-0.8-3.4-1c-1.1-0.2-2.2-0.5-3-0.9c-0.9-0.3-1.5-0.8-2-1.4
		s-0.7-1.3-0.7-2.2c0-0.8,0.2-1.5,0.7-2.1c0.5-0.6,1.1-1,1.9-1.3s1.7-0.5,2.7-0.5c1.5,0,2.7,0.4,3.8,1.1c1.1,0.7,2,1.7,2.7,2.9l3-3
		c-0.9-1.6-2.2-2.8-3.8-3.6c-1.6-0.9-3.5-1.3-5.7-1.3c-1.7,0-3.3,0.3-4.8,1c-1.5,0.6-2.6,1.5-3.5,2.7c-0.9,1.2-1.3,2.6-1.3,4.2
		c0,1.7,0.3,3.1,1,4.2c0.7,1.1,1.7,2.1,3,2.8c1.3,0.7,2.8,1.2,4.5,1.6c1.4,0.3,2.5,0.6,3.5,1c1,0.4,1.7,0.9,2.2,1.6
		c0.5,0.6,0.8,1.4,0.8,2.3c0,0.8-0.3,1.4-0.8,2c-0.5,0.6-1.2,1-2,1.3c-0.8,0.3-1.7,0.4-2.6,0.4c-1.9,0-3.4-0.4-4.6-1.3
		c-1.2-0.9-2.3-2.1-3.4-3.7l-3,3.4c1.3,1.9,2.9,3.3,4.7,4.2c1.8,0.9,3.7,1.3,5.9,1.3c2.1,0,3.9-0.4,5.4-1.1c1.5-0.7,2.7-1.7,3.5-3
		c0.8-1.3,1.2-2.8,1.2-4.6c0-1.1-0.3-2.1-0.8-3S186.8,162.1,185.9,161.4z"/>
	<path class="st0" d="M208.1,154.8c-1.4-0.9-3-1.3-4.8-1.3c-1.4,0-2.8,0.3-4.1,0.8c-1.3,0.5-2.4,1.2-3.4,2.2c-1,1-1.8,2.1-2.3,3.5
		s-0.8,3-0.8,4.7c0,2.1,0.5,3.9,1.4,5.5c0.9,1.6,2.2,2.9,3.9,3.8c1.7,0.9,3.6,1.4,5.8,1.4c1.1,0,2.2-0.1,3.2-0.4
		c1-0.3,2-0.7,2.9-1.2c0.9-0.5,1.6-1,2.2-1.5h0l-2-3c-0.6,0.5-1.3,1-2.2,1.6c-0.9,0.5-2.1,0.8-3.6,0.8s-2.8-0.3-3.9-0.9
		c-1.1-0.6-2-1.4-2.6-2.5c-0.5-0.8-0.8-1.7-0.9-2.8h16.1l0-1.8c0-2-0.4-3.8-1.3-5.3C210.7,156.9,209.5,155.7,208.1,154.8z
		 M199.9,158c1-0.5,2.1-0.7,3.4-0.7c0.9,0,1.7,0.2,2.5,0.6s1.4,0.9,1.9,1.6c0.5,0.7,0.8,1.5,0.9,2.4v0.3h-11.8
		c0.1-0.8,0.4-1.4,0.7-2C198.1,159.2,198.9,158.5,199.9,158z"/>
	<path class="st0" d="M227.9,153.6c-1,0-1.9,0.2-2.9,0.7c-0.9,0.5-1.7,1.1-2.4,2c-0.4,0.5-0.8,1.1-1.1,1.7v-4h-4.2v21h4.2v-11.6
		c0-1.1,0.3-2.1,0.8-2.9s1.2-1.4,2.1-1.9c0.8-0.4,1.7-0.7,2.5-0.7c0.4,0,0.8,0,1.2,0.1c0.4,0.1,0.7,0.2,1,0.3l1.1-4.5
		c-0.2-0.1-0.6-0.2-1-0.3C228.7,153.6,228.3,153.6,227.9,153.6z"/>
	<polygon class="st0" points="244,169 237.9,154 233.4,154 242.3,175 245.3,175 254.6,154 250.3,154 	"/>
	<path class="st0" d="M272,154.8c-1.4-0.9-3-1.3-4.8-1.3c-1.4,0-2.8,0.3-4.1,0.8c-1.3,0.5-2.4,1.2-3.4,2.2c-1,1-1.8,2.1-2.3,3.5
		c-0.6,1.4-0.8,3-0.8,4.7c0,2.1,0.5,3.9,1.4,5.5c0.9,1.6,2.2,2.9,3.9,3.8c1.7,0.9,3.6,1.4,5.8,1.4c1.1,0,2.2-0.1,3.2-0.4
		s2-0.7,2.9-1.2s1.6-1,2.2-1.5h0l-2-3c-0.6,0.5-1.3,1-2.2,1.6c-0.9,0.5-2.1,0.8-3.6,0.8c-1.5,0-2.8-0.3-3.9-0.9
		c-1.1-0.6-2-1.4-2.6-2.5c-0.5-0.8-0.8-1.7-0.9-2.8h16.1l0-1.8c0-2-0.4-3.8-1.3-5.3C274.6,156.9,273.4,155.7,272,154.8z M263.8,158
		c1-0.5,2.1-0.7,3.4-0.7c0.9,0,1.7,0.2,2.5,0.6s1.4,0.9,1.9,1.6c0.5,0.7,0.8,1.5,0.9,2.4v0.3h-11.8c0.1-0.8,0.4-1.4,0.7-2
		C262,159.2,262.8,158.5,263.8,158z"/>
	<path class="st0" d="M291.7,153.6c-1,0-1.9,0.2-2.9,0.7c-0.9,0.5-1.7,1.1-2.4,2c-0.4,0.5-0.8,1.1-1.1,1.7v-4h-4.2v21h4.2v-11.6
		c0-1.1,0.3-2.1,0.8-2.9c0.5-0.8,1.2-1.4,2.1-1.9c0.8-0.4,1.7-0.7,2.5-0.7c0.4,0,0.8,0,1.2,0.1c0.4,0.1,0.7,0.2,1,0.3l1.1-4.5
		c-0.2-0.1-0.6-0.2-1-0.3C292.6,153.6,292.2,153.6,291.7,153.6z"/>
	<path class="st0" d="M309.5,175h17.6c0-0.8,0-1.5,0-2.1c0-0.6,0-1.3,0-2.1h-13.3v-8.1H325v-4.2h-11.1v-7.4h13.3V147h-17.6V175z"/>
	<path class="st0" d="M343.6,153.6c-1,0-1.9,0.2-2.9,0.7c-0.9,0.5-1.7,1.1-2.4,2c-0.4,0.5-0.8,1.1-1.1,1.7v-4h-4.2v21h4.2v-11.6
		c0-1.1,0.3-2.1,0.8-2.9c0.5-0.8,1.2-1.4,2.1-1.9c0.8-0.4,1.7-0.7,2.5-0.7c0.4,0,0.8,0,1.2,0.1c0.4,0.1,0.7,0.2,1,0.3l1.1-4.5
		c-0.2-0.1-0.6-0.2-1-0.3C344.5,153.6,344.1,153.6,343.6,153.6z"/>
	<path class="st0" d="M359.7,153.6c-1,0-1.9,0.2-2.9,0.7c-0.9,0.5-1.7,1.1-2.4,2c-0.4,0.5-0.8,1.1-1.1,1.7v-4h-4.2v21h4.2v-11.6
		c0-1.1,0.3-2.1,0.8-2.9c0.5-0.8,1.2-1.4,2.1-1.9c0.8-0.4,1.7-0.7,2.5-0.7c0.4,0,0.8,0,1.2,0.1c0.4,0.1,0.7,0.2,1,0.3l1.1-4.5
		c-0.2-0.1-0.6-0.2-1-0.3C360.6,153.6,360.2,153.6,359.7,153.6z"/>
	<path class="st0" d="M379.3,155c-1.6-0.9-3.4-1.4-5.4-1.4s-3.8,0.5-5.4,1.4c-1.6,0.9-2.9,2.2-3.9,3.9c-0.9,1.6-1.4,3.5-1.4,5.7
		c0,2.1,0.5,4,1.4,5.7c0.9,1.6,2.2,2.9,3.9,3.9s3.4,1.4,5.4,1.4s3.8-0.5,5.4-1.4s2.9-2.2,3.8-3.9c0.9-1.6,1.4-3.5,1.4-5.7
		c0-2.1-0.5-4-1.4-5.7C382.2,157.2,380.9,155.9,379.3,155z M379.5,168.2c-0.6,1.1-1.4,1.9-2.3,2.5c-1,0.6-2.1,0.9-3.3,0.9
		s-2.3-0.3-3.3-0.9c-1-0.6-1.8-1.5-2.4-2.5s-0.8-2.3-0.8-3.7c0-1.4,0.2-2.7,0.8-3.7s1.4-1.9,2.4-2.5c1-0.6,2.1-0.9,3.3-0.9
		s2.3,0.3,3.3,0.9c1,0.6,1.8,1.4,2.3,2.5c0.6,1.1,0.8,2.3,0.8,3.7C380.4,165.9,380.1,167.1,379.5,168.2z"/>
	<path class="st0" d="M400.9,153.7c-0.4-0.1-0.8-0.1-1.3-0.1c-1,0-1.9,0.2-2.9,0.7c-0.9,0.5-1.7,1.1-2.4,2c-0.4,0.5-0.8,1.1-1.1,1.7
		v-4H389v21h4.2v-11.6c0-1.1,0.3-2.1,0.8-2.9c0.5-0.8,1.2-1.4,2.1-1.9c0.8-0.4,1.7-0.7,2.5-0.7c0.4,0,0.8,0,1.2,0.1
		c0.4,0.1,0.7,0.2,1,0.3l1.1-4.5C401.6,153.8,401.3,153.7,400.9,153.7z"/>
	<path class="st0" d="M133.4,96c3.6-5.9,5.4-12.6,5.4-20.1c0-7.6-1.7-14.1-5-19.6c-3.3-5.5-7.7-9.7-13-12.7
		c-5.4-3-11.3-4.5-17.8-4.5c-3,0-6.1,0.3-9.3,1c-3.2,0.7-6.1,1.5-8.6,2.6c0,0,0,0,0,0L88.7,18h46.7V2H74.9l-6.6,47.5l9.1,12.3
		c2.1-1.1,5-2.5,8.7-4.2c3.7-1.7,8.2-2.6,13.7-2.6c4.1,0,7.8,1,11.1,2.9s6,4.6,8,7.9c2,3.4,3,7.2,3,11.6c0,3.9-1,7.6-3,10.9
		c-2,3.3-4.8,5.9-8.3,7.9c-3.5,2-7.5,3-12,3c-5.4,0-10.1-1.3-13.8-4c-3.8-2.7-7.6-6.1-11.4-10.4l-9.6,10.7c3.5,5.5,8.2,10.2,14,13.9
		c5.8,3.7,12.8,5.6,20.9,5.6c7.6,0,14.4-1.7,20.4-5.1C125,106.6,129.8,101.9,133.4,96z"/>
	<path class="st0" d="M233.4,28.2c-3.1-8.6-7.8-15.4-13.8-20.4c-6.1-5-13.7-7.4-22.7-7.4c-9,0-16.5,2.5-22.6,7.4
		c-6.1,5-10.7,11.8-13.8,20.4c-3.1,8.6-4.6,18.6-4.6,29.8s1.5,21.1,4.6,29.8c3.1,8.6,7.7,15.4,13.8,20.4c6.1,5,13.7,7.4,22.6,7.4
		c9.1,0,16.6-2.5,22.7-7.4c6.1-5,10.7-11.8,13.8-20.4c3.1-8.6,4.7-18.6,4.7-29.8S236.5,36.9,233.4,28.2z M214.8,89
		c-4.3,7.3-10.3,10.9-18,10.9c-7.7,0-13.7-3.6-18-10.9c-4.3-7.3-6.5-17.6-6.5-31s2.2-23.8,6.5-31c4.3-7.3,10.3-10.9,18-10.9
		c7.7,0,13.7,3.6,18,10.9c4.3,7.3,6.5,17.6,6.5,31S219.1,81.8,214.8,89z"/>
	<path class="st0" d="M330.5,28.2c-3.1-8.6-7.8-15.4-13.8-20.4c-6.1-5-13.7-7.4-22.7-7.4c-9,0-16.5,2.5-22.6,7.4
		c-6.1,5-10.7,11.8-13.8,20.4c-3.1,8.6-4.6,18.6-4.6,29.8s1.5,21.1,4.6,29.8c3.1,8.6,7.7,15.4,13.8,20.4c6.1,5,13.7,7.4,22.6,7.4
		c9.1,0,16.6-2.5,22.7-7.4c6.1-5,10.7-11.8,13.8-20.4c3.1-8.6,4.7-18.6,4.7-29.8S333.6,36.9,330.5,28.2z M311.9,89
		c-4.3,7.3-10.3,10.9-18,10.9c-7.7,0-13.7-3.6-18-10.9c-4.3-7.3-6.5-17.6-6.5-31s2.2-23.8,6.5-31c4.3-7.3,10.3-10.9,18-10.9
		c7.7,0,13.7,3.6,18,10.9c4.3,7.3,6.5,17.6,6.5,31S316.2,81.8,311.9,89z"/>
</g>
</svg>
