<svg xmlns="http://www.w3.org/2000/svg" xmlns:xlink="http://www.w3.org/1999/xlink" width="466" height="144" viewBox="0 0 466 144">
    <defs>
        <path id="a" d="M0 .42h212.07v80.728H0z"/>
    </defs>
    <g fill="none" fill-rule="evenodd">
        <path fill="#EA601B" d="M151.934 106.868l1.923 5.535c.975 2.804 3.935 4.324 6.612 3.393l12.025-4.18-2.282-6.247s-12.566 7.716-18.278 1.5M170.5 104.186l1.043 3.148c1.796 5.426 7.442 8.295 12.61 6.41l25.81-9.418-4.178-12.621-35.285 12.48zM141.127 105.054l7.671-2.666 3.275 9.423-7.671 2.666a4.987 4.987 0 1 1-3.275-9.423"/>
        <path fill="#ED9B24" d="M347.75 49.943l-10.753 3.623-2.723-8.083 10.752-3.622a4.264 4.264 0 1 1 2.724 8.082M337.298 53.62l-16.427 5.87 1.51 11.155 12.59-4.865c3.145-1.215 5.2-5.86 4.59-10.372-.183-1.344-1.217-2.162-2.263-1.788"/>
        <path fill="#ED9B24" d="M312.907 64.765l2.58 7.657c.646 1.917 2.765 2.933 4.733 2.27l.061-.02c1.969-.663 3.04-2.755 2.394-4.671l-2.559-7.599"/>
        <path fill="#ED9B24" d="M318.615 72.7L284.26 84.485c-1.91.643-3.856-.014-4.346-1.47l-1.594-4.73c-.49-1.454.661-3.156 2.572-3.8L313 63.669M277.782 67.883l17.666-5.953-1.08-3.206-17.667 5.952z"/>
        <path fill="#1E1F1E" d="M347.224 45.7l-9.613 3.24-2.876-8.538 7.956-2.68c1.491-.502 2.97-1.024 4.482-.527.183.52.678.93 1.367.75 1.665 1.332 2.012 3.546 1.22 5.33-.229.197-.36.459-.404.734a4.572 4.572 0 0 1-2.132 1.692m-12.257 17.357c-3.9 1.583-8.042 2.713-12.034 4.055l-2.869-8.517-8-23.747-.038-.11c3.76-1.267 7.511-2.56 11.28-3.8 2.704-.89 5.435-.221 6.55 2.665.45 1.164.802 2.376 1.2 3.558l4.928 14.624c1.232 3.66 4.125 9.185-1.017 11.272M319.91 73.566c-1.204.318-2.014.015-2.603-.59-.067-.37-.282-.702-.61-.857-.494-.917-.78-2.073-1.1-3.019l-3.128-9.286-6.072-18.022-2.304-6.838c-.01-.031-.026-.056-.038-.085a5.109 5.109 0 0 1-.077-.515 1.31 1.31 0 0 0 .047-.854c.022-.12.035-.244.077-.354.944-2.5 4.086-1.952 4.985.177.267.629.443 1.313.661 1.96l6.82 20.243 3.745 11.115c.683 2.026 2.706 5.878-.403 6.925m-33.219 8.37l-3.113 1.048-4.787-14.211 16.967-5.717c.572-.193 1.026-.81.815-1.436-.713-2.119-1.427-4.237-2.142-6.356-.192-.572-.81-1.027-1.436-.816l-17.09 5.759-3.541-10.51-1.299-3.853 28.05-9.451 2.705-.91c.008.03.01.06.022.091l.261.777 3.591 10.658 5.985 17.766 1.837 5.45c.266.789.506 1.591.799 2.371l.012.028-27.636 9.312m-22.256.883c-2.02.461-2.64-1.893-.935-2.828.39-.214.91-.306 1.33-.447l5.345-1.801 7.61-2.563.95 2.822-14.3 4.817m12.682-20.56l15.456-5.207 1.397 4.146-15.456 5.208c-.465-1.383-.93-2.765-1.397-4.148m-20.382-2.292c-2.019.46-2.64-1.893-.935-2.828.39-.214.911-.306 1.33-.447l5.345-1.801 7.609-2.564.95 2.822c-4.766 1.607-9.532 3.212-14.299 4.818m183.32 12.31C435.8 86.114 454.277 91.697 464.34 93.38c1.47.246 2.103-2.003.622-2.252-6.05-1.01-12.836-2.866-17.966-6.348-2.298-1.56-4.332-3.806-4.96-6.58-.72-3.168.367-6.232 1.95-8.95 3.066-5.27 6.845-9.848 8.915-15.677 1.963-5.53 2.348-11.609.285-17.171-3.905-10.533-14.314-16.806-24.873-19.076-12.724-2.734-25.602-1.164-37.911 2.67-7.235 2.254-14.389 4.943-21.407 7.793-6.652 2.7-13.192 5.707-20.122 7.633a6.731 6.731 0 0 0-4.48-.668c-3.552.702-7.075 2.241-10.52 3.464l-.179-.532c-1.447-4.295-2.764-9.83-8.532-9.553-2.388.116-4.938 1.383-7.16 2.132-2.261.76-4.52 1.522-6.78 2.284h-.001c-.764-1.752-1.881-3.214-4.193-3.406-2.838-.235-4.64 1.57-5.129 3.85l-28.466 9.592-4.155 1.4c-.572.192-1.027.81-.816 1.435l1.51 4.481-12.162 4.099c-1.58.532-3.721.919-4.73 2.373-2.068 2.981.668 6.327 3.879 5.904.124.001.255-.013.397-.06.092-.021.176-.05.252-.085l14.805-4.988c1.752 5.204 3.506 10.407 5.26 15.61l-12.162 4.099c-1.582.532-3.723.92-4.731 2.373-2.068 2.981.668 6.328 3.878 5.905.125.001.256-.013.398-.06.092-.022.175-.05.252-.086l14.804-4.988 1.608 4.773c.193.573.81 1.027 1.437.816l29.217-9.843c1.088-.368 2.177-.734 3.266-1.1 1.185 1.137 2.85 1.613 4.618 1.234.087-.01.177-.028.272-.06.098-.026.185-.062.264-.103 2.34-.93 3.652-3.389 3.041-5.871-.043-.175-.102-.347-.158-.52 3.955-1.329 7.95-2.57 11.87-4 3.214-1.173 5.331-4.287 4.745-7.762-.235-1.397-.837-2.775-1.286-4.11l-.764-2.264 9.602-3.235c1.573-.615 2.842-1.662 3.66-2.964 13.385-5.464 26.679-11.504 40.43-15.986 12.946-4.22 27.225-6.567 40.292-1.493 5.64 2.19 11.316 5.853 12.653 12.177 1.579 7.46-2.35 13.966-6.385 19.84-3.227 4.698-6.144 9.696-6.417 15.535-.227 4.838 1.256 9.76 4.3 13.54 6.415 7.97 17.725 9.935 27.203 11.692 1.469.272 2.098-1.978.62-2.252-8.758-1.623-19.197-3.282-25.469-10.258-3.637-4.045-5.052-9.895-4.024-15.202 1.219-6.303 5.586-11.12 8.847-16.428 3.32-5.405 5.199-12.368 3.173-18.585-1.711-5.248-6.186-8.845-11.039-11.103-12.286-5.718-26.05-4.848-38.832-1.376-7.696 2.09-15.09 5.091-22.476 8.066-7.31 2.943-14.594 5.951-21.891 8.927a6.845 6.845 0 0 0-1.445-4.846c5.445-1.648 10.673-3.912 15.922-6.104 6.1-2.545 12.31-4.873 18.548-7.055 12.645-4.421 25.692-7.203 39.103-5.074 11.293 1.793 23.473 7.802 26.85 19.637 1.768 6.195.298 12.638-2.519 18.279-2.622 5.25-7.153 9.698-8.892 15.355"/>
        <path fill="#1E1F1E" d="M292.242 41.425l-15.086 5.083c-1.417.478-.81 2.733.62 2.252l15.087-5.083c1.417-.477.809-2.734-.621-2.252M297.625 39.697l-2.33.746c-1.425.456-.816 2.711.621 2.252.777-.25 1.554-.498 2.33-.746 1.426-.456.816-2.712-.62-2.252M230.044 1.124l-1.66 26.188c-.095 1.5 2.24 1.494 2.335 0l1.66-26.188c.095-1.501-2.24-1.496-2.335 0M253.967 115.667l10.064 22.757c.606 1.372 2.62.185 2.017-1.178l-10.064-22.758c-.606-1.371-2.62-.184-2.017 1.179M194.227 15.089l14.91 18.545c.943 1.171 2.586-.49 1.652-1.651l-14.91-18.545c-.942-1.171-2.585.49-1.652 1.65M270.953 101.866l19.031 9.859c1.333.69 2.515-1.324 1.179-2.017L272.13 99.85c-1.332-.692-2.515 1.323-1.178 2.016M234.298 142.335l.99-22.413c.067-1.503-2.268-1.499-2.335 0l-.99 22.413c-.067 1.502 2.268 1.499 2.335 0M204.047 135.844c3.8-5.945 7.602-11.89 11.403-17.834.812-1.27-1.208-2.443-2.016-1.179l-11.403 17.835c-.812 1.27 1.208 2.441 2.016 1.178M255.055 34.1c4.69-5.157 9.38-10.314 14.072-15.47 1.009-1.11-.638-2.765-1.652-1.651l-14.071 15.47c-1.01 1.11.637 2.766 1.65 1.651"/>
        <g transform="translate(0 36.044)">
            <mask id="b" fill="#fff">
                <use xlink:href="#a"/>
            </mask>
            <path fill="#1E1F1E" d="M208.588 70.464c-2.708 1.632-3.742-.517-4.46-2.529-.104-.298-.209-.597-.312-.896l-.001-.004-2.959-8.511-8.038-23.129-1.431-4.118-.001-.001c-.56-1.772.075-3.005 1.901-3.64 2.843-.738 3.365 2.823 4.038 4.76l3.46 9.955 7.604 21.881c.622 1.788 2.38 4.918.199 6.232m-28.704 6.623c-4.155.376-6.645-2.604-7.87-6.13l-6.721-19.336c-.894-2.575-2.046-5.094-1.078-7.86 1.176-3.36 4.144-4.307 7.133-5.346l17.884-6.216c.068.184.135.366.198.547l1.132 3.257 10.281 29.582.582 1.672c.259.747.498 1.538.786 2.295l-15.595 5.42c-2.107.732-4.479 1.91-6.732 2.115m-18.235 1.02c-2.328.81-4.81 1.231-6.33-1.349-.57-.967-.844-2.17-1.208-3.218l-4.528-13.03c-1.152-3.313-3.226-7.657 1.391-9.388 3.53-1.322 7.122-2.492 10.687-3.718.116.92.34 1.846.659 2.76l7.038 20.253c.535 1.54 1.057 3.035 1.832 4.375l-9.541 3.316m-17.962-4.329c-2.022.684-4.124.605-5.6-1.16-2.023-2.42-.981-6.045 1.91-7.197l7.765-2.699 2.99 8.604c-2.353.822-4.704 1.654-7.065 2.452m67.921-7.386l-7.704-22.166c-1.505-4.33-3.01-8.658-4.513-12.988-1.083-3.114-2.286-6.791-6.41-5.918a1.23 1.23 0 0 0-.314.063 1.306 1.306 0 0 0-.256.096c-2.028.772-3.69 2.23-3.689 4.43l-17.19 5.974c-2.706.94-5.619 1.658-7.604 3.878a9.033 9.033 0 0 0-2.3 5.19c-3.758 1.303-7.531 2.573-11.274 3.918-2.486.895-4.358 2.693-4.675 5.432-.2 1.734.408 3.249.96 4.841.157.446.312.894.467 1.34l-7.73 2.687c-2.354.939-4.088 2.854-4.557 5.225-6.403 2.244-13.14 3.529-19.938 3.492-6.364-.035-13.947-.923-18.912-5.32-5.922-5.247-4.328-12.513-1.238-18.873 2.918-6.009 6.157-12.062 7.216-18.74.956-6.023-.125-11.947-4.098-16.7-4.18-5-10.739-8.2-16.876-10.053-12.87-3.883-26.332-.91-38.464 4.038-7.067 2.884-13.877 6.368-20.637 9.902C14.913 19.78 8.353 24.417.812 26.81c-1.427.453-.817 2.708.62 2.252 6.334-2.009 11.957-5.552 17.711-8.781a257.964 257.964 0 0 1 18.684-9.48C50.183 5.136 64.094.594 77.757 3.762c6.648 1.541 13.993 4.783 18.44 10.144 4.681 5.641 4.361 13.012 2.232 19.645-3.443 10.72-15.418 24.647-4.11 34.666 5.143 4.558 12.554 5.769 19.204 5.98 7.209.228 14.448-1.022 21.27-3.334a6.829 6.829 0 0 0 1.494 3.218 57.845 57.845 0 0 1-20.48 4.548c-6.47.227-13.571-.247-19.448-3.204-5.124-2.579-9.384-6.975-10.722-12.67-1.638-6.967 1.367-14.363 4.324-20.555 2.65-5.552 6.087-11.503 5.364-17.89-.677-5.986-5.235-10.356-10.464-12.808-12.69-5.948-26.673-3.675-39.28 1.265-15.061 5.902-28.575 15.332-43.95 20.456-1.42.473-.812 2.73.62 2.252C16.005 30.891 28.284 22.87 41.48 17c12.842-5.714 27.696-9.769 41.242-3.916 6.532 2.822 11.508 8.156 10.098 15.71-1.252 6.71-5.421 12.613-7.738 18.978-2.136 5.865-3.238 12.417-.807 18.365 2.006 4.907 6 8.773 10.669 11.182 6.204 3.203 13.638 3.856 20.519 3.655 7.9-.23 15.635-2.036 22.856-5.23a6.805 6.805 0 0 0 2.469.786c2.12.243 4.136-.714 6.094-1.394 1.58-.55 3.16-1.1 4.74-1.648.424 1.23.798 2.496 1.313 3.691 1.33 3.08 4.651 4.642 7.858 3.694 4.006-1.185 7.932-2.752 11.878-4.127.374.376.777.738 1.252 1.061 3.177 2.167 6.619 1.743 10.016.562l19.37-6.732c.612.798 1.435 1.401 2.644 1.625 2.364.439 5.26-1.096 5.95-3.436.35-1.194.094-2.31-.296-3.433" mask="url(#b)"/>
        </g>
        <path fill="#1E1F1E" d="M186.542 71.941l-11.696 4.01c-3.293 1.13-8.182 2.015-7.479 6.652.225 1.481 2.476.852 2.252-.62-.14-.924.417-1.437 1.01-2.004.07-.067.33-.21.414-.264.29-.114.598-.2.889-.3l5.623-1.928 9.607-3.294c1.414-.484.807-2.74-.62-2.252M193.779 46.78l-20.968-7.736c-1.412-.52-2.021 1.736-.62 2.253l20.968 7.735c1.412.52 2.02-1.735.62-2.252"/>
    </g>
</svg>
