<svg xmlns="http://www.w3.org/2000/svg" width="16" height="16" viewBox="0 0 16 16">
    <path fill="#6C6C6C" fill-rule="evenodd" d="M15.667 13.33l-.021-.013-3.257-2.304c-.266-.177-.505-.245-.711-.214a.65.65 0 0 0-.413.273l-.915.915c-.27.27-.63.426-.987.426-1.176.032-2.55-.465-4.004-1.785-1.296-1.447-1.804-2.837-1.772-3.987 0-.375.15-.716.426-.992l.957-.945c.071-.036.191-.199.232-.387.047-.206-.019-.438-.213-.702L2.669.332C2.593.176 2.44.028 2.238.004c-.21-.03-.46.097-.74.396C.993.862.433 1.708.157 2.895c-.446 1.922.031 4.181 1.764 6.776.435.653 1.256 1.67 2.007 2.42a18.375 18.375 0 0 0 2.165 1.83C8.151 15.359 10.035 16 11.725 16c1.114 0 2.08-.281 2.9-.75.452-.259.74-.493.987-.74.3-.265.415-.493.383-.732a.627.627 0 0 0-.328-.448z"/>
</svg>
