<svg width="311" height="146" viewBox="0 0 311 146" fill="none" xmlns="http://www.w3.org/2000/svg">
  <path d="M199.611 131.589L198.206 126.503L193.14 108.166L190.324 97.9718L184.894 78.3175L182.077 68.1221L169.532 22.7164L164.792 5.55783C164.048 2.86448 161.598 1 158.805 1H152.049C149.255 1 146.804 2.86448 146.061 5.55783L128.776 68.1221L125.959 78.3175L120.529 97.9718L117.712 108.166L115.802 115.081L112.647 126.503L111.227 131.643" stroke="#1E1F1E" stroke-width="2" stroke-linecap="round" stroke-linejoin="round"/>
  <path fill-rule="evenodd" clip-rule="evenodd" d="M220.651 144.247H90.2019V135.602C90.2019 133.385 91.9981 131.588 94.2158 131.588H216.637C218.854 131.588 220.651 133.385 220.651 135.602V144.247Z" stroke="#1E1F1E" stroke-width="2" stroke-linecap="round" stroke-linejoin="round"/>
  <path fill-rule="evenodd" clip-rule="evenodd" d="M188.742 79.4689H138.253C136.75 79.4689 135.65 78.052 136.023 76.5959L138.932 65.2495C139.193 64.231 140.11 63.5195 141.162 63.5195H185.955C187.015 63.5195 187.937 64.243 188.19 65.2726L190.977 76.618C191.333 78.0691 190.235 79.4689 188.742 79.4689Z" fill="#ED9B24"/>
  <path fill-rule="evenodd" clip-rule="evenodd" d="M198.28 113.921H128.685C127.198 113.921 126.101 112.531 126.447 111.084L129.434 98.5864C129.682 97.5508 130.609 96.8203 131.673 96.8203H195.291C196.357 96.8203 197.282 97.5508 197.53 98.5864L200.518 111.084C200.864 112.531 199.767 113.921 198.28 113.921Z" fill="#ED9B24"/>
  <path fill-rule="evenodd" clip-rule="evenodd" d="M183.622 73.7144H127.231L131.319 58.916H179.704L183.622 73.7144Z" stroke="#1E1F1E" stroke-width="2" stroke-linecap="round" stroke-linejoin="round"/>
  <path fill-rule="evenodd" clip-rule="evenodd" d="M193.14 108.168H117.712L121.801 93.3691H189.052L193.14 108.168Z" stroke="#1E1F1E" stroke-width="2" stroke-linecap="round" stroke-linejoin="round"/>
  <path d="M293.122 144.498H309.922" stroke="#1E1F1E" stroke-width="2" stroke-linecap="round" stroke-linejoin="round"/>
  <path d="M277.342 144.498H284.653" stroke="#1E1F1E" stroke-width="2" stroke-linecap="round" stroke-linejoin="round"/>
  <path d="M33.8464 144.498H268.89" stroke="#1E1F1E" stroke-width="2" stroke-linecap="round" stroke-linejoin="round"/>
  <path d="M1 144.498H25.7178" stroke="#1E1F1E" stroke-width="2" stroke-linecap="round" stroke-linejoin="round"/>
</svg>
