<svg xmlns="http://www.w3.org/2000/svg" width="141" height="24" viewBox="0 0 141 24">
    <g fill="none" fill-rule="evenodd">
        <path fill="#161616" d="M137 16.819c0 2.434-2.018 3.181-4.64 3.181-1.204 0-2.814-.236-3.632-.406l.344-2.177c.882.235 2.406.512 3.588.512 1.462 0 1.72-.299 1.72-1.046 0-.683-.043-.877-1.72-1.302-3.416-.897-3.889-1.58-3.889-3.48 0-2.093 1.203-3.032 4.062-3.032.645 0 2.836.128 3.565.256l-.235 2.114c-1.419-.256-2.385-.342-3.31-.342-1.246 0-1.46.214-1.46.747 0 .555.171.769 1.44 1.09 4.017 1.045 4.167 1.729 4.167 3.885zm-9.797-7.58l-.15 2.456c-.73-.17-2.235-.363-3.18-.363-1.525 0-1.999.64-1.999 3.202 0 2.755.625 3.224 2.107 3.224.71 0 1.998-.128 2.92-.364l.237 2.35c-.88.17-1.976.256-3.266.256-3.565 0-4.768-1.921-4.768-5.466 0-3.629 1.417-5.465 4.768-5.465 1.268 0 2.278.043 3.33.17zm-12.806 5.295c0-2.647-.494-3.223-2.147-3.223-1.656 0-2.149.576-2.149 3.223 0 2.648.493 3.224 2.149 3.224 1.653 0 2.147-.576 2.147-3.224zm2.773 0c0 3.8-1.505 5.466-4.92 5.466-3.417 0-4.92-1.666-4.92-5.466 0-3.8 1.503-5.465 4.92-5.465 3.415 0 4.92 1.665 4.92 5.465zm-14.76-2.284c0-4.27-.215-5.103-3.267-5.103H97.08v10.206h1.997c3.181 0 3.332-1.175 3.332-5.103zm2.9.021c0 4.675-.215 7.473-6.188 7.473h-4.834V4.756h4.834c5.199 0 6.187 2.37 6.187 7.515zm-13.6 7.473h-2.708v-7.131c0-.875-.386-1.174-.946-1.174-.536 0-1.16.299-1.76.726v7.579h-2.709v-7.131c0-.875-.385-1.174-.945-1.174-.536 0-1.16.277-1.762.683v7.622h-2.706V9.325h2.362l.301.875c.882-.597 1.914-1.131 3.094-1.131 1.011 0 1.719.49 2.084 1.345.946-.683 2.041-1.345 3.33-1.345 1.526 0 2.365 1.153 2.365 2.946v7.729zm-18.606-2.649v-2.027c-2.729-.085-3.74.022-3.74 1.665 0 .748.3 1.324 1.354 1.324.966 0 1.761-.448 2.386-.962zm2.62 2.649h-2.277l-.343-.982c-1.119.768-2.172 1.195-3.267 1.195-1.655 0-2.964-.47-2.964-2.946 0-3.074 1.31-3.843 6.23-3.779v-.576c0-.726.021-1.41-1.482-1.41-1.267 0-2.73.32-3.868.77V9.687c1.16-.363 2.944-.62 3.931-.62 2.515 0 4.04.79 4.04 3.246v7.43zm-13.15-6.149c0-1.943-.343-2.583-1.654-2.583-1.46 0-1.826.64-1.89 2.583h3.545zm2.643 1.836H59.03c.085 1.963.58 2.391 2.213 2.391 1.117 0 2.728-.192 3.824-.49v2.22c-1.139.277-3.158.448-4.147.448-3.48 0-4.555-1.345-4.555-5.466 0-3.586.732-5.465 4.555-5.465 3.48 0 4.297 1.26 4.297 5.465v.897zM54.84 11.674c-.215-.043-.408-.064-.967-.064-1.074 0-1.955.49-2.6.939v7.195h-2.706V9.325h2.364l.342.982c.666-.598 1.72-1.302 3.202-1.302.108 0 .237.021.365.021v2.648zm-8.422 7.984c-.967.171-1.976.278-2.965.278-2.341 0-2.665-1.153-2.665-3.267v-5.188h-1.332V9.325h1.332V6.528h2.709v2.797h2.857v2.156h-2.857v4.89c0 1.066.106 1.323.922 1.323.496 0 1.182-.17 1.999-.49v2.454zm-7.82-4.355c0 3.437-1.956 4.697-5.652 4.697-1.697 0-3.244-.236-4.296-.448l.193-2.797c.988.34 2.879.79 4.255.79 1.803 0 2.555-.385 2.555-1.922 0-3.672-7.153-.94-7.153-6.81 0-2.37 1.138-4.313 5.284-4.313 1.333 0 3.008.17 4.17.363l-.174 2.754c-1.03-.342-2.578-.683-3.996-.683-1.697 0-2.32.448-2.32 1.644 0 2.903 7.134.897 7.134 6.725z"/>
        <g transform="translate(2.5 2)">
            <rect width="20" height="20" fill="#FF6100" rx="2"/>
            <path fill="#FFF" d="M16.194 11.907c.11 0 .196.094.196.21v.812c0 1.85-1.406 3.352-3.141 3.352H4.196c-.108 0-.196-.094-.196-.21l1.253-1.676h7.8c.867 0 1.57-.75 1.57-1.676v-.603c0-.115.089-.21.196-.21h1.375zM14.08 8.372v1.86c0 .925-.704 1.675-1.571 1.675h-6.2v-1.858c0-.926.704-1.677 1.571-1.677h6.2zM16.194 4c.108 0 .196.093.196.21l-1.096 1.675H7.338c-.868 0-1.57.75-1.57 1.676v.603c0 .115-.089.21-.197.21H4.196c-.11 0-.196-.095-.196-.21v-.813C4 5.501 5.406 4 7.142 4h9.052z"/>
        </g>
    </g>
</svg>
