<svg width="1834" height="443" viewBox="0 0 1834 443" xmlns="http://www.w3.org/2000/svg" xmlns:xlink="http://www.w3.org/1999/xlink">
    <defs>
        <path id="xz7001x59a" d="M0 0h264v247H0z"/>
        <path id="788f60fo9c" d="M0 0h264v247H0z"/>
        <path id="s3dds13dqe" d="M0 0h149v162H0z"/>
    </defs>
    <g fill="none" fill-rule="evenodd">
        <g transform="translate(.362 2.033)">
            <mask id="4smd53u6mb" fill="#fff">
                <use xlink:href="#xz7001x59a"/>
            </mask>
            <path d="M246.002 61.19c-10.479-15.593-25.144-27.88-40.332-38.926-11.828-8.602-24.431-16.736-38.659-20.103C156.506-.325 145.576-.1 134.786.138c-32.041.709-65.548 1.798-93.52 17.458A98.966 98.966 0 0 0 9.3 46.186C5.04 52.128 1.377 58.735.323 65.975c-1.333 9.157 1.633 18.426 5.689 26.742 16.948 34.755 30.342 62.692 63.236 82.972 30.269 18.66 60.537 37.321 90.806 55.983 24.744 15.256 60.825 26.875 78.517-7.774 10.017-19.619 18.462-42.916 22.633-66.824 5.86-33.585 3.287-68.378-15.202-95.885z" fill="#F79F1A" mask="url(#4smd53u6mb)"/>
        </g>
        <g transform="translate(1244.362 195.033)">
            <mask id="u9oye1xnxd" fill="#fff">
                <use xlink:href="#788f60fo9c"/>
            </mask>
            <path d="M246.002 61.19c-10.479-15.593-25.144-27.88-40.332-38.926-11.828-8.602-24.431-16.736-38.659-20.103C156.506-.325 145.576-.1 134.786.138c-32.041.709-65.548 1.798-93.52 17.458A98.966 98.966 0 0 0 9.3 46.186C5.04 52.128 1.377 58.735.323 65.975c-1.333 9.157 1.633 18.426 5.689 26.742 16.948 34.755 30.342 62.692 63.236 82.972 30.269 18.66 60.537 37.321 90.806 55.983 24.744 15.256 60.825 26.875 78.517-7.774 10.017-19.619 18.462-42.916 22.633-66.824 5.86-33.585 3.287-68.378-15.202-95.885z" fill="#F79F1A" mask="url(#u9oye1xnxd)"/>
        </g>
        <g opacity=".1" transform="translate(432.422 84.385)">
            <mask id="9t8v0lffvf" fill="#fff">
                <use xlink:href="#s3dds13dqe"/>
            </mask>
            <path d="M140.806 117.886c10.469-17.83 10.453-40.731 2.527-59.84-7.925-19.107-23.046-34.597-40.466-45.655C89.226 3.732 72.83-2.577 57.1 1.04 45.006 3.82 34.875 12.136 26.65 21.47 11.51 38.644 1.188 60.575.1 83.49c-1.93 40.591 24.366 70.187 63.098 77.445 32.562 6.102 61.02-14.8 77.608-43.05" fill="#F79F1A" mask="url(#9t8v0lffvf)"/>
        </g>
        <path d="M279.078.824c-1.415-.016-2.894.044-4.127.74-1.572.887-2.443 2.63-3.125 4.307-2.934 7.215-4.025 15.368-1.959 22.881 2.067 7.513 7.566 14.24 14.91 16.73 3.258 1.106 6.74 1.369 10.176 1.338 4.252-.04 8.8-.642 11.997-3.458 3.414-3.007 4.536-7.925 4.389-12.484-.21-6.498-2.505-17.721-7.14-22.675-5.4-5.77-17.747-7.295-25.12-7.379" fill="#F79F1A"/>
        <path d="M131.452 40.079c48.563-11.812 80.654 5.02 96.273 50.496 23.429 68.214 105.615 40.74 164.507 26.289 58.892-14.45 141.067-73.707 196.538 86.176M1375.452 233.079c48.563-11.812 80.654 5.02 96.273 50.496 23.429 68.214 105.615 40.74 164.507 26.289 58.892-14.45 141.067-73.707 196.538 86.176" stroke="#FFF" stroke-width="2"/>
    </g>
</svg>
