<svg xmlns="http://www.w3.org/2000/svg" xmlns:xlink="http://www.w3.org/1999/xlink" width="221" height="126" viewBox="0 0 221 126">
    <defs>
        <path id="cbxdnt4gqa" d="M0 0L221 0 221 126 0 126z"/>
        <path id="kp09ng2d1c" d="M0 0L6 0 6 6 0 6z"/>
        <path id="q9bz5pxpse" d="M0 0L7 0 7 7 0 7z"/>
    </defs>
    <g fill="none" fill-rule="evenodd">
        <g>
            <g>
                <g>
                    <g transform="translate(-1253 -257) translate(-190.392 -76) translate(1443.392 333)">
                        <mask id="izyxui2omb" fill="#fff">
                            <use xlink:href="#cbxdnt4gqa"/>
                        </mask>
                        <path fill="#F79F1A" d="M2.973 6.034S207.117-6.855 220.99 5.042c0 0 2.973 107.078-96.126 120.958 0 0-91.17 0-124.864-117.983" mask="url(#izyxui2omb)"/>
                    </g>
                    <g>
                        <path fill="#FFF" d="M44.093 34.893c-.443 1.737.764 3.653 2.203 4.499 2.295 1.348 5.319.373 6.36-2.122.968-2.314-.198-4.872-2.389-5.92-1.094-.522-2.378-.409-3.48.002-1.57.587-2.306 2.02-2.694 3.54M67.965 24.596c-.585-3.956-7.516-3.156-6.93.808.586 3.956 7.516 3.156 6.93-.808M70.97 39.597c-.502-3.957-6.443-3.156-5.94.806.502 3.957 6.443 3.156 5.94-.806M42.899 62.626c2.513-2.032 3.133-2.976 1.863-2.83-1.031.083-1.998.912-2.38 1.887l-.017.042 1.519-1.581-.113.046 1.452-.198c-.32-.004-.64-.008-.96-.002-1.375.024-2.446 1.715-2.237 3.03.103.654.348 1.156.714 1.674l-.574-1.431.006.041c.172 1.245 1.256 2.643 2.565 2.692 2.541.096 4.348-1.442 4.26-4.203-.054-1.678-1.922-3.037-3.45-2.756-1.619.299-2.9 1.815-2.648 3.589M31.97 35.597c-.501-3.957-6.442-3.156-5.94.806.502 3.957 6.442 3.156 5.94-.806M45.04 20.222c.308 1.697.378 3.574 1.506 4.982.77.96 2.704 1.16 3.43-.007.972-1.564.908-3.181 1.017-4.952.107-1.72-1.055-3.238-2.963-3.245-1.726-.006-3.303 1.497-2.99 3.222M59.975 53.164c-.418-3.297-5.369-2.63-4.95.672.418 3.297 5.369 2.63 4.95-.672M32.97 56.596c-.502-3.956-6.442-3.155-5.94.807.502 3.957 6.443 3.156 5.94-.807M91.593 49.977l1.52-.225c1.071-.16 1.9-1.178 1.887-2.349-.013-1.066-.766-2.337-1.869-2.364l-1.52-.038c-1.383-.034-2.605.837-2.611 2.477-.005 1.485 1.202 2.705 2.593 2.5M89.975 30.163c-.418-3.296-5.369-2.63-4.95.673.418 3.297 5.368 2.63 4.95-.673M76.97 55.597c-.502-3.957-6.442-3.156-5.94.806.502 3.957 6.442 3.156 5.94-.806M33.97 14.596c-.502-3.955-6.443-3.156-5.94.807.502 3.957 6.442 3.157 5.94-.807M71.97 10.596c-.502-3.956-6.442-3.155-5.94.808.502 3.956 6.442 3.155 5.94-.808M41.985 44.298c-.25-1.978-3.221-1.578-2.97.404.25 1.978 3.221 1.577 2.97-.404M7.609 43.228c-1.287.5-2.628 1.393-2.609 2.885.018 1.444 1.267 2.38 2.612 2.736 2.12.562 4.378-.462 4.388-2.798.009-2.165-2.288-3.64-4.391-2.823" transform="translate(-1253 -257) translate(-190.392 -76) translate(1443.392 333) translate(0 24)"/>
                        <g transform="translate(-1253 -257) translate(-190.392 -76) translate(1443.392 333) translate(0 24) translate(0 14)">
                            <mask id="lwy1c4025d" fill="#fff">
                                <use xlink:href="#kp09ng2d1c"/>
                            </mask>
                            <path fill="#FFF" d="M5.97 2.597C5.468-1.36-.472-.56.03 3.403.532 7.36 6.473 6.56 5.97 2.597" mask="url(#lwy1c4025d)"/>
                        </g>
                        <path fill="#FFF" d="M20.975 31.164c-.418-3.297-5.369-2.63-4.95.672.418 3.297 5.368 2.63 4.95-.672" transform="translate(-1253 -257) translate(-190.392 -76) translate(1443.392 333) translate(0 24)"/>
                        <g transform="translate(-1253 -257) translate(-190.392 -76) translate(1443.392 333) translate(0 24) translate(103 23)">
                            <mask id="6ppbbdi47f" fill="#fff">
                                <use xlink:href="#q9bz5pxpse"/>
                            </mask>
                            <path fill="#FFF" d="M6.965 3.029C6.38-1.586-.55-.653.035 3.97c.585 4.616 7.517 3.683 6.93-.941" mask="url(#6ppbbdi47f)"/>
                        </g>
                        <path fill="#FFF" d="M97.97 13.164c-.502-3.297-6.442-2.63-5.94.672.502 3.297 6.442 2.63 5.94-.672M41.97 4.596c-.502-3.956-6.442-3.155-5.94.807.502 3.957 6.442 3.156 5.94-.807M9.97 2.597C9.468-1.36 3.528-.56 4.03 3.403c.502 3.957 6.442 3.156 5.94-.806" transform="translate(-1253 -257) translate(-190.392 -76) translate(1443.392 333) translate(0 24)"/>
                    </g>
                </g>
            </g>
        </g>
    </g>
</svg>
