<svg xmlns="http://www.w3.org/2000/svg" xmlns:xlink="http://www.w3.org/1999/xlink" width="247" height="199" viewBox="0 0 247 199">
    <defs>
        <filter id="54wm547nya">
            <feColorMatrix in="SourceGraphic" values="0 0 0 0 0.968627 0 0 0 0 0.623529 0 0 0 0 0.101961 0 0 0 0.100000 0"/>
        </filter>
        <path id="p3m49idc9b" d="M0 0L247 0 247 199 0 199z"/>
    </defs>
    <g fill="none" fill-rule="evenodd">
        <g>
            <g filter="url(#54wm547nya)" transform="translate(-880 76) translate(-159.638 -76)">
                <g transform="translate(1039.638)">
                    <mask id="nm939yfp2c" fill="#fff">
                        <use xlink:href="#p3m49idc9b"/>
                    </mask>
                    <path fill="#D3A9A1" d="M.212 43.633C.293 59.545.176 75.509 2.179 91.324c2.299 18.166 6.278 35.975 15.844 51.87 9.67 16.067 24.155 28.65 40.488 37.605 30.01 16.456 65.902 22.756 99.402 14.733 33.401-8 60.673-32.491 74.349-63.768 8.725-19.952 13.11-40.44 14.368-62.214 1.225-21.195-.813-42.396-2.845-63.475-.12-1.253-.278-2.475-.487-3.667-11.119 0-22.875-3.604-33.94-1.993-15.255 2.22-12.604 3.26-14.305 16.964-3.78 30.457-11.147 55.275-29.324 80.714-4.941 6.916-10.493 13.765-18.04 17.658-10.63 5.483-23.414 4.225-35.095 1.672-12.556-2.745-25.155-7.014-34.963-15.336C61.824 88.675 55.818 67.195 51.438 46.91c-1.96-9.072-1.114-37.216-7.381-43.055C36.437-3.243 9.747 2.408 0 2.408l.212 41.225" mask="url(#nm939yfp2c)"/>
                </g>
            </g>
        </g>
    </g>
</svg>
